<svg width="38" height="38" viewBox="0 0 38 38" fill="none" xmlns="http://www.w3.org/2000/svg">
<g clip-path="url(#clip0_75_84)">
<path d="M34.2576 32.6454C33.9122 32.6454 33.6819 32.4151 33.6819 32.0696V10.3635C33.6819 9.90293 33.2788 9.4999 32.8182 9.4999H5.12428C4.66368 9.4999 4.26065 9.90293 4.26065 10.3635V32.012C4.26065 32.3575 4.03034 32.5878 3.68489 32.5878C3.33943 32.5878 3.10913 32.3575 3.10913 32.012V10.3635C3.10913 9.21203 3.97277 8.34839 5.12428 8.34839H32.8182C33.9697 8.34839 34.8334 9.21203 34.8334 10.3635V32.0696C34.8334 32.4151 34.6031 32.6454 34.2576 32.6454Z" fill="#20282D"/>
<path d="M34.3152 14.3363H3.68489C3.33943 14.3363 3.10913 14.106 3.10913 13.7606C3.10913 13.4151 3.33943 13.1848 3.68489 13.1848H34.3152C34.6606 13.1848 34.8909 13.4151 34.8909 13.7606C34.8909 14.106 34.6606 14.3363 34.3152 14.3363Z" fill="#20282D"/>
<path d="M16.4667 11.9181H7.02424C6.67879 11.9181 6.44849 11.6878 6.44849 11.3424C6.44849 10.9969 6.67879 10.7666 7.02424 10.7666H16.4667C16.8121 10.7666 17.0424 10.9969 17.0424 11.3424C17.0424 11.6878 16.8121 11.9181 16.4667 11.9181Z" fill="#20282D"/>
<path d="M24.7576 11.9181H24.4122C24.0667 11.9181 23.8364 11.6878 23.8364 11.3424C23.8364 10.9969 24.0667 10.7666 24.4122 10.7666H24.7576C25.1031 10.7666 25.3334 10.9969 25.3334 11.3424C25.3334 11.6878 25.1031 11.9181 24.7576 11.9181Z" fill="#20282D"/>
<path d="M27.8092 11.9181H27.4637C27.1182 11.9181 26.8879 11.6878 26.8879 11.3424C26.8879 10.9969 27.1182 10.7666 27.4637 10.7666H27.8092C28.1546 10.7666 28.3849 10.9969 28.3849 11.3424C28.3849 11.6878 28.1546 11.9181 27.8092 11.9181Z" fill="#20282D"/>
<path d="M30.9757 11.9181H30.6302C30.2847 11.9181 30.0544 11.6878 30.0544 11.3424C30.0544 10.9969 30.2847 10.7666 30.6302 10.7666H30.9757C31.3211 10.7666 31.5514 10.9969 31.5514 11.3424C31.5514 11.6878 31.3211 11.9181 30.9757 11.9181Z" fill="#20282D"/>
<path d="M34.4878 37.5393H3.51205C1.89993 37.5393 0.575684 36.2151 0.575684 34.6029V32.012C0.575684 31.6666 0.805987 31.4363 1.15144 31.4363H15.5454C15.8908 31.4363 16.1211 31.6666 16.1211 32.012C16.1211 32.3575 15.8908 32.5878 15.5454 32.5878H1.7272V34.6029C1.7272 35.5817 2.53326 36.3878 3.51205 36.3878H34.4878C35.4666 36.3878 36.2727 35.5817 36.2727 34.6029V32.5878H22.4545C22.109 32.5878 21.8787 32.3575 21.8787 32.012C21.8787 31.6666 22.109 31.4363 22.4545 31.4363H36.8484C37.1939 31.4363 37.4242 31.6666 37.4242 32.012V34.6029C37.4242 36.2151 36.0999 37.5393 34.4878 37.5393Z" fill="#20282D"/>
<path d="M21.2454 34.7181H16.697C15.7182 34.7181 14.9121 33.912 14.9121 32.9333V32.012C14.9121 31.6666 15.1424 31.4363 15.4879 31.4363C15.8333 31.4363 16.0636 31.6666 16.0636 32.012V32.9333C16.0636 33.3363 16.4091 33.5666 16.697 33.5666H21.2454C21.6485 33.5666 21.8788 33.2211 21.8788 32.9333V32.012C21.8788 31.6666 22.1091 31.4363 22.4545 31.4363C22.8 31.4363 23.0303 31.6666 23.0303 32.012V32.9333C23.0303 33.912 22.2242 34.7181 21.2454 34.7181Z" fill="#20282D"/>
<path d="M16.2362 18.7121H7.13923C6.79378 18.7121 6.56348 18.4818 6.56348 18.1363C6.56348 17.7908 6.79378 17.5605 7.13923 17.5605H16.2362C16.5817 17.5605 16.812 17.7908 16.812 18.1363C16.812 18.4818 16.5817 18.7121 16.2362 18.7121Z" fill="#20282D"/>
<path d="M16.2362 21.9362H7.13923C6.79378 21.9362 6.56348 21.7059 6.56348 21.3604C6.56348 21.015 6.79378 20.7847 7.13923 20.7847H16.2362C16.5817 20.7847 16.812 21.015 16.812 21.3604C16.812 21.7059 16.5817 21.9362 16.2362 21.9362Z" fill="#20282D"/>
<path d="M16.2362 25.2182H7.13923C6.79378 25.2182 6.56348 24.9879 6.56348 24.6424C6.56348 24.297 6.79378 24.0667 7.13923 24.0667H16.2362C16.5817 24.0667 16.812 24.297 16.812 24.6424C16.812 24.9879 16.5817 25.2182 16.2362 25.2182Z" fill="#20282D"/>
<path d="M16.2362 28.4423H7.13923C6.79378 28.4423 6.56348 28.212 6.56348 27.8665C6.56348 27.5211 6.79378 27.2908 7.13923 27.2908H16.2362C16.5817 27.2908 16.812 27.5211 16.812 27.8665C16.812 28.212 16.5817 28.4423 16.2362 28.4423Z" fill="#20282D"/>
<path d="M16.2364 9.49989C16.0061 9.49989 15.7758 9.32716 15.7182 9.09686C15.603 8.80898 15.603 8.57868 15.603 8.40595C15.603 5.93019 17.6182 3.91504 20.0364 3.91504C22.4545 3.91504 24.4697 5.93019 24.4697 8.40595C24.4697 8.5211 24.4697 8.63625 24.4121 8.7514V8.92413C24.4121 9.26958 24.1818 9.49989 23.8364 9.49989C23.4909 9.49989 23.2606 9.26958 23.2606 8.92413C23.2606 8.80898 23.2606 8.69383 23.3182 8.57868C23.3182 8.5211 23.3182 8.46352 23.3182 8.40595C23.3182 6.56352 21.8212 5.06655 20.0364 5.06655C18.1939 5.06655 16.7545 6.50595 16.7545 8.40595V8.7514C16.8697 9.03928 16.697 9.38474 16.4091 9.49989C16.3515 9.49989 16.2939 9.49989 16.2364 9.49989Z" fill="#20282D"/>
<path d="M13.7606 9.49997C13.703 9.49997 13.6455 9.49997 13.5879 9.4424C13.3 9.32725 13.1273 9.03937 13.2424 8.69391C13.3 8.57876 13.3 8.46361 13.3 8.34846C13.3 7.88785 12.9545 7.48482 12.3212 7.19694C12.0909 7.08179 11.9182 6.79391 11.9758 6.56361C12.2061 5.52725 12.5515 4.66361 13.1273 3.91513C13.3 3.68482 13.5879 3.62725 13.8182 3.7424C14.3939 4.03028 14.9697 4.03028 15.2576 3.68482C15.7182 3.22422 15.5455 2.64846 15.3727 2.24543C15.2576 1.95755 15.3727 1.66967 15.603 1.55452C16.4091 1.09391 17.2727 0.690884 18.1939 0.460581C18.4818 0.403005 18.7121 0.518156 18.8849 0.748459C19.0576 1.15149 19.4606 1.72725 20.0364 1.72725C20.497 1.72725 20.9 1.38179 21.1879 0.748459C21.303 0.518156 21.5333 0.345429 21.8212 0.403005C22.7424 0.575732 23.6636 0.978762 24.4697 1.55452C24.7 1.72725 24.7576 1.95755 24.7 2.24543C24.4697 2.87876 24.5273 3.45452 24.8152 3.7424C25.103 4.03028 25.6788 4.08785 26.2545 3.85755C26.5424 3.7424 26.8303 3.85755 26.9455 4.08785C27.4061 4.89391 27.8091 5.75755 28.0394 6.67876C28.097 6.96664 27.9818 7.25452 27.6939 7.36967C27.1182 7.59997 26.7152 8.06058 26.7152 8.52119C26.7152 8.57876 26.7727 8.75149 26.7727 8.86664L25.6788 9.2121C25.6212 8.98179 25.5061 8.75149 25.5061 8.52119C25.5061 7.7727 25.9667 7.02422 26.7152 6.56361C26.5424 6.04543 26.3697 5.58482 26.0818 5.12422C25.2182 5.35452 24.4121 5.12422 23.8939 4.60604C23.3758 4.08785 23.203 3.28179 23.3758 2.36058C22.9152 2.0727 22.4545 1.89997 21.9364 1.72725C21.4758 2.41816 20.7273 2.87876 19.9788 2.87876C19.2303 2.87876 18.5394 2.47573 18.0212 1.66967C17.503 1.8424 17.0424 2.01513 16.5818 2.303C16.8121 3.16664 16.6394 3.9727 16.0636 4.54846C15.5455 5.12422 14.7394 5.29694 13.8182 5.06664C13.5879 5.46967 13.3576 5.98785 13.2424 6.50604C13.9909 6.96664 14.4515 7.71513 14.4515 8.46361C14.4515 8.75149 14.3939 8.98179 14.2788 9.15452C14.2212 9.32725 13.9909 9.49997 13.7606 9.49997Z" fill="#20282D"/>
<path d="M25.1029 18.9424C24.7574 18.9424 24.5271 18.7121 24.5271 18.3667V17.2152C24.5271 16.8697 24.7574 16.6394 25.1029 16.6394C25.4483 16.6394 25.6786 16.8697 25.6786 17.2152V18.3667C25.6786 18.7121 25.4483 18.9424 25.1029 18.9424Z" fill="#20282D"/>
<path d="M21.821 19.9211C21.6483 19.9211 21.5331 19.8635 21.418 19.7484C21.2452 19.5757 21.1301 19.4605 20.9573 19.2878C20.8422 19.1151 20.6695 18.9999 20.5543 18.8272C20.324 18.5969 20.324 18.2514 20.5543 18.0211C20.7846 17.7908 21.1301 17.7908 21.3604 18.0211C21.5331 18.1938 21.6483 18.309 21.821 18.4817C21.9361 18.6544 22.1089 18.7696 22.224 18.9423C22.4543 19.1726 22.4543 19.5181 22.224 19.7484C22.1089 19.8635 21.9937 19.9211 21.821 19.9211Z" fill="#20282D"/>
<path d="M19.9787 22.4546C19.9211 22.4546 19.8635 22.4546 19.8635 22.4546C19.6332 22.397 19.4605 22.3394 19.2302 22.3394C18.9999 22.2819 18.7696 22.2243 18.5393 22.1667C18.2514 22.1091 18.0211 21.7637 18.1362 21.4758C18.1938 21.1879 18.5393 20.9576 18.8271 21.0728C19.0575 21.1303 19.2302 21.1879 19.4605 21.1879L20.1514 21.3606C20.4393 21.4182 20.6696 21.7637 20.5544 22.0516C20.4968 22.2819 20.209 22.4546 19.9787 22.4546Z" fill="#20282D"/>
<path d="M28.6151 19.9211C28.4423 19.9211 28.3272 19.8635 28.212 19.7484C27.9817 19.5181 27.9817 19.1726 28.212 18.9423C28.3272 18.8272 28.4999 18.6544 28.6151 18.4817C28.7878 18.309 28.9029 18.1363 29.0757 18.0211C29.306 17.7908 29.6514 17.7908 29.8817 18.0211C30.112 18.2514 30.112 18.5969 29.8817 18.8272C29.7666 18.9423 29.5939 19.1151 29.4787 19.2878C29.306 19.4605 29.1908 19.6332 29.0181 19.7484C28.9029 19.8635 28.7878 19.9211 28.6151 19.9211Z" fill="#20282D"/>
<path d="M30.4574 22.4546C30.2271 22.4546 29.9392 22.2818 29.8816 21.994C29.8241 21.7061 29.9968 21.3606 30.2847 21.3031L30.9756 21.1303C31.2059 21.0728 31.3786 21.0728 31.6089 21.0152C31.8968 20.9576 32.2422 21.1303 32.2998 21.4182C32.3574 21.7061 32.1847 22.0515 31.8968 22.1091C31.6665 22.1667 31.4362 22.2243 31.2059 22.2818C30.9756 22.3394 30.8028 22.3394 30.5725 22.397C30.5725 22.4546 30.515 22.4546 30.4574 22.4546Z" fill="#20282D"/>
<path d="M26.3696 29.5938H23.9514C23.606 29.5938 23.3757 29.3635 23.3757 29.0181V28.7302C23.3757 27.9242 23.0302 27.1757 22.3393 26.5423C21.2454 25.506 20.7848 24.009 21.0726 22.6272C21.4181 21.0151 22.6848 19.7484 24.2969 19.4029C25.5636 19.1726 26.8878 19.4605 27.8666 20.2666C28.8454 21.0726 29.3636 22.2242 29.3636 23.4908C29.3636 24.6999 28.903 25.7938 27.9817 26.5999C27.3484 27.1757 26.9454 27.9817 26.9454 28.7878V29.0181C26.9454 29.3635 26.7151 29.5938 26.3696 29.5938ZM24.5272 28.4423H25.7939C25.909 27.406 26.3696 26.4848 27.1757 25.7363C27.8666 25.1605 28.212 24.412 28.212 23.4908C28.212 22.5696 27.809 21.7635 27.1181 21.1878C26.4272 20.612 25.4484 20.3817 24.5272 20.5545C23.3757 20.7848 22.4545 21.706 22.2242 22.8575C21.9939 23.8938 22.3393 24.9878 23.1454 25.7363C23.9514 26.4848 24.412 27.406 24.5272 28.4423Z" fill="#20282D"/>
</g>
<defs>
<clipPath id="clip0_75_84">
<rect width="38" height="38" fill="white"/>
</clipPath>
</defs>
</svg>
