<svg width="37" height="37" viewBox="0 0 37 37" fill="none" xmlns="http://www.w3.org/2000/svg">
<path d="M12.6795 7.36102C11.551 7.78733 10.7424 8.86983 10.7424 10.1455C10.7424 10.6368 10.8732 11.094 11.0844 11.5034C10.1893 11.8475 9.54883 12.7106 9.54883 13.7261C9.54883 14.7419 10.1893 15.6047 11.0844 15.9491C10.8732 16.3585 10.7424 16.8157 10.7424 17.3067C10.7424 18.5827 11.551 19.6652 12.6795 20.0912C12.59 20.3412 12.5326 20.6069 12.5326 20.8873C12.5326 22.2038 13.6032 23.2743 14.9197 23.2743C15.2169 23.2743 15.4987 23.2128 15.7612 23.1138C16.1479 23.9119 16.9588 24.4678 17.9035 24.4678C19.22 24.4678 20.2906 23.3973 20.2906 22.0808V5.37143C20.2906 4.05523 19.22 2.98438 17.9035 2.98438C16.9588 2.98438 16.1479 3.54063 15.7612 4.33846C15.4987 4.23938 15.2169 4.1779 14.9197 4.1779C13.6032 4.1779 12.5326 5.24875 12.5326 6.56495C12.5326 6.84556 12.59 7.11101 12.6795 7.36102ZM14.9197 5.37143C15.5779 5.37143 16.1132 5.90671 16.1132 6.56495H17.3067C17.3067 5.9915 17.0949 5.47108 16.7566 5.05935C16.895 4.5535 17.354 4.1779 17.9035 4.1779C18.5618 4.1779 19.097 4.71318 19.097 5.37143V22.0808C19.097 22.739 18.5618 23.2743 17.9035 23.2743C17.354 23.2743 16.895 22.899 16.7566 22.3929C17.0949 21.9811 17.3067 21.461 17.3067 20.8873H16.1132C16.1132 21.5455 15.5779 22.0808 14.9197 22.0808C14.2614 22.0808 13.7262 21.5455 13.7262 20.8873C13.7262 20.229 14.2614 19.6937 14.9197 19.6937V18.5002C14.3384 18.5002 13.8121 18.7176 13.3981 19.0638C12.5673 18.909 11.9359 18.1817 11.9359 17.3067C11.9359 16.3198 12.7392 15.5164 13.7262 15.5164C14.7134 15.5164 15.5165 16.3198 15.5165 17.3067H16.71C16.71 15.6615 15.3716 14.3229 13.7262 14.3229C13.0519 14.3229 12.4359 14.5563 11.9359 14.9354V14.9196C11.2776 14.9196 10.7424 14.3844 10.7424 13.7261C10.7424 13.0679 11.2776 12.5326 11.9359 12.5326V12.5171C12.4359 12.8962 13.0519 13.1293 13.7262 13.1293C15.3716 13.1293 16.71 11.791 16.71 10.1455H15.5165C15.5165 11.1328 14.7134 11.9358 13.7262 11.9358C12.7392 11.9358 11.9359 11.1328 11.9359 10.1455C11.9359 9.27078 12.5673 8.54348 13.3981 8.38875C13.8121 8.73492 14.3384 8.952 14.9197 8.952V7.75848C14.2614 7.75848 13.7262 7.2232 13.7262 6.56495C13.7262 5.90671 14.2614 5.37143 14.9197 5.37143Z" fill="#20282D"/>
<path d="M26.855 4.1779C26.5578 4.1779 26.2763 4.23938 26.0138 4.33846C25.6268 3.54063 24.8159 2.98438 23.8712 2.98438C22.5547 2.98438 21.4841 4.05523 21.4841 5.37143V22.0808C21.4841 23.3973 22.5547 24.4678 23.8712 24.4678C24.8159 24.4678 25.6268 23.9119 26.0138 23.1138C26.2763 23.2128 26.5578 23.2743 26.855 23.2743C28.1715 23.2743 29.242 22.2038 29.242 20.8873C29.242 20.6069 29.1849 20.3412 29.0952 20.0912C30.2237 19.6652 31.0323 18.5827 31.0323 17.3067C31.0323 16.8157 30.9018 16.3585 30.6905 15.9491C31.5857 15.6047 32.2259 14.7419 32.2259 13.7261C32.2259 12.7106 31.5857 11.8475 30.6905 11.5034C30.9018 11.094 31.0323 10.6368 31.0323 10.1455C31.0323 8.86983 30.2237 7.78733 29.0952 7.36102C29.1849 7.11101 29.242 6.84556 29.242 6.56495C29.242 5.24875 28.1715 4.1779 26.855 4.1779ZM29.8388 10.1455C29.8388 11.1328 29.0357 11.9358 28.0485 11.9358C27.0616 11.9358 26.2582 11.1328 26.2582 10.1455H25.0647C25.0647 11.791 26.4033 13.1293 28.0485 13.1293C28.7228 13.1293 29.3388 12.8962 29.8388 12.5171V12.5326C30.4971 12.5326 31.0323 13.0679 31.0323 13.7261C31.0323 14.3844 30.4971 14.9196 29.8388 14.9196V14.9354C29.3388 14.5563 28.7228 14.3229 28.0485 14.3229C26.4033 14.3229 25.0647 15.6615 25.0647 17.3067H26.2582C26.2582 16.3198 27.0616 15.5164 28.0485 15.5164C29.0357 15.5164 29.8388 16.3198 29.8388 17.3067C29.8388 18.1817 29.2074 18.909 28.3769 19.0638C27.9626 18.7176 27.4363 18.5002 26.855 18.5002V19.6937C27.5132 19.6937 28.0485 20.229 28.0485 20.8873C28.0485 21.5455 27.5132 22.0808 26.855 22.0808C26.1968 22.0808 25.6615 21.5455 25.6615 20.8873H24.4679C24.4679 21.461 24.6798 21.9811 25.0181 22.3929C24.8797 22.899 24.4207 23.2743 23.8712 23.2743C23.2129 23.2743 22.6777 22.739 22.6777 22.0808V5.37143C22.6777 4.71318 23.2129 4.1779 23.8712 4.1779C24.4207 4.1779 24.8797 4.5535 25.0181 5.05935C24.6798 5.47108 24.4679 5.9915 24.4679 6.56495H25.6615C25.6615 5.90671 26.1968 5.37143 26.855 5.37143C27.5132 5.37143 28.0485 5.90671 28.0485 6.56495C28.0485 7.2232 27.5132 7.75848 26.855 7.75848V8.952C27.4363 8.952 27.9626 8.73492 28.3769 8.38875C29.2074 8.54348 29.8388 9.27078 29.8388 10.1455Z" fill="#20282D"/>
<path d="M30.2847 3.72211C27.4961 1.10108 23.8439 -0.213084 20.011 0.0281853L20.085 1.21909C23.5872 1.00142 26.9206 2.19903 29.4677 4.59162C32.0159 6.98624 33.4195 10.2309 33.4195 13.7261C33.4195 17.9381 31.32 21.8438 27.8033 24.1744C26.5902 24.9786 25.6723 26.1258 25.1068 27.4516H16.6434C16.0699 26.1162 15.1486 24.9608 13.9335 24.1493C10.3092 21.727 8.22664 17.6816 8.36213 13.3263L7.16919 13.2893C7.02058 18.0587 9.30186 22.4896 13.2706 25.1412C14.1471 25.7272 14.847 26.525 15.3348 27.4516H13.7263V28.6451H15.8109C15.9266 29.0318 16.0192 29.4281 16.0661 29.8387H14.9198V31.0322H16.1134V32.8225C16.1134 33.1526 16.3808 33.4192 16.7101 33.4192H17.3069C17.3069 35.394 18.9127 36.9998 20.8875 36.9998C22.8622 36.9998 24.468 35.394 24.468 33.4192H25.0648C25.3944 33.4192 25.6616 33.1526 25.6616 32.8225V31.0322H26.8551V29.8387H25.7035C25.7458 29.4287 25.83 29.0312 25.9433 28.6451H28.0486V27.4516H26.4142C26.895 26.5352 27.5908 25.7473 28.463 25.1697C32.3137 22.616 34.613 18.3384 34.613 13.7261C34.613 9.95345 33.0351 6.30673 30.2847 3.72211ZM20.8875 35.8063C19.571 35.8063 18.5004 34.7357 18.5004 33.4192H23.2745C23.2745 34.7357 22.2039 35.8063 20.8875 35.8063ZM24.468 32.2257H17.3069V31.0322H24.468V32.2257ZM24.5106 29.8387H17.2591C17.2192 29.4325 17.1548 29.0333 17.0569 28.6451H24.6962C24.6012 29.0327 24.5461 29.4336 24.5106 29.8387Z" fill="#20282D"/>
<path d="M6.56502 4.17783C7.88152 4.17783 8.95208 5.24868 8.95208 6.56488C8.95208 6.89502 9.21957 7.16164 9.54884 7.16164C9.8784 7.16164 10.1456 6.89502 10.1456 6.56488C10.1456 5.24868 11.2162 4.17783 12.5327 4.17783C12.8622 4.17783 13.1294 3.91121 13.1294 3.58107C13.1294 3.25121 12.8622 2.9843 12.5327 2.9843C11.2162 2.9843 10.1456 1.91374 10.1456 0.597251C10.1456 0.2674 9.8784 0.000488281 9.54884 0.000488281C9.21957 0.000488281 8.95208 0.2674 8.95208 0.597251C8.95208 1.91374 7.88152 2.9843 6.56502 2.9843C6.23576 2.9843 5.96826 3.25121 5.96826 3.58107C5.96826 3.91121 6.23576 4.17783 6.56502 4.17783ZM9.54884 2.57432C9.814 2.97294 10.157 3.31619 10.5556 3.58107C10.157 3.84623 9.814 4.18919 9.54884 4.58781C9.28397 4.18919 8.94071 3.84623 8.54209 3.58107C8.94071 3.31619 9.28397 2.97294 9.54884 2.57432Z" fill="#20282D"/>
<path d="M8.95209 10.1456C9.28165 10.1456 9.54885 9.87898 9.54885 9.54884C9.54885 9.21899 9.28165 8.95208 8.95209 8.95208C7.6356 8.95208 6.56504 7.88152 6.56504 6.56502C6.56504 6.23517 6.29783 5.96826 5.96827 5.96826C5.639 5.96826 5.37151 6.23517 5.37151 6.56502C5.37151 7.88152 4.30095 8.95208 2.98446 8.95208C2.65519 8.95208 2.3877 9.21899 2.3877 9.54884C2.3877 9.87898 2.65519 10.1456 2.98446 10.1456C4.30095 10.1456 5.37151 11.2165 5.37151 12.5327C5.37151 12.8628 5.639 13.1294 5.96827 13.1294C6.29783 13.1294 6.56504 12.8628 6.56504 12.5327C6.56504 11.2165 7.6356 10.1456 8.95209 10.1456ZM5.96827 10.5556C5.7034 10.157 5.36015 9.814 4.96153 9.54884C5.36015 9.28397 5.70282 8.94071 5.96827 8.54209C6.23344 8.94071 6.5764 9.28339 6.97502 9.54884C6.5764 9.814 6.23344 10.157 5.96827 10.5556Z" fill="#20282D"/>
</svg>
