<svg width="38" height="38" viewBox="0 0 38 38" fill="none" xmlns="http://www.w3.org/2000/svg">
<g clip-path="url(#clip0_80_312)">
<path d="M13.0625 13.6563H8.90625V9.5C8.90625 9.34253 8.8437 9.19151 8.73235 9.08016C8.621 8.96881 8.46997 8.90625 8.3125 8.90625C7.25561 8.90625 6.22245 9.21966 5.34367 9.80683C4.4649 10.394 3.77998 11.2286 3.37552 12.205C2.97107 13.1815 2.86524 14.2559 3.07143 15.2925C3.27762 16.3291 3.78656 17.2813 4.5339 18.0286C5.28124 18.7759 6.2334 19.2849 7.26999 19.4911C8.30657 19.6973 9.38102 19.5914 10.3575 19.187C11.3339 18.7825 12.1685 18.0976 12.7557 17.2188C13.3428 16.3401 13.6563 15.3069 13.6563 14.25C13.6563 14.0925 13.5937 13.9415 13.4823 13.8302C13.371 13.7188 13.22 13.6563 13.0625 13.6563ZM7.71875 10.1359V14.0042L4.9875 16.7354C4.55397 16.1592 4.27819 15.4799 4.18735 14.7645C4.09652 14.0491 4.19377 13.3224 4.46953 12.6561C4.74528 11.9898 5.19 11.4069 5.7598 10.965C6.32961 10.523 7.0048 10.2373 7.71875 10.1359ZM8.3125 18.4063C7.41614 18.4062 6.54413 18.1144 5.82825 17.575L8.5595 14.8438H12.4278C12.2837 15.8327 11.7886 16.7367 11.0331 17.3908C10.2775 18.0449 9.31185 18.4053 8.3125 18.4063Z" fill="#20282D"/>
<path d="M10.6875 12.4688H15.4375C15.595 12.4688 15.746 12.4062 15.8573 12.2948C15.9687 12.1835 16.0312 12.0325 16.0312 11.875C16.0295 10.4583 15.466 9.10008 14.4642 8.09831C13.4624 7.09653 12.1042 6.53298 10.6875 6.53125C10.53 6.53125 10.379 6.59381 10.2677 6.70516C10.1563 6.81651 10.0938 6.96753 10.0938 7.125V11.875C10.0938 12.0325 10.1563 12.1835 10.2677 12.2948C10.379 12.4062 10.53 12.4688 10.6875 12.4688ZM11.2812 7.76091C12.1688 7.89065 12.9907 8.30331 13.625 8.93755C14.2592 9.57178 14.6718 10.3937 14.8016 11.2812H11.2812V7.76091Z" fill="#20282D"/>
<path d="M23.1563 15.4375C21.6296 15.4375 20.1373 15.8902 18.8679 16.7383C17.5986 17.5865 16.6093 18.792 16.0251 20.2024C15.4408 21.6128 15.288 23.1648 15.5858 24.6621C15.8836 26.1594 16.6188 27.5347 17.6983 28.6142C18.7778 29.6937 20.1531 30.4289 21.6504 30.7267C23.1477 31.0245 24.6997 30.8717 26.1101 30.2874C27.5205 29.7032 28.726 28.7139 29.5742 27.4446C30.4223 26.1752 30.875 24.6829 30.875 23.1562C30.8726 21.1098 30.0587 19.1479 28.6116 17.7009C27.1646 16.2538 25.2027 15.4399 23.1563 15.4375ZM20.1875 20.7812V17.3458C20.5671 17.1514 20.9648 16.9947 21.375 16.8779V20.7812H20.1875ZM27.3125 21.9688V23.1562H19V21.9688H27.3125ZM24.9375 20.7812V16.8779C25.3477 16.9947 25.7454 17.1514 26.125 17.3458V20.7812H24.9375ZM23.75 16.6553V20.7812H22.5625V16.6553C22.7584 16.6375 22.9556 16.625 23.1563 16.625C23.3569 16.625 23.5541 16.6375 23.75 16.6553ZM19 18.1218V20.7812H18.4063C18.2488 20.7812 18.0978 20.8438 17.9864 20.9552C17.8751 21.0665 17.8125 21.2175 17.8125 21.375V23.75C17.8125 23.9075 17.8751 24.0585 17.9864 24.1698C18.0978 24.2812 18.2488 24.3438 18.4063 24.3438H27.9063C28.0637 24.3438 28.2147 24.2812 28.3261 24.1698C28.4374 24.0585 28.5 23.9075 28.5 23.75V21.375C28.5 21.2175 28.4374 21.0665 28.3261 20.9552C28.2147 20.8438 28.0637 20.7812 27.9063 20.7812H27.3125V18.1218C28.3755 18.9947 29.1342 20.1823 29.4794 21.5138C29.8247 22.8452 29.7387 24.2518 29.2339 25.5312H17.0786C16.5738 24.2518 16.4878 22.8452 16.8331 21.5138C17.1783 20.1823 17.937 18.9947 19 18.1218ZM23.1563 29.6875C22.0699 29.6864 21.0011 29.4143 20.0464 28.8959C19.0918 28.3775 18.2815 27.6292 17.689 26.7188H28.6235C28.031 27.6292 27.2207 28.3775 26.2661 28.8959C25.3114 29.4143 24.2426 29.6864 23.1563 29.6875Z" fill="#20282D"/>
<path d="M36.6172 32.8088L34.0486 30.2403C34.1673 30.0167 34.2115 29.761 34.1746 29.5105C34.1378 29.26 34.0219 29.0279 33.8438 28.8479L32.3327 27.3368C33.0604 25.7548 33.3635 24.0104 33.212 22.2755C33.0606 20.5407 32.4597 18.8752 31.4688 17.4432V2.375C31.4688 1.90258 31.2811 1.44952 30.947 1.11547C30.613 0.781417 30.1599 0.59375 29.6875 0.59375H2.375C1.90258 0.59375 1.44952 0.781417 1.11547 1.11547C0.781417 1.44952 0.59375 1.90258 0.59375 2.375V24.9375C0.59375 25.4099 0.781417 25.863 1.11547 26.197C1.44952 26.5311 1.90258 26.7188 2.375 26.7188H13.7239C14.2081 28.0129 14.9538 29.1933 15.9145 30.1863C16.8752 31.1794 18.0303 31.9638 19.3077 32.4906C20.585 33.0174 21.9573 33.2752 23.3387 33.2481C24.7202 33.2209 26.0812 32.9093 27.3368 32.3327L28.8479 33.8438C29.0265 34.0242 29.2588 34.1418 29.5099 34.1787C29.761 34.2156 30.0174 34.17 30.2403 34.0486L32.8088 36.6172C33.3139 37.1222 33.9988 37.4059 34.713 37.4059C35.4272 37.4059 36.1121 37.1222 36.6172 36.6172C37.1222 36.1121 37.4059 35.4272 37.4059 34.713C37.4059 33.9988 37.1222 33.3139 36.6172 32.8088ZM2.375 1.78125H29.6875C29.845 1.78125 29.996 1.84381 30.1073 1.95516C30.2187 2.06651 30.2812 2.21753 30.2812 2.375V4.15625H1.78125V2.375C1.78125 2.21753 1.84381 2.06651 1.95516 1.95516C2.06651 1.84381 2.21753 1.78125 2.375 1.78125ZM2.375 25.5312C2.21753 25.5312 2.06651 25.4687 1.95516 25.3573C1.84381 25.246 1.78125 25.095 1.78125 24.9375V5.34375H30.2812V16.014C29.422 15.1601 28.4165 14.4673 27.3125 13.9686V7.125C27.3125 6.96753 27.2499 6.8165 27.1386 6.70516C27.0272 6.59381 26.8762 6.53125 26.7188 6.53125H24.3438C24.1863 6.53125 24.0353 6.59381 23.9239 6.70516C23.8126 6.8165 23.75 6.96753 23.75 7.125V13.0928C23.5523 13.0809 23.3569 13.0625 23.1562 13.0625C22.9556 13.0625 22.7602 13.0809 22.5625 13.0928V10.6875C22.5625 10.53 22.4999 10.379 22.3886 10.2677C22.2772 10.1563 22.1262 10.0938 21.9688 10.0938H19.5938C19.4363 10.0938 19.2853 10.1563 19.1739 10.2677C19.0626 10.379 19 10.53 19 10.6875V13.9686C16.8527 14.9279 15.1111 16.6118 14.0799 18.7256C13.0488 20.8394 12.7937 23.2484 13.3594 25.5312H2.375ZM26.125 13.5096C25.7353 13.3921 25.3387 13.2985 24.9375 13.2293V7.71875H26.125V13.5096ZM21.375 13.2293C20.9738 13.2985 20.5772 13.3921 20.1875 13.5096V11.2812H21.375V13.2293ZM14.25 23.1562C14.25 21.3948 14.7723 19.6728 15.751 18.2082C16.7296 16.7436 18.1206 15.602 19.748 14.9279C21.3754 14.2539 23.1661 14.0775 24.8938 14.4211C26.6214 14.7648 28.2084 15.613 29.4539 16.8586C30.6995 18.1041 31.5477 19.6911 31.8914 21.4187C32.235 23.1464 32.0586 24.9371 31.3846 26.5645C30.7105 28.1919 29.5689 29.5829 28.1043 30.5615C26.6397 31.5402 24.9177 32.0625 23.1562 32.0625C20.795 32.0598 18.5312 31.1206 16.8615 29.451C15.1919 27.7813 14.2527 25.5175 14.25 23.1562ZM28.4299 31.7466C29.7792 30.9151 30.9151 29.7792 31.7466 28.4299L33.0042 29.6875L29.6875 33.0042L28.4299 31.7466ZM34.713 36.2188C34.5152 36.2192 34.3193 36.1805 34.1365 36.1048C33.9538 36.0291 33.7879 35.9178 33.6484 35.7776L31.1208 33.25L33.25 31.1208L35.7776 33.6484C35.9881 33.859 36.1315 34.1273 36.1896 34.4193C36.2476 34.7114 36.2178 35.0141 36.1039 35.2892C35.9899 35.5643 35.797 35.7994 35.5494 35.9649C35.3018 36.1304 35.0108 36.2187 34.713 36.2188Z" fill="#20282D"/>
<path d="M10.6875 20.7812H3.5625C3.40503 20.7812 3.25401 20.8438 3.14266 20.9552C3.03131 21.0665 2.96875 21.2175 2.96875 21.375V23.75C2.96875 23.9075 3.03131 24.0585 3.14266 24.1698C3.25401 24.2812 3.40503 24.3438 3.5625 24.3438H10.6875C10.845 24.3438 10.996 24.2812 11.1073 24.1698C11.2187 24.0585 11.2812 23.9075 11.2812 23.75V21.375C11.2812 21.2175 11.2187 21.0665 11.1073 20.9552C10.996 20.8438 10.845 20.7812 10.6875 20.7812ZM10.0938 23.1562H4.15625V21.9688H10.0938V23.1562Z" fill="#20282D"/>
</g>
<defs>
<clipPath id="clip0_80_312">
<rect width="38" height="38" fill="white"/>
</clipPath>
</defs>
</svg>
