<svg width="38" height="38" viewBox="0 0 38 38" fill="none" xmlns="http://www.w3.org/2000/svg">
<path d="M18.375 3.01949V1.52832C18.375 1.18316 18.6548 0.90332 19 0.90332C19.3452 0.90332 19.625 1.18316 19.625 1.52832V3.01949C19.625 3.36465 19.3452 3.64449 19 3.64449C18.6548 3.64449 18.375 3.36473 18.375 3.01949ZM13.6841 4.61137C13.7998 4.81184 14.0099 4.92395 14.2259 4.92395C14.332 4.92395 14.4395 4.89691 14.5379 4.84012C14.8368 4.66754 14.9392 4.28527 14.7666 3.98637L14.0211 2.69496C13.8485 2.39598 13.4662 2.29379 13.1673 2.46621C12.8684 2.63879 12.766 3.02105 12.9386 3.31996L13.6841 4.61137ZM9.12609 7.58988L10.4175 8.33543C10.5159 8.39231 10.6234 8.41926 10.7295 8.41926C10.9455 8.41926 11.1555 8.30715 11.2713 8.10668C11.4439 7.80777 11.3415 7.42551 11.0426 7.25293L9.75117 6.50738C9.45227 6.33473 9.07 6.43715 8.89742 6.73613C8.72477 7.03504 8.82719 7.41731 9.12609 7.58988ZM23.4622 4.8402C23.5606 4.89707 23.668 4.92402 23.7741 4.92402C23.9902 4.92402 24.2002 4.81191 24.316 4.61145L25.0616 3.32004C25.2341 3.02105 25.1317 2.63887 24.8328 2.46629C24.5338 2.29363 24.1516 2.39605 23.9791 2.69504L23.2335 3.98645C23.0609 4.28535 23.1633 4.66762 23.4622 4.8402ZM27.2705 8.41934C27.3766 8.41934 27.4841 8.39231 27.5825 8.33551L28.8739 7.58996C29.1728 7.41738 29.2752 7.03512 29.1027 6.73621C28.9301 6.43731 28.5478 6.33496 28.2489 6.50746L26.9575 7.25301C26.6586 7.42559 26.5562 7.80785 26.7288 8.10676C26.8445 8.30723 27.0546 8.41934 27.2705 8.41934ZM30.192 26.7C29.997 27.4259 29.732 28.1293 29.4 28.8027H31.2577C31.4875 28.8027 31.6987 28.9289 31.8078 29.1311L32.679 30.7474H33.6241C33.8884 29.9333 34.6537 29.3429 35.5547 29.3429C36.6737 29.3429 37.5841 30.2533 37.5841 31.3724C37.5841 32.4914 36.6737 33.4018 35.5547 33.4018C34.6537 33.4018 33.8884 32.8114 33.6242 31.9974H32.3059C32.0761 31.9974 31.8648 31.8712 31.7558 31.6689L30.8846 30.0527H29.3027L29.8345 31.25C29.9394 31.4862 29.888 31.7627 29.7052 31.9456L27.2584 34.3924C27.0756 34.5752 26.7991 34.6266 26.5628 34.5217L24.7831 33.7313C23.9118 34.2341 22.9825 34.6193 22.0126 34.8798L21.3135 36.696C21.2207 36.9373 20.9888 37.0964 20.7302 37.0964H17.27C17.0114 37.0964 16.7796 36.9372 16.6867 36.696L15.9874 34.8793C15.0182 34.6189 14.0891 34.2337 13.2177 33.731L11.4373 34.5217C11.201 34.6267 10.9246 34.5753 10.7417 34.3924L8.29492 31.9457C8.11211 31.7629 8.0607 31.4864 8.16562 31.25L8.69742 30.0527H7.11547L6.2443 31.6689C6.13523 31.8712 5.92398 31.9974 5.69414 31.9974H4.37586C4.11164 32.8114 3.34633 33.4018 2.44539 33.4018C1.32633 33.4018 0.415938 32.4914 0.415938 31.3724C0.415938 30.2533 1.32633 29.3429 2.44539 29.3429C3.34633 29.3429 4.11172 29.9333 4.37594 30.7474H5.32109L6.19227 29.1311C6.30133 28.9289 6.51258 28.8027 6.74242 28.8027H8.59945C8.26766 28.1294 8.00266 27.426 7.80758 26.6998L5.99141 26.0007C5.75008 25.9079 5.59094 25.676 5.59094 25.4174V24.3122H3.585C3.32078 25.1263 2.55547 25.7167 1.65445 25.7167C0.535391 25.7168 -0.375 24.8063 -0.375 23.6873C-0.375 22.5683 0.535391 21.6579 1.65445 21.6579C2.55547 21.6579 3.32078 22.2482 3.585 23.0623H5.59094V21.9572C5.59094 21.6986 5.75016 21.4668 5.99141 21.3739L7.80789 20.6747C8.00289 19.9485 8.26805 19.2449 8.60016 18.5713H6.74242C6.51258 18.5713 6.30133 18.4451 6.19227 18.2429L5.32109 16.6266H4.37594C4.11172 17.4407 3.34641 18.0311 2.44547 18.0311C1.32641 18.0311 0.416016 17.1207 0.416016 16.0016C0.416016 14.8826 1.32641 13.9721 2.44547 13.9721C3.34641 13.9721 4.11172 14.5625 4.37594 15.3766H5.69422C5.92406 15.3766 6.13531 15.5028 6.24437 15.705L7.11555 17.3213H8.69719L8.1657 16.1247C8.06078 15.8885 8.11211 15.612 8.29492 15.4291L10.7416 12.9822C10.9245 12.7994 11.201 12.7481 11.4373 12.8529L12.2521 13.2148C12.1258 12.7394 12.0445 12.1807 12.0445 11.49C12.0445 7.65473 15.1647 4.53449 19.0001 4.53449C22.8354 4.53449 25.9556 7.65473 25.9556 11.49C25.9556 12.1734 25.8773 12.7313 25.7489 13.2144L26.5627 12.853C26.7989 12.7482 27.0755 12.7994 27.2584 12.9823L29.7052 15.429C29.888 15.6118 29.9394 15.8883 29.8345 16.1247L29.303 17.3214H30.8846L31.7558 15.7051C31.8648 15.5029 32.0761 15.3767 32.3059 15.3767H33.6242C33.8884 14.5626 34.6538 13.9722 35.5547 13.9722C36.6737 13.9722 37.5841 14.8826 37.5841 16.0017C37.5841 17.1207 36.6737 18.0311 35.5547 18.0311C34.6537 18.0311 33.8884 17.4408 33.6241 16.6267H32.6789L31.8077 18.2429C31.6987 18.4452 31.4874 18.5714 31.2576 18.5714H29.4003C29.7323 19.2449 29.9974 19.9486 30.1926 20.675L32.0088 21.374C32.25 21.4668 32.4092 21.6987 32.4092 21.9573V23.0624H34.4151C34.6793 22.2483 35.4446 21.6579 36.3455 21.6579C37.4646 21.6579 38.375 22.5683 38.375 23.6874C38.375 24.8064 37.4646 25.7168 36.3455 25.7168C35.4445 25.7168 34.6792 25.1264 34.415 24.3124H32.4091V25.4175C32.4091 25.6761 32.2499 25.9079 32.0087 26.0008L30.192 26.7ZM35.5661 23.6873C35.5661 24.1171 35.9158 24.4668 36.3455 24.4668C36.7753 24.4668 37.125 24.1171 37.125 23.6873C37.125 23.2575 36.7753 22.9079 36.3455 22.9079C35.9158 22.9079 35.5661 23.2575 35.5661 23.6873ZM34.7752 16.0015C34.7752 16.4313 35.1248 16.781 35.5546 16.781C35.9844 16.781 36.3341 16.4313 36.3341 16.0015C36.3341 15.5718 35.9844 15.2221 35.5546 15.2221C35.1248 15.2221 34.7752 15.5718 34.7752 16.0015ZM3.22484 16.0015C3.22484 15.5718 2.87516 15.2221 2.44539 15.2221C2.01563 15.2221 1.66594 15.5718 1.66594 16.0015C1.66594 16.4313 2.01563 16.781 2.44539 16.781C2.87516 16.781 3.22484 16.4313 3.22484 16.0015ZM2.43391 23.6873C2.43391 23.2575 2.08422 22.9079 1.65445 22.9079C1.22469 22.9079 0.875 23.2575 0.875 23.6873C0.875 24.1171 1.22469 24.4668 1.65445 24.4668C2.08422 24.4668 2.43391 24.1171 2.43391 23.6873ZM3.22484 31.3724C3.22484 30.9426 2.87516 30.5929 2.44539 30.5929C2.01563 30.5929 1.66594 30.9426 1.66594 31.3724C1.66594 31.8022 2.01563 32.1518 2.44539 32.1518C2.87516 32.1518 3.22484 31.8022 3.22484 31.3724ZM34.7752 31.3724C34.7752 31.8022 35.1248 32.1518 35.5546 32.1518C35.9844 32.1518 36.3341 31.8022 36.3341 31.3724C36.3341 30.9426 35.9844 30.5929 35.5546 30.5929C35.1248 30.5929 34.7752 30.9426 34.7752 31.3724ZM13.2944 11.49C13.2944 12.6038 13.5334 13.2821 13.8924 13.958C14.0009 14.1622 14.1189 14.3639 14.244 14.5776C14.8359 15.5893 15.5625 16.8311 15.7992 19.3533H17.2818V13.6327H16.4357C15.2799 13.6327 14.3396 12.6924 14.3396 11.5366C14.3396 10.3808 15.2799 9.44051 16.4357 9.44051C17.5915 9.44051 18.5318 10.3808 18.5318 11.5366V12.3827H19.4682V11.5366C19.4682 10.3808 20.4085 9.44051 21.5643 9.44051C22.7201 9.44051 23.6604 10.3808 23.6604 11.5366C23.6604 12.6924 22.7201 13.6327 21.5643 13.6327H20.7182V19.3533H22.2007C22.4374 16.8311 23.1641 15.5893 23.7559 14.5777C24.2865 13.671 24.7055 12.9548 24.7055 11.4901C24.7055 8.34402 22.146 5.78457 19 5.78457C15.8539 5.78449 13.2944 8.34395 13.2944 11.49ZM17.2818 11.5366C17.2818 11.07 16.9023 10.6905 16.4357 10.6905C15.9691 10.6905 15.5896 11.07 15.5896 11.5366C15.5896 12.0032 15.9691 12.3827 16.4357 12.3827H17.2818V11.5366ZM19.4682 13.6327H18.5318V19.3533H19.4682V13.6327ZM15.845 20.6032V21.0071C15.845 21.2259 16.0298 21.4107 16.2487 21.4107H21.7513C21.9701 21.4107 22.1549 21.2259 22.1549 21.0071V20.6032H15.845ZM17.9632 25.1221C17.9632 25.3409 18.148 25.5257 18.3669 25.5257H19.702C19.9208 25.5257 20.1056 25.3409 20.1056 25.1221V24.7182H17.9632V25.1221ZM21.1606 22.6607H16.9081V23.0645C16.9081 23.2833 17.093 23.4682 17.3119 23.4682H20.757C20.9758 23.4682 21.1606 23.2833 21.1606 23.0645V22.6607ZM14.5763 19.725C13.6042 20.8039 13.0629 22.1979 13.0629 23.6873C13.0629 26.9611 15.7262 29.6244 19 29.6244C22.2738 29.6244 24.9371 26.9611 24.9371 23.6873C24.9371 22.1979 24.3957 20.8039 23.4237 19.725C23.4169 19.8145 23.4105 19.9054 23.405 19.9987V21.0071C23.405 21.6846 22.9951 22.2675 22.4106 22.5229V23.0646C22.4106 23.7652 21.972 24.3639 21.3556 24.6045V25.1222C21.3556 26.0341 20.6137 26.7759 19.702 26.7759H18.3669C17.455 26.7759 16.7132 26.034 16.7132 25.1222V24.6045C16.0968 24.3639 15.6582 23.7652 15.6582 23.0646V22.55C15.0376 22.3115 14.5951 21.7107 14.5951 21.0072V19.9994C14.5895 19.9058 14.5831 19.8147 14.5763 19.725ZM21.5643 12.3827C22.0309 12.3827 22.4104 12.0032 22.4104 11.5366C22.4104 11.07 22.0309 10.6905 21.5643 10.6905C21.0977 10.6905 20.7182 11.07 20.7182 11.5366V12.3827H21.5643ZM29.4411 25.6496L31.1591 24.9882V22.3863L29.4416 21.7252C29.2494 21.6512 29.1059 21.4871 29.0581 21.2866C28.8048 20.2218 28.3845 19.2082 27.8092 18.2739C27.7012 18.0985 27.6866 17.8809 27.7702 17.6925L28.5177 16.0093L26.6777 14.1695L25.0078 14.9111C24.9508 15.0104 24.893 15.1094 24.8348 15.2089C24.377 15.9912 23.908 16.7937 23.6278 18.1884C25.259 19.5582 26.187 21.5408 26.187 23.6872C26.187 27.6502 22.9629 30.8743 18.9999 30.8743C15.037 30.8743 11.8128 27.6502 11.8128 23.6872C11.8128 21.5409 12.7409 19.5583 14.372 18.1885C14.0918 16.7937 13.6229 15.9911 13.1651 15.2088C13.108 15.1112 13.05 15.0117 12.9924 14.9113L11.322 14.1694L9.48219 16.0093L10.2299 17.6929C10.3136 17.8813 10.299 18.0988 10.1909 18.2743C9.61547 19.2086 9.19531 20.2221 8.94219 21.2863C8.89453 21.4868 8.75102 21.6509 8.55867 21.7249L6.84078 22.3861V24.9882L8.55828 25.6493C8.75062 25.7232 8.89406 25.8873 8.9418 26.0879C9.19523 27.1529 9.61539 28.1664 10.1906 29.1004C10.2988 29.276 10.3134 29.4935 10.2297 29.6818L9.48219 31.365L11.3221 33.2049L13.0059 32.4571C13.1942 32.3734 13.4117 32.3879 13.5873 32.4961C14.5217 33.0714 15.535 33.4915 16.5991 33.7447C16.7995 33.7925 16.9636 33.9359 17.0376 34.1282L17.6989 35.8463H20.3009L20.962 34.1288C21.036 33.9364 21.2002 33.793 21.4006 33.7453C22.4655 33.4919 23.4791 33.0718 24.4131 32.4964C24.5887 32.3883 24.8061 32.3737 24.9945 32.4574L26.6777 33.2049L28.5176 31.365L27.7698 29.6812C27.6861 29.4929 27.7007 29.2754 27.8088 29.0999C28.3841 28.1655 28.8042 27.1522 29.0575 26.0881C29.1054 25.8877 29.2488 25.7236 29.4411 25.6496Z" fill="#20282D"/>
</svg>
