<svg width="45" height="45" viewBox="0 0 45 45" fill="none" xmlns="http://www.w3.org/2000/svg">
<path d="M42.3014 22.4999C41.95 22.4986 41.6052 22.5959 41.3062 22.7807C41.0073 22.9655 40.7662 23.2305 40.6102 23.5454L37.2299 30.3052L35.1517 32.3835L34.4767 32.7217L35.5807 30.7889C35.8587 30.3054 35.9416 29.7339 35.8124 29.1912C35.6832 28.6486 35.3516 28.1758 34.8855 27.8694C34.4194 27.563 33.8539 27.4461 33.3045 27.5427C32.7551 27.6393 32.2634 27.942 31.9297 28.3889L28.2464 33.3C28.1981 33.3644 28.1606 33.4364 28.1354 33.513L26.6354 38.013C26.6192 38.0596 26.6081 38.1079 26.6024 38.157L25.8524 44.157C25.8392 44.2625 25.8486 44.3696 25.88 44.4712C25.9113 44.5728 25.9639 44.6666 26.0343 44.7463C26.1046 44.826 26.1911 44.8898 26.2881 44.9336C26.385 44.9773 26.4901 45 26.5964 45H33.3464C33.5453 45 33.7361 44.921 33.8768 44.7803C34.0174 44.6397 34.0964 44.4489 34.0964 44.25V41.3025C34.0964 41.179 34.1269 41.0575 34.1851 40.9487C34.2433 40.8398 34.3275 40.747 34.4302 40.6785L38.2627 38.124C38.345 38.0691 38.4156 37.9985 38.4704 37.9162L41.4704 33.4162C41.5111 33.356 41.5425 33.29 41.5634 33.2205L44.1097 24.9472C44.1968 24.6643 44.2163 24.3648 44.1666 24.073C44.1169 23.7812 43.9993 23.5051 43.8234 23.2671C43.6475 23.029 43.4181 22.8355 43.1538 22.7023C42.8894 22.569 42.5975 22.4997 42.3014 22.4999ZM42.6764 24.5062L40.1617 32.6745L37.3057 36.9592L33.5984 39.4305C33.2899 39.6356 33.0369 39.9139 32.8621 40.2405C32.6872 40.5672 32.596 40.932 32.5964 41.3025V43.5H27.4461L28.0814 38.4172L29.5214 34.1025L33.1319 29.2897C33.2368 29.1489 33.3915 29.0535 33.5644 29.023C33.7372 28.9925 33.9152 29.0292 34.0619 29.1255C34.2087 29.2219 34.3131 29.3706 34.3538 29.5414C34.3945 29.7122 34.3684 29.892 34.2809 30.0442L31.9454 34.125C31.8627 34.2648 31.8276 34.4277 31.8454 34.5891C31.8633 34.7506 31.933 34.9019 32.0442 35.0203C32.1555 35.1387 32.3021 35.2178 32.4622 35.2457C32.6222 35.2736 32.7869 35.2488 32.9317 35.175L35.9317 33.675C36.0038 33.6388 36.0697 33.5912 36.1267 33.534L38.3767 31.284C38.4339 31.227 38.4815 31.1611 38.5177 31.089L41.9519 24.2197C41.9835 24.1538 42.0331 24.0982 42.0949 24.0593C42.1568 24.0204 42.2284 23.9998 42.3014 23.9999C42.3627 23.9998 42.4232 24.0141 42.478 24.0416C42.5327 24.0691 42.5803 24.1091 42.6167 24.1584C42.6532 24.2076 42.6776 24.2648 42.688 24.3252C42.6984 24.3856 42.6944 24.4476 42.6764 24.5062Z" fill="#20282D"/>
<path d="M17.5574 38.013L16.0574 33.513C16.0322 33.4364 15.9947 33.3644 15.9464 33.3L12.2631 28.3889C11.9294 27.942 11.4376 27.6393 10.8882 27.5427C10.3389 27.4461 9.77334 27.563 9.30723 27.8694C8.84112 28.1758 8.50959 28.6486 8.38039 29.1912C8.25119 29.7339 8.33406 30.3054 8.61208 30.7889L9.71609 32.7225L9.04108 32.3842L6.96283 30.3059L3.58256 23.5454C3.37006 23.1214 3.00598 22.7926 2.5625 22.6244C2.11901 22.4561 1.6285 22.4606 1.18818 22.637C0.747857 22.8133 0.389873 23.1487 0.185184 23.5766C-0.0195044 24.0045 -0.0559572 24.4937 0.0830517 24.9472L2.62931 33.2205C2.65029 33.29 2.68164 33.356 2.72231 33.4162L5.72232 37.9162C5.7772 37.9985 5.8478 38.0691 5.93007 38.124L9.76259 40.6785C9.86527 40.747 9.94946 40.8398 10.0077 40.9487C10.0659 41.0575 10.0964 41.179 10.0963 41.3025V44.25C10.0963 44.4489 10.1754 44.6397 10.316 44.7803C10.4567 44.921 10.6474 45 10.8463 45H17.5964C17.7027 45 17.8078 44.9773 17.9047 44.9336C18.0016 44.8898 18.0881 44.826 18.1585 44.7463C18.2288 44.6666 18.2814 44.5728 18.3128 44.4712C18.3442 44.3696 18.3535 44.2625 18.3404 44.157L17.5904 38.157C17.5846 38.1079 17.5736 38.0596 17.5574 38.013ZM11.5963 43.5V41.3025C11.5973 40.9315 11.5062 40.5661 11.3314 40.2388C11.1565 39.9116 10.9033 39.6329 10.5943 39.4275L6.88707 36.9562L4.03107 32.6745L1.51781 24.5062C1.49988 24.4477 1.4959 24.3858 1.50619 24.3255C1.51649 24.2653 1.54076 24.2082 1.57707 24.159C1.61339 24.1098 1.66072 24.0698 1.71529 24.0421C1.76986 24.0145 1.83015 24.0001 1.89131 23.9999C1.96397 23.9995 2.03528 24.0195 2.09709 24.0577C2.1589 24.0959 2.2087 24.1507 2.24081 24.2159L5.67507 31.0852C5.71127 31.1574 5.75888 31.2232 5.81607 31.2802L8.06608 33.5302C8.12307 33.5874 8.18892 33.635 8.26108 33.6712L11.2611 35.1712C11.4054 35.244 11.5694 35.2682 11.7285 35.2402C11.8877 35.2122 12.0336 35.1336 12.1445 35.016C12.2553 34.8984 12.3252 34.7481 12.3438 34.5875C12.3623 34.427 12.3285 34.2647 12.2473 34.125L9.91409 30.0404C9.8266 29.8883 9.80054 29.7084 9.84124 29.5377C9.88195 29.3669 9.98633 29.2181 10.1331 29.1218C10.2798 29.0254 10.4578 28.9888 10.6307 29.0193C10.8035 29.0498 10.9582 29.1452 11.0631 29.2859L14.6714 34.1025L16.1091 38.4172L16.7466 43.5H11.5963Z" fill="#20282D"/>
<path d="M9.34633 25.4999H34.8464C35.0453 25.4999 35.2361 25.4209 35.3768 25.2803C35.5174 25.1396 35.5964 24.9488 35.5964 24.7499V18.7499C35.5964 18.1532 35.3594 17.5809 34.9374 17.1589C34.5155 16.737 33.9432 16.4999 33.3464 16.4999H33.0599C33.5224 16.0995 33.8515 15.5673 34.003 14.9747C34.1545 14.382 34.1212 13.7572 33.9075 13.184C33.6939 12.6108 33.3101 12.1166 32.8077 11.7676C32.3052 11.4187 31.7081 11.2317 31.0964 11.2317C30.4847 11.2317 29.8876 11.4187 29.3851 11.7676C28.8827 12.1166 28.4989 12.6108 28.2853 13.184C28.0717 13.7572 28.0384 14.382 28.1899 14.9747C28.3413 15.5673 28.6704 16.0995 29.1329 16.4999H28.8464C28.4885 16.5023 28.1364 16.5913 27.8204 16.7594C27.5827 16.2359 27.1995 15.7918 26.7166 15.4799C26.2337 15.1679 25.6713 15.0013 25.0964 14.9999H24.1919C24.7412 14.5648 25.1415 13.9695 25.3371 13.2966C25.5328 12.6237 25.5142 11.9066 25.2838 11.2448C25.0535 10.583 24.6229 10.0093 24.0517 9.60332C23.4805 9.19734 22.7971 8.97921 22.0964 8.97921C21.3956 8.97921 20.7122 9.19734 20.1411 9.60332C19.5699 10.0093 19.1393 10.583 18.9089 11.2448C18.6786 11.9066 18.6599 12.6237 18.8556 13.2966C19.0513 13.9695 19.4515 14.5648 20.0009 14.9999H19.0964C18.5215 15.0013 17.9591 15.1679 17.4761 15.4799C16.9932 15.7918 16.6101 16.2359 16.3724 16.7594C16.0563 16.5913 15.7043 16.5023 15.3464 16.4999H15.0599C15.5224 16.0995 15.8514 15.5673 16.0029 14.9747C16.1544 14.382 16.1211 13.7572 15.9075 13.184C15.6938 12.6108 15.3101 12.1166 14.8076 11.7676C14.3052 11.4187 13.7081 11.2317 13.0963 11.2317C12.4846 11.2317 11.8875 11.4187 11.3851 11.7676C10.8826 12.1166 10.4989 12.6108 10.2852 13.184C10.0716 13.7572 10.0383 14.382 10.1898 14.9747C10.3413 15.5673 10.6703 16.0995 11.1328 16.4999H10.8463C10.2496 16.4999 9.6773 16.737 9.25534 17.1589C8.83339 17.5809 8.59633 18.1532 8.59633 18.7499V24.7499C8.59633 24.9488 8.67535 25.1396 8.816 25.2803C8.95666 25.4209 9.14742 25.4999 9.34633 25.4999ZM31.0964 12.7499C31.3931 12.7499 31.6831 12.8379 31.9298 13.0027C32.1764 13.1675 32.3687 13.4018 32.4822 13.6759C32.5958 13.95 32.6255 14.2516 32.5676 14.5425C32.5097 14.8335 32.3669 15.1008 32.1571 15.3106C31.9473 15.5203 31.68 15.6632 31.389 15.7211C31.0981 15.779 30.7965 15.7492 30.5224 15.6357C30.2483 15.5222 30.014 15.3299 29.8492 15.0833C29.6844 14.8366 29.5964 14.5466 29.5964 14.2499C29.5964 13.8521 29.7544 13.4705 30.0357 13.1892C30.3171 12.9079 30.6986 12.7499 31.0964 12.7499ZM28.0964 18.7499C28.0964 18.551 28.1754 18.3602 28.3161 18.2196C28.4567 18.0789 28.6475 17.9999 28.8464 17.9999H33.3464C33.5453 17.9999 33.7361 18.0789 33.8768 18.2196C34.0174 18.3602 34.0964 18.551 34.0964 18.7499V23.9999H28.0964V18.7499ZM22.0964 10.4999C22.4672 10.4999 22.8297 10.6098 23.1381 10.8159C23.4464 11.0219 23.6867 11.3147 23.8287 11.6573C23.9706 12 24.0077 12.377 23.9354 12.7407C23.863 13.1044 23.6844 13.4385 23.4222 13.7007C23.16 13.9629 22.8259 14.1415 22.4622 14.2139C22.0985 14.2862 21.7215 14.2491 21.3788 14.1072C21.0362 13.9652 20.7434 13.7249 20.5374 13.4166C20.3313 13.1082 20.2214 12.7457 20.2214 12.3749C20.2214 11.8776 20.4189 11.4007 20.7705 11.0491C21.1222 10.6974 21.5991 10.4999 22.0964 10.4999ZM17.5964 17.9999C17.5964 17.6021 17.7544 17.2205 18.0357 16.9392C18.317 16.6579 18.6985 16.4999 19.0964 16.4999H25.0964C25.4942 16.4999 25.8757 16.6579 26.1571 16.9392C26.4384 17.2205 26.5964 17.6021 26.5964 17.9999V23.9999H17.5964V17.9999ZM13.0963 12.7499C13.393 12.7499 13.683 12.8379 13.9297 13.0027C14.1764 13.1675 14.3686 13.4018 14.4822 13.6759C14.5957 13.95 14.6254 14.2516 14.5675 14.5425C14.5097 14.8335 14.3668 15.1008 14.157 15.3106C13.9472 15.5203 13.68 15.6632 13.389 15.7211C13.098 15.779 12.7964 15.7492 12.5223 15.6357C12.2482 15.5222 12.014 15.3299 11.8491 15.0833C11.6843 14.8366 11.5963 14.5466 11.5963 14.2499C11.5963 13.8521 11.7544 13.4705 12.0357 13.1892C12.317 12.9079 12.6985 12.7499 13.0963 12.7499ZM10.0963 18.7499C10.0963 18.551 10.1754 18.3602 10.316 18.2196C10.4567 18.0789 10.6474 17.9999 10.8463 17.9999H15.3464C15.5453 17.9999 15.736 18.0789 15.8767 18.2196C16.0173 18.3602 16.0964 18.551 16.0964 18.7499V23.9999H10.0963V18.7499Z" fill="#20282D"/>
<path d="M4.84632 9.74988V16.4999H6.34632V10.3079L13.3116 8.21837C13.4662 8.17206 13.6017 8.07714 13.698 7.94771C13.7943 7.81827 13.8464 7.66122 13.8463 7.49987V4.06035L15.5661 5.78011L16.6266 4.71961L13.6266 1.7196C13.486 1.57899 13.2952 1.50001 13.0963 1.50001C12.8975 1.50001 12.7067 1.57899 12.5661 1.7196L9.56609 4.71961L10.6266 5.78011L12.3463 4.06035V6.94186L5.38107 9.03137C5.22651 9.07768 5.091 9.1726 4.99467 9.30204C4.89833 9.43147 4.84631 9.58852 4.84632 9.74988Z" fill="#20282D"/>
<path d="M22.8464 6.74986V2.56035L24.5661 4.28011L25.6266 3.2196L22.6266 0.219591C22.486 0.0789868 22.2953 0 22.0964 0C21.8975 0 21.7068 0.0789868 21.5661 0.219591L18.5661 3.2196L19.6266 4.28011L21.3464 2.56035V6.74986H22.8464Z" fill="#20282D"/>
<path d="M33.5662 5.78011L34.6267 4.71961L31.6267 1.7196C31.486 1.57899 31.2953 1.50001 31.0964 1.50001C30.8975 1.50001 30.7068 1.57899 30.5662 1.7196L27.5661 4.71961L28.6267 5.78011L30.3464 4.06035V7.49987C30.3465 7.65721 30.3961 7.81054 30.4882 7.93814C30.5803 8.06573 30.7101 8.16115 30.8594 8.21087L37.0964 10.2906V16.4999H38.5964V9.74988C38.5963 9.59253 38.5467 9.43921 38.4547 9.31161C38.3626 9.18401 38.2327 9.08859 38.0834 9.03887L31.8464 6.95912V4.06035L33.5662 5.78011Z" fill="#20282D"/>
</svg>
