<svg width="40" height="35" viewBox="0 0 40 35" fill="none" xmlns="http://www.w3.org/2000/svg">
<path d="M39.3333 8.07692H35.3333C35.1565 8.07692 34.987 8.14784 34.8619 8.27406C34.7369 8.40029 34.6667 8.57149 34.6667 8.75V34.3269C34.6667 34.5054 34.7369 34.6766 34.8619 34.8029C34.987 34.9291 35.1565 35 35.3333 35H39.3333C39.5101 35 39.6797 34.9291 39.8047 34.8029C39.9298 34.6766 40 34.5054 40 34.3269V8.75C40 8.57149 39.9298 8.40029 39.8047 8.27406C39.6797 8.14784 39.5101 8.07692 39.3333 8.07692ZM38.6667 33.6538H36V9.42308H38.6667V33.6538Z" fill="#20282D"/>
<path d="M32.6667 35C32.8435 35 33.0131 34.9291 33.1381 34.8029C33.2631 34.6766 33.3333 34.5054 33.3333 34.3269V14.1346C33.3333 13.9561 33.2631 13.7849 33.1381 13.6587C33.0131 13.5325 32.8435 13.4615 32.6667 13.4615H28.6667C28.4899 13.4615 28.3203 13.5325 28.1953 13.6587C28.0702 13.7849 28 13.9561 28 14.1346V34.3269C28 34.5054 28.0702 34.6766 28.1953 34.8029C28.3203 34.9291 28.4899 35 28.6667 35H32.6667ZM29.3333 14.8077H32V33.6538H29.3333V14.8077Z" fill="#20282D"/>
<path d="M26 35C26.1768 35 26.3464 34.9291 26.4714 34.8029C26.5964 34.6766 26.6667 34.5054 26.6667 34.3269V18.8462C26.6667 18.6676 26.5964 18.4964 26.4714 18.3702C26.3464 18.244 26.1768 18.1731 26 18.1731H22C21.8232 18.1731 21.6536 18.244 21.5286 18.3702C21.4036 18.4964 21.3333 18.6676 21.3333 18.8462V34.3269C21.3333 34.5054 21.4036 34.6766 21.5286 34.8029C21.6536 34.9291 21.8232 35 22 35H26ZM22.6667 19.5192H25.3333V33.6538H22.6667V19.5192Z" fill="#20282D"/>
<path d="M19.3333 35C19.5102 35 19.6797 34.9291 19.8047 34.8029C19.9298 34.6766 20 34.5054 20 34.3269V24.2308C20 24.0523 19.9298 23.8811 19.8047 23.7548C19.6797 23.6286 19.5102 23.5577 19.3333 23.5577H15.3333C15.1565 23.5577 14.987 23.6286 14.8619 23.7548C14.7369 23.8811 14.6667 24.0523 14.6667 24.2308V34.3269C14.6667 34.5054 14.7369 34.6766 14.8619 34.8029C14.987 34.9291 15.1565 35 15.3333 35H19.3333ZM16 24.9038H18.6667V33.6538H16V24.9038Z" fill="#20282D"/>
<path d="M12.6667 35C12.8435 35 13.0131 34.9291 13.1381 34.8029C13.2631 34.6766 13.3333 34.5054 13.3333 34.3269V26.9231C13.3333 26.7446 13.2631 26.5734 13.1381 26.4471C13.0131 26.3209 12.8435 26.25 12.6667 26.25H8.66668C8.48987 26.25 8.3203 26.3209 8.19528 26.4471C8.07025 26.5734 8.00001 26.7446 8.00001 26.9231V34.3269C8.00001 34.5054 8.07025 34.6766 8.19528 34.8029C8.3203 34.9291 8.48987 35 8.66668 35H12.6667ZM9.33335 27.5962H12V33.6538H9.33335V27.5962Z" fill="#20282D"/>
<path d="M6.00001 35C6.17683 35 6.34639 34.9291 6.47142 34.8029C6.59644 34.6766 6.66668 34.5054 6.66668 34.3269V30.2885C6.66668 30.11 6.59644 29.9388 6.47142 29.8125C6.34639 29.6863 6.17683 29.6154 6.00001 29.6154H2.00002C1.82321 29.6154 1.65364 29.6863 1.52861 29.8125C1.40359 29.9388 1.33335 30.11 1.33335 30.2885V34.3269C1.33335 34.5054 1.40359 34.6766 1.52861 34.8029C1.65364 34.9291 1.82321 35 2.00002 35H6.00001ZM2.66668 30.9615H5.33335V33.6538H2.66668V30.9615Z" fill="#20282D"/>
<path d="M16.6667 8.07692H18C18.1768 8.07692 18.3464 8.00601 18.4714 7.87978C18.5964 7.75356 18.6667 7.58236 18.6667 7.40385C18.6667 7.22534 18.5964 7.05413 18.4714 6.92791C18.3464 6.80168 18.1768 6.73077 18 6.73077H17.3333V6.05769C17.3333 5.87918 17.2631 5.70798 17.1381 5.58176C17.0131 5.45553 16.8435 5.38462 16.6667 5.38462C16.4899 5.38462 16.3203 5.45553 16.1953 5.58176C16.0702 5.70798 16 5.87918 16 6.05769V6.84654C15.5554 7.00546 15.1807 7.3179 14.9422 7.72869C14.7036 8.13947 14.6165 8.62215 14.6963 9.09148C14.7761 9.56081 15.0175 9.98657 15.3781 10.2936C15.7386 10.6006 16.195 10.769 16.6667 10.7692C16.8435 10.7692 17.0131 10.8401 17.1381 10.9664C17.2631 11.0926 17.3333 11.2638 17.3333 11.4423C17.3333 11.6208 17.2631 11.792 17.1381 11.9182C17.0131 12.0445 16.8435 12.1154 16.6667 12.1154H15.3333C15.1565 12.1154 14.987 12.1863 14.8619 12.3125C14.7369 12.4388 14.6667 12.61 14.6667 12.7885C14.6667 12.967 14.7369 13.1382 14.8619 13.2644C14.987 13.3906 15.1565 13.4615 15.3333 13.4615H16V14.1346C16 14.3131 16.0702 14.4843 16.1953 14.6106C16.3203 14.7368 16.4899 14.8077 16.6667 14.8077C16.8435 14.8077 17.0131 14.7368 17.1381 14.6106C17.2631 14.4843 17.3333 14.3131 17.3333 14.1346V13.3458C17.778 13.1868 18.1526 12.8744 18.3912 12.4636C18.6297 12.0528 18.7168 11.5702 18.6371 11.1008C18.5573 10.6315 18.3158 10.2057 17.9553 9.89874C17.5947 9.59174 17.1383 9.42327 16.6667 9.42308C16.4899 9.42308 16.3203 9.35216 16.1953 9.22594C16.0702 9.09971 16 8.92851 16 8.75C16 8.57149 16.0702 8.40029 16.1953 8.27406C16.3203 8.14784 16.4899 8.07692 16.6667 8.07692Z" fill="#20282D"/>
<path d="M39.3333 0H35.3333C35.1565 0 34.987 0.0709134 34.8619 0.19714C34.7369 0.323366 34.6667 0.494566 34.6667 0.673077C34.6667 0.851588 34.7369 1.02279 34.8619 1.14901C34.987 1.27524 35.1565 1.34615 35.3333 1.34615H37.7238L28.3905 10.7692H24.6387C24.6569 10.5472 24.6667 10.3228 24.6667 10.0962C24.6666 8.56234 24.234 7.06026 23.4194 5.76558C22.6048 4.47091 21.4419 3.43718 20.0667 2.7853C18.6916 2.13342 17.161 1.89034 15.654 2.0845C14.147 2.27866 12.7259 2.90202 11.557 3.88168C10.3881 4.86134 9.51956 6.15679 9.05311 7.61651C8.58665 9.07624 8.54152 10.6399 8.92299 12.1245C9.30445 13.6092 10.0968 14.9535 11.2072 16.0003C12.3177 17.047 13.7004 17.7528 15.1936 18.0353L12.3906 20.8654H7.33335C7.2458 20.8654 7.15911 20.8828 7.07822 20.9166C6.99733 20.9504 6.92384 21 6.86193 21.0625L0.195267 27.7933C0.0702397 27.9195 0 28.0907 0 28.2692C0 28.4477 0.0702397 28.619 0.195267 28.7452C0.320295 28.8714 0.489868 28.9423 0.666684 28.9423C0.843499 28.9423 1.01307 28.8714 1.1381 28.7452L7.60943 22.2115H12.6667C12.7542 22.2115 12.8409 22.1941 12.9218 22.1603C13.0027 22.1265 13.0762 22.0769 13.1381 22.0144L16.9483 18.1675C18.672 18.1039 20.3293 17.4806 21.6742 16.3903C23.0191 15.3 23.9798 13.8008 24.4136 12.1154H28.6667C28.7542 12.1154 28.8409 12.098 28.9218 12.0642C29.0027 12.0303 29.0762 11.9808 29.1381 11.9183L38.6667 2.29805V4.71154C38.6667 4.89005 38.7369 5.06125 38.8619 5.18748C38.987 5.3137 39.1565 5.38462 39.3333 5.38462C39.5101 5.38462 39.6797 5.3137 39.8047 5.18748C39.9298 5.06125 40 4.89005 40 4.71154V0.673077C40 0.494566 39.9298 0.323366 39.8047 0.19714C39.6797 0.0709134 39.5101 0 39.3333 0ZM16.6667 16.8269C15.3481 16.8269 14.0592 16.4322 12.9629 15.6926C11.8666 14.953 11.0121 13.9018 10.5075 12.6719C10.0029 11.442 9.87088 10.0887 10.1281 8.78305C10.3853 7.4774 11.0203 6.2781 11.9526 5.33678C12.885 4.39547 14.0729 3.75442 15.3661 3.49471C16.6593 3.23501 17.9997 3.3683 19.2179 3.87773C20.4361 4.38717 21.4773 5.24987 22.2098 6.35674C22.9423 7.46361 23.3333 8.76493 23.3333 10.0962C23.3313 11.8806 22.6283 13.5915 21.3785 14.8533C20.1287 16.1151 18.4342 16.8249 16.6667 16.8269Z" fill="#20282D"/>
</svg>
