<svg width="44" height="45" viewBox="0 0 44 45" fill="none" xmlns="http://www.w3.org/2000/svg">
<path d="M18.9721 38.1692C18.7753 37.1819 18.3694 36.2484 17.7817 35.4317C17.1941 34.6149 16.4383 33.9339 15.5655 33.4346C14.7264 32.9572 13.8287 32.5917 12.895 32.3474C13.7273 31.7216 14.3419 30.8494 14.6518 29.8543C14.9617 28.8593 14.9512 27.7918 14.6219 26.803C14.2925 25.8143 13.6609 24.9544 12.8165 24.345C11.9722 23.7357 10.9578 23.4078 9.91706 23.4078C8.87632 23.4078 7.86196 23.7357 7.01758 24.345C6.17321 24.9544 5.54163 25.8143 5.21225 26.803C4.88288 27.7918 4.87241 28.8593 5.18232 29.8543C5.49223 30.8494 6.10683 31.7216 6.93909 32.3474C6.00617 32.5919 5.10913 32.9574 4.27074 33.4346C3.39804 33.9339 2.64237 34.6148 2.05471 35.4314C1.46705 36.248 1.06106 37.1813 0.864104 38.1684L0.013862 42.4354C-0.0190454 42.5996 0.00707021 42.7701 0.0875907 42.9168C0.168111 43.0636 0.297849 43.1771 0.453862 43.2373C6.5459 45.5876 13.2925 45.5876 19.3845 43.2373C19.5405 43.1771 19.6703 43.0636 19.7508 42.9168C19.8313 42.7701 19.8574 42.5996 19.8245 42.4354L18.9721 38.1692ZM6.37651 28.3849C6.37651 27.6831 6.58428 26.9971 6.97356 26.4137C7.36283 25.8302 7.91612 25.3754 8.56346 25.1069C9.2108 24.8383 9.92312 24.768 10.6103 24.9049C11.2975 25.0419 11.9288 25.3798 12.4242 25.876C12.9197 26.3722 13.2571 27.0044 13.3938 27.6927C13.5305 28.3809 13.4603 29.0944 13.1922 29.7427C12.9241 30.391 12.47 30.9452 11.8874 31.335C11.3048 31.7249 10.6199 31.933 9.91919 31.933C8.97995 31.9319 8.07951 31.5577 7.41538 30.8925C6.75124 30.2274 6.37763 29.3256 6.37651 28.3849ZM1.52092 42.1225L2.25567 38.4466C2.41283 37.6585 2.73697 36.9133 3.2062 36.2613C3.67544 35.6093 4.27886 35.0657 4.97573 34.6672C6.48651 33.8214 8.18842 33.3774 9.91919 33.3774C11.6499 33.3774 13.3519 33.8214 14.8626 34.6672C15.5596 35.0657 16.1631 35.6094 16.6324 36.2615C17.1016 36.9137 17.4257 37.659 17.5827 38.4473L18.3175 42.1225C12.8875 44.0704 6.95085 44.0704 1.52092 42.1225Z" fill="#20282D"/>
<path d="M43.9147 42.4354L43.0645 38.1663C42.8676 37.1791 42.4617 36.2456 41.874 35.4288C41.2864 34.6121 40.5306 33.9311 39.6578 33.4317C38.818 32.9552 37.9195 32.5906 36.9852 32.3474C37.8175 31.7216 38.4321 30.8494 38.742 29.8543C39.0519 28.8593 39.0414 27.7918 38.7121 26.803C38.3827 25.8143 37.7511 24.9544 36.9067 24.345C36.0624 23.7357 35.048 23.4078 34.0073 23.4078C32.9665 23.4078 31.9522 23.7357 31.1078 24.345C30.2634 24.9544 29.6318 25.8143 29.3025 26.803C28.9731 27.7918 28.9626 28.8593 29.2725 29.8543C29.5824 30.8494 30.197 31.7216 31.0293 32.3474C30.0964 32.5919 29.1993 32.9574 28.3609 33.4346C27.4882 33.9339 26.7326 34.6148 26.1449 35.4314C25.5573 36.248 25.1513 37.1813 24.9543 38.1684L24.1041 42.4354C24.0712 42.5996 24.0973 42.7701 24.1778 42.9168C24.2583 43.0636 24.3881 43.1771 24.5441 43.2373C30.6361 45.5876 37.3827 45.5876 43.4747 43.2373C43.6307 43.1771 43.7605 43.0636 43.841 42.9168C43.9215 42.7701 43.9476 42.5996 43.9147 42.4354ZM30.4667 28.3849C30.4667 27.6831 30.6745 26.9971 31.0638 26.4137C31.453 25.8302 32.0063 25.3754 32.6537 25.1069C33.301 24.8383 34.0133 24.768 34.7005 24.9049C35.3877 25.0419 36.019 25.3798 36.5144 25.876C37.0099 26.3722 37.3473 27.0044 37.484 27.6927C37.6207 28.3809 37.5505 29.0944 37.2824 29.7427C37.0143 30.391 36.5602 30.9452 35.9776 31.335C35.395 31.7249 34.7101 31.933 34.0094 31.933C33.0702 31.9319 32.1697 31.5577 31.5056 30.8925C30.8414 30.2274 30.4678 29.3256 30.4667 28.3849ZM25.6111 42.1225L26.3459 38.4466C26.503 37.6585 26.8272 36.9133 27.2964 36.2613C27.7656 35.6093 28.3691 35.0657 29.0659 34.6672C30.5767 33.8214 32.2786 33.3774 34.0094 33.3774C35.7402 33.3774 37.4421 33.8214 38.9528 34.6672C39.6498 35.0657 40.2533 35.6094 40.7226 36.2615C41.1918 36.9137 41.5159 37.659 41.6729 38.4473L42.4077 42.1225C36.9777 44.0704 31.0411 44.0704 25.6111 42.1225Z" fill="#20282D"/>
<path d="M6.37651 15.6117H9.91919V19.1598C9.91919 19.2916 9.95583 19.4208 10.025 19.5329C10.0942 19.645 10.1932 19.7356 10.3109 19.7945C10.4285 19.8534 10.5603 19.8784 10.6914 19.8666C10.8224 19.8547 10.9476 19.8066 11.0528 19.7275L16.5319 15.6117H29.0496C29.2376 15.6117 29.4178 15.5369 29.5506 15.4038C29.6835 15.2708 29.7582 15.0903 29.7582 14.9021V0.709622C29.7582 0.521419 29.6835 0.340923 29.5506 0.207844C29.4178 0.0747636 29.2376 0 29.0496 0H6.37651C6.18859 0 6.00838 0.0747636 5.8755 0.207844C5.74262 0.340923 5.66797 0.521419 5.66797 0.709622V14.9021C5.66797 15.0903 5.74262 15.2708 5.8755 15.4038C6.00838 15.5369 6.18859 15.6117 6.37651 15.6117ZM7.08504 1.41924H28.3411V14.1924H16.296C16.1427 14.1924 15.9935 14.2422 15.8709 14.3344L11.3363 17.7406V14.9021C11.3363 14.7139 11.2616 14.5334 11.1287 14.4003C10.9959 14.2672 10.8156 14.1924 10.6277 14.1924H7.08504V1.41924Z" fill="#20282D"/>
<path d="M35.6744 22.5369C35.7773 22.625 35.9033 22.6818 36.0374 22.7005C36.1715 22.7192 36.3081 22.699 36.4311 22.6423C36.5541 22.5856 36.6583 22.4949 36.7314 22.3807C36.8045 22.2666 36.8434 22.1339 36.8435 21.9983V18.4502H39.6777C39.8656 18.4502 40.0458 18.3754 40.1787 18.2423C40.3116 18.1093 40.3862 17.9288 40.3862 17.7406V4.25773C40.3862 4.06953 40.3116 3.88903 40.1787 3.75595C40.0458 3.62287 39.8656 3.54811 39.6777 3.54811H33.3008C33.1129 3.54811 32.9327 3.62287 32.7998 3.75595C32.667 3.88903 32.5923 4.06953 32.5923 4.25773C32.5923 4.44594 32.667 4.62643 32.7998 4.75951C32.9327 4.89259 33.1129 4.96735 33.3008 4.96735H38.9691V17.0309H36.135C35.9471 17.0309 35.7669 17.1057 35.634 17.2388C35.5011 17.3719 35.4265 17.5523 35.4265 17.7406V20.4556L31.6358 17.2019C31.5077 17.0914 31.3443 17.0307 31.1752 17.0309H20.5472C20.3593 17.0309 20.1791 17.1057 20.0462 17.2388C19.9133 17.3719 19.8387 17.5523 19.8387 17.7406C19.8387 17.9288 19.9133 18.1093 20.0462 18.2423C20.1791 18.3754 20.3593 18.4502 20.5472 18.4502H30.9131L35.6744 22.5369Z" fill="#20282D"/>
<path d="M13.4619 9.93471C13.6498 9.93471 13.83 9.85995 13.9629 9.72687C14.0957 9.59379 14.1704 9.41329 14.1704 9.22509V6.3866C14.1704 6.1984 14.0957 6.0179 13.9629 5.88482C13.83 5.75174 13.6498 5.67698 13.4619 5.67698H10.6277C10.4398 5.67698 10.2596 5.75174 10.1267 5.88482C9.99383 6.0179 9.91919 6.1984 9.91919 6.3866V9.22509C9.91919 9.41329 9.99383 9.59379 10.1267 9.72687C10.2596 9.85995 10.4398 9.93471 10.6277 9.93471H13.4619ZM11.3363 7.09622H12.7533V8.51546H11.3363V7.09622Z" fill="#20282D"/>
<path d="M21.9643 9.93471H24.7984C24.9863 9.93471 25.1666 9.85995 25.2994 9.72687C25.4323 9.59379 25.507 9.41329 25.507 9.22509V6.3866C25.507 6.1984 25.4323 6.0179 25.2994 5.88482C25.1666 5.75174 24.9863 5.67698 24.7984 5.67698H21.9643C21.7764 5.67698 21.5962 5.75174 21.4633 5.88482C21.3304 6.0179 21.2558 6.1984 21.2558 6.3866V9.22509C21.2558 9.41329 21.3304 9.59379 21.4633 9.72687C21.5962 9.85995 21.7764 9.93471 21.9643 9.93471ZM22.6728 7.09622H24.0899V8.51546H22.6728V7.09622Z" fill="#20282D"/>
<path d="M16.296 9.93471H19.1301C19.3181 9.93471 19.4983 9.85995 19.6312 9.72687C19.764 9.59379 19.8387 9.41329 19.8387 9.22509V6.3866C19.8387 6.1984 19.764 6.0179 19.6312 5.88482C19.4983 5.75174 19.3181 5.67698 19.1301 5.67698H16.296C16.1081 5.67698 15.9279 5.75174 15.795 5.88482C15.6621 6.0179 15.5875 6.1984 15.5875 6.3866V9.22509C15.5875 9.41329 15.6621 9.59379 15.795 9.72687C15.9279 9.85995 16.1081 9.93471 16.296 9.93471ZM17.0045 7.09622H18.4216V8.51546H17.0045V7.09622Z" fill="#20282D"/>
</svg>
