<svg width="534" height="149" viewBox="0 0 534 149" fill="none" xmlns="http://www.w3.org/2000/svg">
<path d="M168.623 71.4071L169.471 71.937L168.623 71.4071ZM186.293 32.9254L186.699 32.0115L186.293 32.9254ZM0.204534 7.83114C-0.13015 8.27046 -0.0453221 8.89792 0.394002 9.2326L7.55319 14.6866C7.99252 15.0213 8.61998 14.9364 8.95466 14.4971C9.28934 14.0578 9.20452 13.4303 8.76519 13.0957L2.40146 8.24767L7.24945 1.88394C7.58413 1.44462 7.49931 0.817163 7.05998 0.482479C6.62066 0.147795 5.9932 0.232623 5.65852 0.671947L0.204534 7.83114ZM532.293 119.177C521.924 129.539 500.965 140.087 471.896 137.666C442.837 135.245 405.595 119.853 362.731 78.1865L361.337 79.6206C404.434 121.514 442.089 137.19 471.73 139.659C501.361 142.127 522.905 131.386 533.707 120.591L532.293 119.177ZM362.731 78.1865C319.557 36.2175 276.426 25.3902 241.248 29.5867C206.134 33.7754 178.984 52.936 167.775 70.8772L169.471 71.937C180.322 54.5695 206.898 35.6984 241.485 31.5726C276.006 27.4545 318.551 38.0297 361.337 79.6206L362.731 78.1865ZM167.775 70.8772C159.498 84.1248 159.027 98.7223 159.027 106.39H161.027C161.027 98.7816 161.511 84.6769 169.471 71.937L167.775 70.8772ZM159.027 106.39C159.027 118.947 165.741 133.502 177.841 141.944C190.018 150.439 207.508 152.651 228.806 140.747L227.83 139.001C207.102 150.586 190.447 148.3 178.985 140.303C167.445 132.253 161.027 118.322 161.027 106.39H159.027ZM228.806 140.747C250.022 128.889 261.328 111.257 256.087 91.5774C250.891 72.0633 229.504 51.0306 186.699 32.0115L185.887 33.8392C228.565 52.8019 249.203 73.4993 254.155 92.092C259.062 110.519 248.638 127.371 227.83 139.001L228.806 140.747ZM186.699 32.0115C118.079 1.52237 34.2347 2.93495 0.866026 7.44615L1.13397 9.42812C34.305 4.94364 117.734 3.55757 185.887 33.8392L186.699 32.0115Z" fill="#20282D" fill-opacity="0.36"/>
</svg>
