<svg width="42" height="42" viewBox="0 0 42 42" fill="none" xmlns="http://www.w3.org/2000/svg">
<path d="M21.003 26.6031C21.003 26.0494 20.8388 25.5082 20.5311 25.0478C20.2235 24.5874 19.7863 24.2286 19.2747 24.0167C18.7632 23.8049 18.2002 23.7494 17.6572 23.8574C17.1141 23.9655 16.6153 24.2321 16.2237 24.6236C15.8322 25.0151 15.5656 25.5139 15.4575 26.057C15.3495 26.6 15.405 27.1629 15.6168 27.6744C15.8287 28.186 16.1876 28.6232 16.648 28.9308C17.1084 29.2384 17.6496 29.4026 18.2033 29.4026C18.9459 29.4026 19.6579 29.1076 20.183 28.5826C20.708 28.0576 21.003 27.3456 21.003 26.6031ZM16.8035 26.6031C16.8035 26.3263 16.8856 26.0556 17.0395 25.8255C17.1933 25.5953 17.4119 25.4159 17.6677 25.3099C17.9234 25.204 18.2049 25.1763 18.4764 25.2303C18.748 25.2843 18.9974 25.4176 19.1932 25.6134C19.3889 25.8091 19.5222 26.0585 19.5763 26.33C19.6303 26.6016 19.6025 26.883 19.4966 27.1388C19.3907 27.3945 19.2112 27.6131 18.981 27.767C18.7508 27.9208 18.4802 28.0028 18.2033 28.0028C17.8321 28.0028 17.4761 27.8554 17.2135 27.5929C16.951 27.3304 16.8035 26.9743 16.8035 26.6031Z" fill="#20282D"/>
<path d="M14.7038 28.0028C14.7038 27.4492 14.5396 26.9079 14.232 26.4475C13.9244 25.9872 13.4872 25.6284 12.9756 25.4165C12.464 25.2046 11.9011 25.1492 11.3581 25.2572C10.815 25.3652 10.3161 25.6318 9.92461 26.0233C9.53308 26.4148 9.26644 26.9137 9.15842 27.4567C9.05039 27.9997 9.10583 28.5626 9.31773 29.0742C9.52963 29.5857 9.88846 30.0229 10.3489 30.3305C10.8092 30.6381 11.3505 30.8023 11.9042 30.8023C12.6467 30.8023 13.3588 30.5074 13.8839 29.9824C14.4089 29.4574 14.7038 28.7453 14.7038 28.0028ZM10.5044 28.0028C10.5044 27.726 10.5865 27.4554 10.7403 27.2252C10.8941 26.995 11.1128 26.8156 11.3685 26.7097C11.6243 26.6037 11.9058 26.576 12.1773 26.63C12.4489 26.684 12.6983 26.8173 12.894 27.0131C13.0898 27.2088 13.2231 27.4583 13.2771 27.7298C13.3311 28.0013 13.3034 28.2827 13.1975 28.5385C13.0915 28.7943 12.9121 29.0129 12.6819 29.1667C12.4517 29.3205 12.1811 29.4026 11.9042 29.4026C11.533 29.4026 11.1769 29.2551 10.9144 28.9926C10.6519 28.7301 10.5044 28.3741 10.5044 28.0028Z" fill="#20282D"/>
<path d="M5.60511 32.202C6.15882 32.202 6.7001 32.0379 7.16049 31.7303C7.62088 31.4226 7.97972 30.9854 8.19161 30.4739C8.40351 29.9624 8.45895 29.3995 8.35093 28.8564C8.2429 28.3134 7.97627 27.8146 7.58473 27.4231C7.1932 27.0315 6.69436 26.7649 6.15129 26.6569C5.60822 26.5489 5.04531 26.6043 4.53375 26.8162C4.02219 27.0281 3.58495 27.3869 3.27732 27.8473C2.9697 28.3076 2.8055 28.8489 2.8055 29.4026C2.8055 30.145 3.10046 30.8571 3.62549 31.3821C4.15052 31.9071 4.86261 32.202 5.60511 32.202ZM5.60511 28.0028C5.88197 28.0028 6.1526 28.0849 6.3828 28.2387C6.613 28.3925 6.79241 28.6112 6.89836 28.8669C7.00431 29.1227 7.03203 29.4041 6.97802 29.6757C6.92401 29.9472 6.79069 30.1966 6.59492 30.3923C6.39916 30.5881 6.14974 30.7214 5.8782 30.7754C5.60666 30.8294 5.32521 30.8017 5.06943 30.6958C4.81365 30.5898 4.59503 30.4104 4.44122 30.1802C4.2874 29.95 4.20531 29.6794 4.20531 29.4026C4.20531 29.0313 4.35279 28.6753 4.6153 28.4128C4.87781 28.1503 5.23386 28.0028 5.60511 28.0028Z" fill="#20282D"/>
<path d="M35.001 20.3043C35.001 19.4738 34.7547 18.6619 34.2933 17.9714C33.8318 17.2808 33.176 16.7426 32.4086 16.4248C31.6413 16.1069 30.7969 16.0238 29.9823 16.1858C29.1677 16.3478 28.4195 16.7478 27.8322 17.335C27.2449 17.9223 26.8449 18.6705 26.6829 19.4851C26.5208 20.2997 26.604 21.144 26.9218 21.9113C27.2397 22.6786 27.7779 23.3344 28.4685 23.7958C29.1591 24.2572 29.971 24.5035 30.8016 24.5035C31.9153 24.5035 32.9835 24.0611 33.771 23.2736C34.5586 22.4861 35.001 21.418 35.001 20.3043ZM28.002 20.3043C28.002 19.7506 28.1662 19.2094 28.4738 18.749C28.7814 18.2887 29.2187 17.9298 29.7302 17.718C30.2418 17.5061 30.8047 17.4506 31.3478 17.5586C31.8908 17.6667 32.3897 17.9333 32.7812 18.3248C33.1727 18.7163 33.4394 19.2151 33.5474 19.7582C33.6554 20.3012 33.6 20.8641 33.3881 21.3756C33.1762 21.8872 32.8174 22.3244 32.357 22.632C31.8966 22.9396 31.3553 23.1038 30.8016 23.1038C30.0591 23.1038 29.347 22.8088 28.822 22.2838C28.2969 21.7588 28.002 21.0468 28.002 20.3043Z" fill="#20282D"/>
<path d="M39.8093 14.0753L37.5976 0.595922C37.5839 0.504882 37.5524 0.417434 37.5049 0.338588C37.4574 0.259741 37.3948 0.191045 37.3207 0.136435C37.2465 0.0818244 37.1624 0.0423728 37.073 0.0203397C36.9836 -0.00169341 36.8907 -0.00587501 36.7997 0.00803451L18.7982 2.75851C18.7065 2.77225 18.6185 2.80407 18.5392 2.85213C18.4599 2.90018 18.3909 2.96352 18.3363 3.03845C18.2828 3.11377 18.2448 3.19892 18.2243 3.28901C18.2039 3.3791 18.2015 3.47234 18.2173 3.56335L18.6373 6.10387L5.49311 8.28045C5.3557 8.30367 5.22835 8.36738 5.12737 8.46341C5.0264 8.55945 4.95639 8.68344 4.92632 8.81951C4.89625 8.95558 4.90748 9.09753 4.95858 9.22717C5.00968 9.35681 5.09832 9.46825 5.21315 9.54721L11.9042 14.1383L7.15188 20.6191C7.08368 20.7224 7.04409 20.8419 7.03715 20.9655C7.03021 21.089 7.05617 21.2122 7.11238 21.3225C7.16858 21.4328 7.25303 21.5262 7.3571 21.5932C7.46117 21.6602 7.58115 21.6984 7.7048 21.7039H7.81679L24.5025 18.9814C24.5947 18.9668 24.6831 18.9339 24.7624 18.8846C24.8418 18.8353 24.9104 18.7707 24.9644 18.6945C25.0167 18.6186 25.0535 18.5332 25.0727 18.4432C25.0919 18.3531 25.0932 18.2601 25.0764 18.1696L24.7124 16.105L38.2975 13.5224L38.3955 14.1313C37.8202 14.304 37.3157 14.6572 36.9565 15.1386C36.5973 15.62 36.4025 16.2042 36.4008 16.8048V21.004C36.4008 24.1044 35.4839 25.9031 30.7596 25.9031C25.6783 26.218 21.6608 28.6256 21.0799 31.502C20.1949 31.0312 19.2057 30.7905 18.2033 30.8021C17.4194 30.7846 16.6405 30.9319 15.917 31.2345C15.1936 31.5371 14.5419 31.9883 14.0039 32.5588C13.3306 32.3167 12.6197 32.1958 11.9042 32.2019C11.1202 32.1843 10.3413 32.3316 9.61793 32.6342C8.89452 32.9368 8.24274 33.388 7.7048 33.9585C7.03149 33.7164 6.32059 33.5956 5.6051 33.6016C4.86053 33.5667 4.11688 33.6876 3.42174 33.9566C2.7266 34.2256 2.09529 34.6368 1.56822 35.1639C1.04116 35.6909 0.629948 36.3222 0.360916 37.0173C0.0918845 37.7124 -0.0290414 38.456 0.00587955 39.2005V41.3001C0.00587955 41.4857 0.079619 41.6638 0.210876 41.795C0.342133 41.9263 0.520156 42 0.705782 42H23.8025C24.1748 41.9954 24.5425 41.9176 24.8847 41.7709C25.2268 41.6242 25.5368 41.4116 25.7967 41.1451C26.0567 40.8787 26.2616 40.5636 26.3998 40.2179C26.538 39.8723 26.6068 39.5028 26.6022 39.1305V38.9276C30.5356 36.968 35.5329 35.7012 37.1007 35.7012C37.2863 35.7012 37.4643 35.6275 37.5956 35.4962C37.7269 35.365 37.8006 35.187 37.8006 35.0013V30.0463C40.3272 28.3036 42 25.8471 42 23.8035V16.8048C41.9993 16.1687 41.782 15.5517 41.3838 15.0556C40.9856 14.5594 40.4303 14.2137 39.8093 14.0753ZM23.5716 17.7146L9.31458 20.0662L13.479 14.3833C13.5346 14.3076 13.5744 14.2215 13.5961 14.1301C13.6177 14.0388 13.6207 13.944 13.605 13.8514C13.5878 13.7593 13.5523 13.6715 13.5006 13.5934C13.4489 13.5153 13.3821 13.4483 13.304 13.3965L7.43884 9.37924L18.8612 7.4896L20.303 16.2169C20.3185 16.3097 20.3525 16.3985 20.403 16.4778C20.4535 16.5572 20.5195 16.6256 20.597 16.6788C20.716 16.7619 20.8578 16.8059 21.0029 16.8048H21.1359L23.3406 16.3849L23.5716 17.7146ZM21.5769 15.2861L19.7081 4.03926L36.3308 1.50575L38.0735 12.1437L21.5769 15.2861ZM11.9042 33.6016C12.3343 33.6026 12.7624 33.659 13.178 33.7696C12.7897 34.5919 12.5934 35.4917 12.6041 36.4011V40.6003H7.7048V37.8008C7.67736 36.8774 7.94725 35.9697 8.47469 35.2113C8.87756 34.6901 9.39871 34.2722 9.99506 33.9923C10.5914 33.7124 11.2458 33.5785 11.9042 33.6016ZM1.40568 39.2005C1.37426 38.6409 1.46136 38.0808 1.66128 37.5571C1.86121 37.0334 2.16945 36.5578 2.56585 36.1614C2.96225 35.7651 3.43788 35.4568 3.96161 35.2569C4.48534 35.057 5.04538 34.9699 5.6051 35.0013C6.03516 35.0023 6.46331 35.0587 6.87892 35.1693C6.49058 35.9916 6.29433 36.8915 6.305 37.8008V40.6003H1.40568V39.2005ZM14.0039 36.4011C13.9765 35.4777 14.2464 34.57 14.7738 33.8116C15.1767 33.2903 15.6978 32.8725 16.2942 32.5926C16.8905 32.3127 17.545 32.1788 18.2033 32.2019C19.2208 32.1862 20.2116 32.528 21.0029 33.1677V39.1305C21.0053 39.6478 21.1454 40.1551 21.4089 40.6003H14.0039V36.4011ZM40.6002 23.8035C40.6002 25.4342 39.0044 27.6038 36.7227 29.0805C36.6242 29.1437 36.5431 29.2307 36.4868 29.3334C36.4306 29.4361 36.401 29.5513 36.4008 29.6684V34.3015C33.0039 34.8345 29.703 35.8601 26.6022 37.3459V32.2019H25.2024V39.1305C25.2024 39.5018 25.0549 39.8578 24.7924 40.1203C24.5298 40.3828 24.1738 40.5303 23.8025 40.5303C23.4313 40.5303 23.0753 40.3828 22.8127 40.1203C22.5502 39.8578 22.4027 39.5018 22.4027 39.1305V32.2019C22.4027 29.8363 26.2662 27.6038 30.8016 27.3028C36.9677 27.3028 37.8006 24.1184 37.8006 21.004V16.8048C37.8006 16.4336 37.9481 16.0776 38.2106 15.8151C38.4731 15.5526 38.8291 15.4051 39.2004 15.4051C39.5716 15.4051 39.9277 15.5526 40.1902 15.8151C40.4527 16.0776 40.6002 16.4336 40.6002 16.8048V23.8035Z" fill="#20282D"/>
</svg>
