<svg width="42" height="42" viewBox="0 0 42 42" fill="none" xmlns="http://www.w3.org/2000/svg">
<path d="M29.7458 32.4689L31.1457 31.6912C31.5206 31.4829 31.8275 31.171 32.0298 30.7928C32.2321 30.4146 32.3211 29.9861 32.2863 29.5586C32.2514 29.1311 32.0942 28.7227 31.8333 28.3822C31.5724 28.0418 31.219 27.7838 30.8153 27.639C30.9845 27.0896 30.9354 26.4961 30.6784 25.9819C30.4213 25.4677 29.976 25.0723 29.435 24.878C29.6042 24.3286 29.5552 23.7351 29.2981 23.2209C29.041 22.7067 28.5958 22.3114 28.0548 22.1171C28.2091 21.6165 28.1825 21.0776 27.9797 20.5946C27.777 20.1116 27.4109 19.7153 26.9455 19.475C27.1926 18.7113 27.1634 17.8851 26.863 17.1408L26.5304 16.3095C26.4629 16.1413 26.332 16.0066 26.1659 15.9342L41.5499 1.18863C41.6521 1.09068 41.7217 0.963678 41.7493 0.824832C41.7769 0.685987 41.7612 0.542014 41.7042 0.412428C41.6472 0.282841 41.5518 0.173906 41.4308 0.100388C41.3099 0.0268698 41.1693 -0.00767684 41.028 0.00143033L19.8804 1.36604C19.6261 0.909126 19.2114 0.56288 18.7164 0.394398C18.2215 0.225916 17.6817 0.247195 17.2015 0.454112C16.7214 0.661029 16.3352 1.03885 16.1177 1.51435C15.9002 1.98986 15.8669 2.52919 16.0243 3.02782L20.8073 18.1764L15.8622 20.4845C15.5752 20.6195 15.3228 20.8182 15.1243 21.0655C14.9258 21.3129 14.7863 21.6023 14.7166 21.9117L13.5482 27.1705L0 35.3008L0.710091 36.4846L14.5126 28.2017C14.5929 28.1535 14.6626 28.0894 14.7174 28.0134C14.7722 27.9374 14.8109 27.851 14.8313 27.7595L16.064 22.2112C16.0872 22.108 16.1337 22.0116 16.1999 21.9291C16.2661 21.8467 16.3502 21.7804 16.4459 21.7354L25.52 17.5001L25.5814 17.6536C25.6838 17.9096 25.7341 18.1834 25.7292 18.4591C25.7243 18.7348 25.6645 19.0067 25.5531 19.259C25.4418 19.5112 25.2812 19.7387 25.0808 19.928C24.8804 20.1173 24.6442 20.2647 24.3861 20.3615L21.5066 21.4416C21.3442 21.5025 21.2107 21.6223 21.1327 21.7772C21.0546 21.9321 21.0377 22.1107 21.0853 22.2775C21.439 23.5075 21.3689 24.8208 20.8863 26.0061C20.4037 27.1915 19.5367 28.1802 18.4245 28.8133L17.9559 29.0812L18.6407 30.2798L19.1094 30.012C20.2564 29.3583 21.1981 28.3972 21.8284 27.2371C22.0883 27.7193 22.5181 28.0878 23.0345 28.2708C22.8653 28.8202 22.9143 29.4137 23.1714 29.9279C23.4285 30.4421 23.8737 30.8374 24.4147 31.0318C24.2912 31.4348 24.2838 31.8644 24.3933 32.2714C24.5028 32.6785 24.7248 33.0464 25.0338 33.333L24.4742 33.7061C24.3609 33.7818 24.2278 33.8221 24.0915 33.822H18.9884C18.8591 33.822 18.7323 33.8583 18.6226 33.9269L7.58064 40.8293L8.31221 42L19.1864 35.2025H24.0915C24.5003 35.2029 24.9001 35.0818 25.24 34.8546L25.9283 34.3957L27.5897 39.658C27.7585 40.1914 28.1322 40.636 28.6286 40.894C29.1251 41.152 29.7036 41.2023 30.2371 41.0338C30.7706 40.8653 31.2153 40.4918 31.4736 39.9955C31.7318 39.4991 31.7825 38.9205 31.6143 38.3868L29.7458 32.4689ZM22.0688 17.5876L17.3405 2.61209C17.3105 2.51709 17.3003 2.41696 17.3104 2.31786C17.3206 2.21877 17.3509 2.12279 17.3996 2.03586C17.4482 1.94892 17.5141 1.87285 17.5932 1.81234C17.6723 1.75182 17.763 1.70814 17.8596 1.68399C18.0399 1.63919 18.2306 1.66476 18.3927 1.75549C18.5549 1.84621 18.6765 1.9953 18.7327 2.17243L23.4032 16.9647L22.0688 17.5876ZM24.4429 15.6736L20.3527 2.71891L39.2293 1.50089L24.4429 15.6736ZM22.6785 24.2153C22.7073 23.6477 22.6678 23.0787 22.5608 22.5205L24.8707 21.6541C25.412 21.4527 25.8937 21.1178 26.2711 20.6806C26.415 20.7455 26.5381 20.8491 26.6265 20.98C26.715 21.1108 26.7653 21.2637 26.7718 21.4214C26.7784 21.5792 26.741 21.7357 26.6638 21.8735C26.5866 22.0112 26.4726 22.1248 26.3345 22.2015L26.2193 22.2655L26.2174 22.2665L22.8207 24.1538C22.7753 24.1786 22.7277 24.1992 22.6785 24.2153ZM23.5364 26.9836C23.377 26.9343 23.2356 26.8393 23.1297 26.7103C23.0239 26.5813 22.9583 26.424 22.941 26.258C22.9237 26.092 22.9556 25.9246 23.0327 25.7766C23.1098 25.6285 23.2286 25.5064 23.3745 25.4254L23.49 25.3612L23.4916 25.3603L26.889 23.4726C27.0866 23.3634 27.3193 23.3371 27.5362 23.3995C27.7531 23.4618 27.9363 23.6077 28.0458 23.8051C28.1552 24.0025 28.1818 24.2353 28.1197 24.4523C28.0576 24.6693 27.912 24.8528 27.7148 24.9625L27.5996 25.0265L27.5976 25.0275L24.2005 26.9151C24.1003 26.9711 23.9897 27.0061 23.8756 27.0179C23.7614 27.0296 23.646 27.018 23.5364 26.9836ZM24.9167 29.7446C24.7573 29.6953 24.6158 29.6003 24.51 29.4713C24.4041 29.3422 24.3385 29.185 24.3212 29.019C24.304 28.853 24.3359 28.6856 24.4129 28.5375C24.49 28.3895 24.6088 28.2674 24.7547 28.1864L24.8703 28.1221L24.8719 28.1213L28.2693 26.2336C28.4668 26.1243 28.6997 26.0978 28.9167 26.1602C29.1336 26.2225 29.317 26.3684 29.4264 26.5659C29.5359 26.7633 29.5625 26.9962 29.5003 27.2133C29.4382 27.4303 29.2924 27.6138 29.095 27.7234L28.9799 27.7874L28.9779 27.7885L25.5808 29.676C25.4806 29.7321 25.37 29.7671 25.2558 29.7789C25.1416 29.7907 25.0262 29.779 24.9167 29.7446ZM26.2969 32.5056C26.1375 32.4563 25.9961 32.3612 25.8902 32.2322C25.7844 32.1032 25.7188 31.946 25.7015 31.78C25.6842 31.614 25.7161 31.4466 25.7932 31.2985C25.8703 31.1505 25.9891 31.0284 26.135 30.9473L26.2505 30.8831L26.2521 30.8823L29.6496 28.9946C29.8471 28.8854 30.0798 28.8591 30.2967 28.9214C30.5136 28.9838 30.6969 29.1297 30.8063 29.3271C30.9157 29.5245 30.9423 29.7572 30.8802 29.9742C30.8181 30.1912 30.6725 30.3747 30.4753 30.4844L26.9621 32.4365C26.8618 32.4928 26.751 32.5279 26.6366 32.5398C26.5222 32.5517 26.4066 32.5401 26.2969 32.5056ZM30.2391 39.3787C30.1908 39.4659 30.125 39.5422 30.0459 39.6028C29.9667 39.6634 29.8758 39.7069 29.779 39.7307C29.5987 39.7755 29.408 39.7499 29.2458 39.6592C29.0837 39.5685 28.9621 39.4194 28.9059 39.2422L27.1965 33.8281C27.3479 33.7819 27.494 33.72 27.6324 33.6433L28.5144 33.1532L30.2981 38.8026C30.3285 38.8975 30.339 38.9977 30.3288 39.0968C30.3187 39.196 30.2881 39.2919 30.2391 39.3787Z" fill="#20282D"/>
<path d="M30.4456 17.307L40.1058 13.1647L40.6496 14.4334L30.9894 18.5757L30.4456 17.307Z" fill="#20282D"/>
<path d="M32.5362 22.7445L33.0317 21.4565L42 24.9079L41.5045 26.1959L32.5362 22.7445Z" fill="#20282D"/>
<path d="M34.4297 29.5503L35.2772 28.4611L41.4856 33.2933L40.6381 34.3825L34.4297 29.5503Z" fill="#20282D"/>
<path d="M31.5461 34.2431L32.6626 33.4314L38.182 41.0266L37.0655 41.8382L31.5461 34.2431Z" fill="#20282D"/>
<path d="M8.81015 5.98159L9.83568 5.05804L16.0471 11.9578L15.0216 12.8813L8.81015 5.98159Z" fill="#20282D"/>
<path d="M2.85095 13.0654L3.36302 11.7843L13.7096 15.9214L13.1975 17.2025L2.85095 13.0654Z" fill="#20282D"/>
<path d="M0.228144 19.9998L0.482126 18.6427L11.5256 20.7102L11.2716 22.0673L0.228144 19.9998Z" fill="#20282D"/>
<path d="M1.58022 26.935L9.86055 24.8603L10.1959 26.1993L1.9156 28.274L1.58022 26.935Z" fill="#20282D"/>
<path d="M30.0655 8.09899L28.866 6.46143L29.4247 4.9334C29.4715 4.80519 29.4793 4.66596 29.4471 4.53331C29.4148 4.40067 29.344 4.28057 29.2435 4.18819C29.143 4.09582 29.0174 4.03532 28.8825 4.01434C28.7476 3.99336 28.6096 4.01285 28.4858 4.07035L27.1658 4.68358L25.8533 3.63869C25.753 3.55885 25.6325 3.50851 25.5053 3.49332C25.378 3.47812 25.249 3.49868 25.1328 3.55268C25.0165 3.60668 24.9176 3.69199 24.8471 3.79905C24.7767 3.90611 24.7374 4.03069 24.7337 4.15882L24.6854 5.83598L23.3655 6.44913C23.2417 6.50665 23.1377 6.59959 23.0668 6.7162C22.9958 6.8328 22.961 6.96784 22.9667 7.10424C22.9725 7.24063 23.0185 7.37226 23.0991 7.48248C23.1796 7.5927 23.291 7.67656 23.4192 7.72345L24.947 8.28217L25.4245 10.2552C25.4574 10.391 25.5307 10.5137 25.6348 10.607C25.7389 10.7002 25.8689 10.7597 26.0075 10.7775C26.0367 10.7812 26.066 10.783 26.0955 10.783C26.2202 10.783 26.3426 10.7491 26.4496 10.685C26.5567 10.621 26.6444 10.5291 26.7034 10.4191L27.5708 8.80213L29.3658 9.18213C29.5026 9.21109 29.6448 9.19784 29.7739 9.14414C29.9029 9.09045 30.0126 8.99884 30.0884 8.88143C30.1643 8.76403 30.2027 8.62636 30.1986 8.48665C30.1945 8.34693 30.1481 8.21175 30.0655 8.09899ZM27.3503 7.34438C27.2042 7.31342 27.0521 7.3307 26.9166 7.39361C26.7812 7.45653 26.6699 7.56169 26.5993 7.69329L26.3411 8.17458L26.2016 7.59842C26.1749 7.48798 26.1213 7.38585 26.0457 7.30109C25.97 7.21632 25.8746 7.15155 25.7679 7.1125L25.4581 6.99917L25.6537 6.90834C25.77 6.85434 25.8689 6.76902 25.9394 6.66196C26.0098 6.5549 26.0491 6.43033 26.0528 6.30219L26.0737 5.57849L26.64 6.02928C26.7402 6.1091 26.8607 6.15943 26.988 6.17463C27.1152 6.18982 27.2442 6.16928 27.3605 6.1153L27.5562 6.02431L27.4428 6.33438C27.4038 6.4411 27.3918 6.5558 27.4077 6.6683C27.4237 6.7808 27.4672 6.88763 27.5343 6.97929L27.8845 7.45746L27.3503 7.34438Z" fill="#20282D"/>
</svg>
