<svg width="42" height="42" viewBox="0 0 42 42" fill="none" xmlns="http://www.w3.org/2000/svg">
<path d="M21 0C19.4455 0 18.1986 1.25911 18.1986 2.79715C18.1986 4.33522 19.4455 5.5998 21 5.5998C22.5545 5.5998 23.8014 4.33522 23.8014 2.79715C23.8014 1.25911 22.5545 0 21 0ZM21 1.39994C21.7651 1.39994 22.4014 2.01571 22.4014 2.79715C22.4014 3.57862 21.7678 4.19984 21 4.19984C20.2322 4.19984 19.5986 3.57862 19.5986 2.79715C19.5986 2.01571 20.2349 1.39994 21 1.39994ZM16.2928 4.19979L6.91935 8.52405C6.07483 8.89518 6.64148 10.1905 7.50584 9.79549L16.8807 5.47123C17.5342 5.17952 17.3645 4.18569 16.6332 4.13283C16.5157 4.12492 16.399 4.14873 16.2928 4.19979ZM34.4942 9.79555C35.3586 10.1905 35.9253 8.89523 35.0807 8.52411L25.7073 4.19984C25.6012 4.14904 25.4843 4.12629 25.3668 4.13288C24.6355 4.18577 24.4658 5.17957 25.1194 5.47128L34.4942 9.79555ZM19.1652 7.98683C18.6424 8.24002 18.449 8.63067 18.334 8.9069C18.2189 9.18316 18.1737 9.33928 18.0291 9.51667C17.8844 9.69393 17.6206 9.9206 17.0105 10.1783C16.3983 10.4371 16.0418 10.4736 15.806 10.4572C15.5703 10.4414 15.4291 10.3699 15.1607 10.266C14.8924 10.1617 14.4743 10.0281 13.9562 10.199C13.4883 10.3533 13.0271 10.7249 12.5152 11.2435C11.96 11.806 11.6246 12.2703 11.4912 12.6954C11.3293 13.2116 11.4753 13.6273 11.5841 13.893C11.6933 14.1588 11.7661 14.3013 11.7865 14.5342C11.8076 14.7673 11.7759 15.1252 11.528 15.7387C11.279 16.3522 11.054 16.6292 10.8772 16.7818C10.7005 16.9345 10.5489 16.9815 10.2879 17.0922C9.94851 17.2358 9.6088 17.4367 9.38286 17.8728C9.17756 18.2693 9.09351 18.8245 9.09986 19.5981C9.09454 20.3089 9.15753 20.8886 9.38286 21.3235C9.6088 21.7596 9.95028 21.9611 10.2879 22.1041C10.5488 22.2147 10.6922 22.2591 10.869 22.4117C11.0457 22.5643 11.2789 22.8441 11.528 23.4576C11.7724 24.0592 11.8041 24.4146 11.7865 24.647C11.7679 24.8795 11.7002 25.0199 11.5949 25.2718C11.4679 25.5752 11.3497 25.9546 11.4706 26.4188C11.5595 26.76 11.7399 27.0725 12.0311 27.4264C11.5546 28.2082 11.1801 29.0397 10.9196 29.9392C10.4141 29.1923 9.74974 28.6021 8.96178 28.1701C9.48512 27.5574 9.7985 26.7653 9.7985 25.8993C9.7985 23.9746 8.24369 22.398 6.29987 22.398C4.35601 22.398 2.79576 23.9746 2.79576 25.8993C2.79576 26.7663 3.11099 27.5571 3.63658 28.1701C1.87755 29.1182 0.699885 30.9752 0.699885 33.115V33.9367C0.699885 35.69 2.114 37.0989 3.84852 37.0989H8.74714C9.39477 37.0989 9.9978 36.9052 10.4999 36.5657V39.2043C10.4999 40.0447 10.7639 40.8679 11.405 41.4095C12.0459 41.9511 12.9834 42.12 14.0559 41.9112C14.0718 41.9086 14.0872 41.9033 14.1025 41.9006L20.9959 40.0454L27.9166 41.9061C29.0124 42.1201 29.9236 41.9738 30.5935 41.4098C31.2343 40.8703 31.5 40.0503 31.5 39.2142V36.5687C32.002 36.9081 32.6051 37.0991 33.2527 37.0991H38.1513C39.8858 37.0991 41.3 35.6903 41.3 33.9369V33.1153C41.3 30.9754 40.1223 29.1184 38.3632 28.1704C38.8889 27.5573 39.2041 26.7666 39.2041 25.8995C39.2041 23.9749 37.6438 22.3983 35.7 22.3983C33.7561 22.3983 32.2013 23.9749 32.2013 25.8995C32.2013 26.7656 32.5147 27.5576 33.0381 28.1704C32.2555 28.5914 31.583 29.1953 31.0775 29.9422C30.8169 29.0428 30.444 28.2029 29.9673 27.4211C30.2589 27.067 30.4404 26.7605 30.5293 26.4191C30.6502 25.9548 30.5318 25.5755 30.4049 25.272C30.2999 25.0201 30.2313 24.8796 30.2134 24.6472C30.1948 24.4149 30.2266 24.0595 30.4718 23.4578C30.7208 22.8443 30.954 22.5646 31.1308 22.4119C31.3076 22.2593 31.4509 22.2148 31.7119 22.1043C32.0496 21.9612 32.391 21.7598 32.617 21.3237C32.8424 20.8889 32.9058 20.3091 32.9 19.5984C32.9053 18.8247 32.8225 18.2695 32.617 17.873C32.391 17.4369 32.0513 17.2362 31.7119 17.0924C31.451 16.9818 31.2995 16.9347 31.1226 16.7821C30.9459 16.6294 30.7209 16.3524 30.4719 15.7389C30.2229 15.1254 30.1931 14.7674 30.2134 14.5345C30.2346 14.3017 30.3065 14.159 30.4158 13.8933C30.525 13.6276 30.6708 13.2119 30.5086 12.6957C30.3753 12.2706 30.0399 11.8063 29.4846 11.2438C28.9727 10.7252 28.5116 10.3537 28.0436 10.1993C27.5256 10.0284 27.1074 10.162 26.8391 10.2662C26.5708 10.3705 26.4296 10.4411 26.1938 10.4575C25.9581 10.4734 25.6016 10.4363 24.9893 10.1786C24.3793 9.92092 24.1154 9.6943 23.9707 9.51691C23.826 9.33965 23.781 9.18343 23.6659 8.90717C23.5508 8.63094 23.3574 8.24039 22.8346 7.98709C22.3811 7.76724 21.8372 7.69861 20.9999 7.69848C20.1626 7.69835 19.6188 7.76714 19.1652 7.98683ZM2.79999 8.39833C1.24548 8.39833 0 9.65744 0 11.1955C0 12.7336 1.24548 13.9981 2.79999 13.9981C4.35451 13.9981 5.60136 12.7336 5.60136 11.1955C5.60136 9.65744 4.35451 8.39833 2.79999 8.39833ZM39.2 8.39833C37.6455 8.39833 36.3986 9.65744 36.3986 11.1955C36.3986 12.7336 37.6455 13.9981 39.2 13.9981C40.7545 13.9981 42 12.7336 42 11.1955C42 9.65744 40.7545 8.39833 39.2 8.39833ZM22.225 9.2433C22.3213 9.28986 22.3308 9.365 22.3753 9.44966C22.4528 9.63564 22.5721 10.0141 22.8866 10.3998C23.2011 10.7855 23.6849 11.1507 24.4411 11.4703C25.1951 11.7889 25.7952 11.8916 26.2909 11.8572C26.7866 11.8228 27.1533 11.6492 27.3505 11.5728C27.4677 11.5273 27.5267 11.5011 27.6034 11.5262C27.7039 11.5596 27.9593 11.6892 28.488 12.2248C28.9922 12.7357 29.1392 13.0146 29.1702 13.1135C29.1914 13.1963 29.157 13.2696 29.1183 13.3609C29.0522 13.5214 28.862 13.9149 28.8189 14.4095C28.7758 14.904 28.8671 15.5078 29.1744 16.2647C29.4816 17.0216 29.8315 17.516 30.208 17.841C30.5845 18.166 30.9685 18.3005 31.165 18.3838C31.2761 18.4309 31.3285 18.4351 31.3714 18.5176C31.4142 18.6004 31.5116 18.8744 31.5052 19.5977C31.5105 20.2784 31.4288 20.5667 31.3714 20.6777C31.3285 20.7605 31.2507 20.7753 31.165 20.8116C30.9684 20.8949 30.5845 21.0293 30.208 21.3543C29.8315 21.6793 29.4816 22.1737 29.1744 22.9307C28.8731 23.673 28.7815 24.2647 28.8189 24.7544C28.8562 25.2441 29.0163 25.5773 29.1129 25.8085C29.1539 25.9241 29.1946 25.9889 29.1745 26.0669C29.1692 26.0881 29.1388 26.1627 29.1115 26.2146C28.0739 24.9579 26.7401 23.9409 25.2247 23.278C26.0856 22.2921 26.6014 21.0064 26.6014 19.599C26.6014 16.5145 24.0845 13.9992 21.0001 13.9992C17.9155 13.9992 15.3987 16.5145 15.3987 19.599C15.3987 21.0067 15.914 22.292 16.7754 23.278C15.2598 23.9405 13.9259 24.958 12.8885 26.2146C12.8615 26.1627 12.8314 26.0889 12.8256 26.0669C12.8044 25.9889 12.8467 25.9241 12.8872 25.8085C12.9838 25.5772 13.1438 25.2441 13.1811 24.7544C13.2184 24.2647 13.1269 23.673 12.8257 22.9307C12.5185 22.1737 12.1686 21.6793 11.7921 21.3543C11.4156 21.0294 11.0316 20.8948 10.8351 20.8116C10.7491 20.7753 10.6716 20.7603 10.6287 20.6777C10.5713 20.5669 10.489 20.2784 10.4948 19.5977C10.4895 18.8744 10.5858 18.6004 10.6287 18.5176C10.6716 18.4348 10.724 18.4308 10.8351 18.3838C11.0316 18.3004 11.4156 18.166 11.7921 17.841C12.1686 17.516 12.5185 17.0216 12.8257 16.2647C13.1329 15.5078 13.2243 14.904 13.1811 14.4095C13.138 13.9149 12.9478 13.5214 12.8817 13.3609C12.8442 13.2693 12.8077 13.196 12.8299 13.1135C12.8608 13.0145 13.0079 12.7357 13.5121 12.2248C14.0408 11.6893 14.2961 11.5594 14.3967 11.5262C14.4734 11.4998 14.5324 11.5272 14.6496 11.5728C14.8467 11.6493 15.2135 11.8228 15.7092 11.8572C16.2049 11.8916 16.8049 11.7889 17.559 11.4703C18.3153 11.1507 18.799 10.7855 19.1135 10.3998C19.428 10.0141 19.5474 9.63551 19.6248 9.44966C19.6695 9.365 19.6788 9.28986 19.7753 9.2433C19.888 9.18853 20.2568 9.09831 21.0002 9.09831C21.7435 9.09831 22.1122 9.18853 22.225 9.2433ZM2.79999 9.7983C3.56507 9.7983 4.20135 10.414 4.20135 11.1955C4.20135 11.977 3.56782 12.5982 2.79999 12.5982C2.03216 12.5982 1.39998 11.977 1.39998 11.1955C1.39998 10.414 2.03492 9.7983 2.79999 9.7983ZM39.2 9.7983C39.9651 9.7983 40.6 10.414 40.6 11.1955C40.6 11.977 39.9678 12.5982 39.2 12.5982C38.4322 12.5982 37.7986 11.977 37.7986 11.1955C37.7986 10.414 38.4349 9.7983 39.2 9.7983ZM4.06055 15.1383C3.57896 15.1082 3.21182 15.5626 3.34275 16.027L4.57322 20.6876C4.78805 21.6273 6.20147 21.256 5.92675 20.3321L4.69627 15.6715C4.62378 15.3738 4.36628 15.1578 4.06055 15.1383ZM37.9395 15.1383C37.6337 15.1568 37.3761 15.3738 37.3037 15.6715L36.0732 20.3321C35.7985 21.256 37.212 21.6273 37.4267 20.6876L38.6572 16.027C38.7882 15.5626 38.421 15.108 37.9395 15.1383ZM21 15.3995C23.306 15.3995 25.2014 17.2714 25.2014 19.5993C25.2014 21.9272 23.3142 23.8005 21 23.8005C18.6858 23.8005 16.7986 21.9272 16.7986 19.5993C16.7986 17.2714 18.6913 15.3995 21 15.3995ZM6.3 23.7978C7.45166 23.7978 8.39725 24.7311 8.39725 25.8991C8.39725 27.0672 7.45441 27.9977 6.3 27.9977C5.14556 27.9977 4.19725 27.0672 4.19725 25.8991C4.19725 24.7311 5.14831 23.7978 6.3 23.7978ZM35.7 23.7978C36.8517 23.7978 37.8027 24.7311 37.8027 25.8991C37.8027 27.0672 36.8544 27.9977 35.7 27.9977C34.5456 27.9977 33.6027 27.0672 33.6027 25.8991C33.6027 24.7311 34.5483 23.7978 35.7 23.7978ZM16.1014 35.316V32.892C16.0802 31.9792 14.7216 31.9792 14.7013 32.892V35.6755L14.5265 35.7205C13.6203 35.9512 13.9662 37.3102 14.8724 37.0794L25.4544 34.3616C26.2616 34.1542 27.0474 34.6214 27.2523 35.3897C27.4605 36.1669 27.0099 36.9746 26.2146 37.1888L13.7868 40.5369C13.7841 40.5375 13.7841 40.5364 13.7815 40.5369C12.9866 40.6901 12.5591 40.5502 12.309 40.3401C12.058 40.1279 11.9016 39.7616 11.9016 39.204V32.9001C11.9016 28.9093 14.4465 25.542 17.9692 24.3104C18.8408 24.8709 19.8859 25.2004 21.0002 25.2004C22.1138 25.2004 23.156 24.8715 24.0272 24.3118C27.5731 25.5514 30.1002 28.9093 30.1002 32.9001V39.2136C30.1003 39.7646 29.9425 40.1287 29.6914 40.3401C29.4414 40.5507 29.0139 40.6902 28.219 40.5369L23.6936 39.3188L26.5756 38.5423C28.0966 38.1328 29.0141 36.5717 28.6018 35.0328C28.3976 34.2703 27.9144 33.6744 27.2989 33.3102V32.8919C27.2777 31.9791 25.9191 31.9873 25.8989 32.9157C25.6877 32.8998 25.3696 32.9342 25.103 33.0026L16.1014 35.316ZM23.8014 28.699C22.8885 28.7202 22.8885 30.0787 23.8014 30.099H25.8986C26.8115 30.0778 26.8115 28.7193 25.8986 28.699H23.8014ZM4.94375 29.1228C5.33372 29.2929 5.82513 29.3976 6.3 29.3976C6.77487 29.3976 7.24757 29.2928 7.65897 29.1228C9.32122 29.6812 10.5 31.2697 10.5 33.1149V33.9365C10.5 34.9114 9.72731 35.6988 8.74724 35.6988H3.84863C2.86859 35.6988 2.1 34.9019 2.1 33.9365V33.1149C2.1 31.2669 3.28037 29.682 4.94375 29.1228ZM34.341 29.1228C34.736 29.2956 35.2252 29.399 35.7 29.399C36.1748 29.399 36.6526 29.3011 37.0562 29.1228C38.7196 29.682 39.9 31.2669 39.9 33.1149V33.9365C39.9 34.9019 39.1314 35.6988 38.1513 35.6988H33.2527C32.2727 35.6988 31.5 34.9019 31.5 33.9365V33.1149C31.5 31.2697 32.6788 29.6812 34.341 29.1228Z" fill="#20282D"/>
</svg>
