<svg width="85" height="85" viewBox="0 0 85 85" fill="none" xmlns="http://www.w3.org/2000/svg">
<path fill-rule="evenodd" clip-rule="evenodd" d="M55.3802 16.5543C52.0192 16.4008 51.0109 16.3683 42.5 16.3683V16.3681C33.9891 16.3681 32.9808 16.4008 29.6198 16.554C27.5986 16.5781 25.5964 16.9493 23.7009 17.6516C22.3263 18.182 21.0779 18.9943 20.036 20.0362C18.9942 21.0781 18.182 22.3265 17.6516 23.7012C16.9493 25.5967 16.5781 27.5988 16.554 29.6201C16.4005 32.9811 16.3681 33.9894 16.3681 42.5003C16.3681 51.0112 16.4008 52.0195 16.554 55.3804C16.5781 57.4017 16.9493 59.4038 17.6516 61.2993C18.182 62.674 18.9942 63.9223 20.0361 64.9642C21.0779 66.006 22.3263 66.8183 23.7009 67.3487C25.5964 68.0509 27.5986 68.4222 29.6198 68.4463C32.9805 68.5998 33.9883 68.6322 42.5 68.6322C51.0117 68.6322 52.0195 68.5995 55.3802 68.4463C57.4014 68.4222 59.4035 68.0509 61.2991 67.3487C62.6737 66.8183 63.9221 66.006 64.9639 64.9642C66.0058 63.9223 66.818 62.674 67.3484 61.2993C68.0507 59.4038 68.4219 57.4017 68.446 55.3804C68.5995 52.0195 68.6319 51.0112 68.6319 42.5003C68.6319 33.9894 68.5993 32.9811 68.446 29.6201C68.4219 27.5988 68.0507 25.5967 67.3484 23.7012C66.818 22.3266 66.0058 21.0782 64.9639 20.0364C63.9221 18.9945 62.6737 18.1823 61.2991 17.6518C59.4035 16.9496 57.4014 16.5783 55.3802 16.5543ZM29.3579 10.8168C32.7577 10.6617 33.8433 10.625 42.5 10.625C51.1567 10.625 52.2423 10.6617 55.6407 10.8181C58.2851 10.8711 60.9013 11.3721 63.3781 12.2998C65.4957 13.1186 67.4189 14.3708 69.0245 15.9761C70.63 17.5814 71.8825 19.5044 72.7016 21.6219C73.6292 24.0983 74.1301 26.714 74.1832 29.3579C74.3383 32.7577 74.375 33.8433 74.375 42.5C74.375 51.1567 74.3383 52.2423 74.1845 55.6407C74.1316 58.2851 73.6306 60.9013 72.7029 63.3781C71.8839 65.4959 70.6315 67.4191 69.026 69.0247C67.4205 70.6302 65.4972 71.8826 63.3795 72.7016C60.9026 73.6293 58.2864 74.1303 55.6421 74.1832C52.2423 74.3383 51.1567 74.375 42.5 74.375C33.8433 74.375 32.7577 74.3383 29.3593 74.1845C26.7149 74.1316 24.0987 73.6306 21.6219 72.7029C19.5041 71.8839 17.5809 70.6315 15.9753 69.026C14.3698 67.4205 13.1174 65.4972 12.2984 63.3795C11.3707 60.9026 10.8697 58.2864 10.8168 55.6421C10.6617 52.2423 10.625 51.1567 10.625 42.5C10.625 33.8433 10.6617 32.7577 10.8168 29.3593C10.8697 26.7149 11.3707 24.0987 12.2984 21.6219C13.1174 19.5041 14.3698 17.5809 15.9753 15.9753C17.5809 14.3698 19.5041 13.1174 21.6219 12.2984C24.0983 11.3708 26.714 10.8699 29.3579 10.8168ZM59.5148 29.3099C61.6273 29.3099 63.3398 27.5973 63.3398 25.4849C63.3398 23.3724 61.6273 21.6599 59.5148 21.6599C57.4023 21.6599 55.6898 23.3724 55.6898 25.4849C55.6898 27.5973 57.4023 29.3099 59.5148 29.3099ZM42.4999 26.1319C39.2626 26.1319 36.0979 27.0919 33.4062 28.8905C30.7144 30.689 28.6164 33.2454 27.3775 36.2363C26.1387 39.2273 25.8145 42.5184 26.4461 45.6935C27.0777 48.8687 28.6366 51.7853 30.9258 54.0744C33.2149 56.3636 36.1315 57.9225 39.3066 58.5541C42.4818 59.1856 45.7729 58.8615 48.7638 57.6226C51.7547 56.3837 54.3111 54.2858 56.1097 51.594C57.9083 48.9022 58.8683 45.7376 58.8683 42.5002C58.8683 38.1591 57.1438 33.9957 54.0741 30.9261C51.0044 27.8564 46.8411 26.1319 42.4999 26.1319ZM42.4999 53.1252C40.3985 53.1252 38.3443 52.5021 36.597 51.3346C34.8497 50.1671 33.4879 48.5077 32.6837 46.5663C31.8795 44.6248 31.6691 42.4885 32.0791 40.4274C32.489 38.3664 33.501 36.4732 34.9869 34.9872C36.4728 33.5013 38.366 32.4894 40.4271 32.0794C42.4881 31.6694 44.6245 31.8798 46.5659 32.684C48.5074 33.4882 50.1668 34.85 51.3343 36.5973C52.5018 38.3446 53.1249 40.3988 53.1249 42.5002C53.1249 45.3182 52.0055 48.0207 50.0129 50.0132C48.0204 52.0058 45.3178 53.1252 42.4999 53.1252Z" fill="white"/>
</svg>
