<svg width="29" height="29" viewBox="0 0 29 29" fill="none" xmlns="http://www.w3.org/2000/svg">
<path d="M14.8786 15.8269C14.8249 15.8153 14.7699 15.8132 14.7155 15.8213C14.1708 15.7579 13.76 15.2971 13.759 14.749C13.759 14.4863 13.546 14.2733 13.2834 14.2733C13.0207 14.2733 12.8077 14.4863 12.8077 14.749C12.8091 15.6643 13.4213 16.4661 14.3039 16.7084V17.184C14.3039 17.4467 14.5169 17.6597 14.7796 17.6597C15.0423 17.6597 15.2553 17.4467 15.2553 17.184V16.7372C16.274 16.5239 16.9664 15.5751 16.8593 14.5399C16.752 13.5047 15.8799 12.718 14.8391 12.7178C14.2426 12.7178 13.759 12.2342 13.759 11.6377C13.759 11.0413 14.2426 10.5577 14.8391 10.5577C15.4355 10.5577 15.9191 11.0413 15.9191 11.6377C15.9191 11.9004 16.1321 12.1134 16.3948 12.1134C16.6575 12.1134 16.8705 11.9004 16.8705 11.6377C16.8691 10.6766 16.1958 9.84765 15.2553 9.64929V9.21635C15.2553 8.95365 15.0423 8.74066 14.7796 8.74066C14.5169 8.74066 14.3039 8.95365 14.3039 9.21635V9.67833C13.3224 9.94636 12.6906 10.8994 12.8258 11.9079C12.961 12.9164 13.8215 13.6691 14.8391 13.6689C15.4276 13.6689 15.9077 14.1402 15.9184 14.7285C15.9293 15.3168 15.4667 15.8055 14.8786 15.8269Z" fill="#20282D"/>
<path d="M7.94116 13.23C7.94116 17.0396 11.0294 20.1279 14.839 20.1279C18.6487 20.1279 21.7369 17.0396 21.7369 13.23C21.7369 9.42032 18.6487 6.33209 14.839 6.33209C11.0312 6.33627 7.94558 9.42218 7.94116 13.23ZM14.839 7.28346C18.1233 7.28346 20.7856 9.94571 20.7856 13.23C20.7856 16.5142 18.1233 19.1765 14.839 19.1765C11.5548 19.1765 8.89253 16.5142 8.89253 13.23C8.89625 9.94734 11.5564 7.28718 14.839 7.28346Z" fill="#20282D"/>
<path d="M24.0819 21.3005L20.3556 23.0611C19.8412 22.1042 18.8543 21.4952 17.7682 21.4645L14.3283 21.37C13.7836 21.3544 13.2492 21.2164 12.7649 20.9663L12.4149 20.7849C10.6227 19.8507 8.48654 19.853 6.69622 20.7909L6.71805 19.998C6.72525 19.7353 6.5183 19.5165 6.25561 19.5093L2.48358 19.4055C2.22089 19.3983 2.00233 19.6052 1.99513 19.8679L1.76727 28.1454C1.76007 28.4081 1.96702 28.6269 2.22972 28.6341L6.00174 28.738H6.01475C6.27256 28.738 6.48346 28.5329 6.49043 28.2753L6.50135 27.8793L7.48128 27.3546C7.86592 27.1476 8.31559 27.0984 8.73576 27.2173L14.5875 28.8597C14.5977 28.8627 14.6079 28.865 14.6184 28.8673C15.0414 28.9558 15.4724 29.0002 15.9045 29C16.8196 29.0004 17.724 28.8032 18.5558 28.4214C18.5762 28.4121 18.596 28.4012 18.6148 28.3889L27.0993 22.9008C27.3106 22.764 27.3789 22.4865 27.2551 22.2672C26.6252 21.1496 25.2281 20.7238 24.0819 21.3005ZM2.73141 27.6962L2.93302 20.3696L5.75391 20.4472L5.5523 27.7741L2.73141 27.6962ZM18.1273 27.5717C17.0939 28.0381 15.9398 28.1668 14.8291 27.9399L8.99311 26.3017C8.33626 26.1161 7.63319 26.193 7.03231 26.5161L6.53154 26.7844L6.66556 21.913C8.25241 20.8576 10.2875 20.7491 11.9775 21.6296L12.3275 21.811C12.9393 22.1269 13.6141 22.3011 14.3023 22.3211L17.7424 22.4156C18.7086 22.4435 19.5292 23.1315 19.7253 24.0782L14.6012 23.9368C14.3385 23.9296 14.12 24.1367 14.1125 24.3992C14.1053 24.6619 14.3125 24.8807 14.575 24.8879L20.2297 25.0435H20.243C20.5006 25.0433 20.7112 24.8382 20.7182 24.5808C20.724 24.3741 20.7087 24.1672 20.6722 23.9637L24.4942 22.1578C24.4979 22.1562 24.5016 22.1543 24.5053 22.1525C25.0474 21.8782 25.7029 21.9699 26.1488 22.3827L18.1273 27.5717Z" fill="#20282D"/>
<path d="M15.3149 4.99468V0.475684C15.3149 0.212989 15.1019 0 14.8392 0C14.5765 0 14.3635 0.212989 14.3635 0.475684V4.99468C14.3635 5.25737 14.5765 5.47036 14.8392 5.47036C15.1019 5.47036 15.3149 5.25737 15.3149 4.99468Z" fill="#20282D"/>
<path d="M18.8825 4.99468V2.8541C18.8825 2.59141 18.6695 2.37842 18.4068 2.37842C18.1441 2.37842 17.9312 2.59141 17.9312 2.8541V4.99468C17.9312 5.25737 18.1441 5.47036 18.4068 5.47036C18.6695 5.47036 18.8825 5.25737 18.8825 4.99468Z" fill="#20282D"/>
<path d="M11.7473 4.99468V2.8541C11.7473 2.59141 11.5343 2.37842 11.2716 2.37842C11.0089 2.37842 10.7959 2.59141 10.7959 2.8541V4.99468C10.7959 5.25737 11.0089 5.47036 11.2716 5.47036C11.5343 5.47036 11.7473 5.25737 11.7473 4.99468Z" fill="#20282D"/>
</svg>
