<svg width="24" height="24" viewBox="0 0 24 24" fill="none" xmlns="http://www.w3.org/2000/svg">
<path d="M2.00003 12C1.99976 10.1221 2.52834 8.28214 3.52525 6.69072C4.52216 5.09931 5.9471 3.8208 7.63689 3.00162C9.32667 2.18244 11.213 1.8557 13.0799 2.0588C14.9467 2.26191 16.7187 2.98666 18.1928 4.15006H16.6716C16.5399 4.15133 16.4139 4.20457 16.3212 4.2982C16.2285 4.39183 16.1764 4.51828 16.1764 4.65005C16.1764 4.78182 16.2285 4.90827 16.3212 5.0019C16.4139 5.09553 16.5399 5.14877 16.6716 5.15004H19.5C19.6326 5.15004 19.7598 5.09736 19.8536 5.00359C19.9473 4.90982 20 4.78264 20 4.65003V1.82154C20.0007 1.75547 19.9882 1.68994 19.9634 1.62871C19.9385 1.56749 19.9018 1.5118 19.8553 1.46485C19.8088 1.41791 19.7535 1.38064 19.6925 1.35521C19.6315 1.32978 19.5661 1.31668 19.5 1.31668C19.434 1.31668 19.3685 1.32978 19.3076 1.35521C19.2466 1.38064 19.1913 1.41791 19.1448 1.46485C19.0983 1.5118 19.0615 1.56749 19.0367 1.62871C19.0119 1.68994 18.9994 1.75547 19 1.82154V3.51467C16.8198 1.71613 14.031 0.825814 11.2119 1.02837C8.39284 1.23092 5.75991 2.51079 3.8592 4.60254C1.95848 6.69429 0.935848 9.4374 1.00339 12.2629C1.07093 15.0884 2.22346 17.7795 4.22195 19.7781C4.26818 19.8254 4.32333 19.8631 4.38422 19.8889C4.4451 19.9147 4.51051 19.9282 4.57665 19.9286C4.64279 19.929 4.70835 19.9163 4.76953 19.8911C4.83071 19.866 4.88629 19.829 4.93306 19.7822C4.97983 19.7354 5.01686 19.6798 5.04199 19.6187C5.06713 19.5575 5.07987 19.4919 5.07949 19.4258C5.07911 19.3596 5.06561 19.2942 5.03977 19.2333C5.01393 19.1725 4.97627 19.1173 4.92897 19.0711C3.99747 18.1446 3.25898 17.0427 2.75623 15.8289C2.25347 14.6152 1.99645 13.3138 2.00003 12Z" fill="#20282D"/>
<path d="M7.62978 20.9978C7.34609 20.8598 7.06531 20.7063 6.7954 20.5417C6.68222 20.4726 6.54623 20.4513 6.41734 20.4825C6.28846 20.5137 6.17723 20.5948 6.10814 20.708C6.03905 20.8212 6.01775 20.9572 6.04893 21.086C6.08011 21.2149 6.1612 21.3261 6.27439 21.3952C6.57153 21.5766 6.88057 21.7453 7.19285 21.8972C7.25191 21.9259 7.31604 21.9427 7.38158 21.9466C7.44712 21.9505 7.51279 21.9414 7.57484 21.92C7.63689 21.8985 7.6941 21.865 7.74321 21.8214C7.79232 21.7779 7.83236 21.725 7.86106 21.666C7.88975 21.6069 7.90654 21.5428 7.91045 21.4773C7.91436 21.4117 7.90532 21.3461 7.88385 21.284C7.86239 21.222 7.82891 21.1647 7.78533 21.1156C7.74175 21.0665 7.68892 21.0265 7.62987 20.9978H7.62978Z" fill="#20282D"/>
<path d="M21.0022 7.63919C21.0308 7.69828 21.0708 7.75116 21.1198 7.7948C21.1689 7.83844 21.2261 7.872 21.2881 7.89354C21.3501 7.91509 21.4158 7.92421 21.4813 7.92038C21.5469 7.91655 21.6111 7.89984 21.6701 7.87122C21.7292 7.84259 21.7821 7.80261 21.8258 7.75355C21.8694 7.70449 21.903 7.64731 21.9245 7.58529C21.946 7.52326 21.9552 7.4576 21.9513 7.39205C21.9475 7.3265 21.9308 7.26234 21.9022 7.20325C21.7515 6.89195 21.5831 6.5829 21.4017 6.2845C21.3676 6.22839 21.3227 6.17956 21.2697 6.14078C21.2167 6.10201 21.1566 6.07405 21.0928 6.05851C20.9639 6.02713 20.8279 6.04822 20.7146 6.11715C20.6012 6.18608 20.52 6.2972 20.4886 6.42607C20.4572 6.55493 20.4783 6.69098 20.5472 6.8043C20.7121 7.07556 20.8652 7.35648 21.0022 7.63919Z" fill="#20282D"/>
<path d="M13.1862 21.93C12.8705 21.9675 12.5511 21.9898 12.2367 21.9974C12.1065 22.0023 11.9834 22.058 11.8936 22.1524C11.8038 22.2468 11.7544 22.3725 11.7559 22.5028C11.7574 22.6331 11.8097 22.7576 11.9017 22.8499C11.9937 22.9422 12.1181 22.9949 12.2483 22.9969C12.2522 22.9969 12.2564 22.9969 12.2603 22.9966C12.606 22.9886 12.9568 22.9638 13.3035 22.9229C13.4351 22.9072 13.5551 22.84 13.6371 22.7359C13.7191 22.6318 13.7564 22.4994 13.7409 22.3678C13.7254 22.2362 13.6582 22.1162 13.5543 22.034C13.4503 21.9519 13.3179 21.9144 13.1863 21.9298L13.1862 21.93Z" fill="#20282D"/>
<path d="M10.3407 21.8621C10.0297 21.8101 9.71692 21.7425 9.41125 21.6605C9.28311 21.6263 9.14661 21.6443 9.03178 21.7107C8.91695 21.7771 8.83319 21.8864 8.79894 22.0145C8.76469 22.1427 8.78275 22.2792 8.84914 22.394C8.91554 22.5088 9.02482 22.5926 9.15297 22.6268C9.48939 22.7167 9.83364 22.7911 10.1762 22.8483C10.2409 22.8591 10.3072 22.857 10.3711 22.8422C10.4351 22.8274 10.4955 22.8002 10.549 22.762C10.6024 22.7239 10.6478 22.6755 10.6826 22.6198C10.7173 22.5641 10.7408 22.5021 10.7516 22.4374C10.7624 22.3726 10.7603 22.3064 10.7455 22.2424C10.7307 22.1784 10.7035 22.118 10.6653 22.0646C10.6272 22.0111 10.5789 21.9657 10.5232 21.931C10.4675 21.8962 10.4055 21.8727 10.3407 21.8619V21.8621Z" fill="#20282D"/>
<path d="M22.5091 11.7589C22.3766 11.7557 22.2482 11.8053 22.1521 11.8967C22.0561 11.9881 22.0003 12.1139 21.9969 12.2464C21.9889 12.5626 21.966 12.8819 21.9283 13.1959C21.9126 13.3276 21.9499 13.4601 22.0319 13.5643C22.1139 13.6686 22.2339 13.736 22.3656 13.7518C22.3855 13.754 22.4055 13.7552 22.4256 13.7552C22.5478 13.755 22.6657 13.7101 22.7571 13.6289C22.8484 13.5477 22.9069 13.4359 22.9215 13.3146C22.9625 12.9696 22.9879 12.6188 22.9965 12.2714C22.9981 12.2057 22.9868 12.1404 22.9633 12.0791C22.9397 12.0178 22.9042 11.9618 22.859 11.9142C22.8137 11.8666 22.7595 11.8284 22.6995 11.8018C22.6395 11.7751 22.5748 11.7606 22.5091 11.7589Z" fill="#20282D"/>
<path d="M20.9743 17.4781C20.8645 17.4037 20.7298 17.3759 20.5996 17.4007C20.4693 17.4256 20.3543 17.5011 20.2797 17.6106C20.1019 17.8721 19.9098 18.1282 19.7081 18.3716C19.6653 18.422 19.6328 18.4805 19.6127 18.5435C19.5926 18.6066 19.5852 18.673 19.591 18.739C19.5968 18.8049 19.6156 18.8691 19.6464 18.9277C19.6771 18.9863 19.7192 19.0382 19.7702 19.0804C19.8212 19.1226 19.8801 19.1543 19.9434 19.1736C20.0067 19.1928 20.0732 19.1994 20.1391 19.1927C20.2049 19.1861 20.2688 19.1664 20.327 19.1349C20.3852 19.1034 20.4366 19.0606 20.4781 19.0091C20.6998 18.7415 20.9115 18.46 21.1068 18.1724C21.1437 18.1181 21.1695 18.0571 21.1828 17.9928C21.1961 17.9285 21.1967 17.8623 21.1843 17.7978C21.172 17.7333 21.1472 17.6719 21.1111 17.617C21.0751 17.5622 21.0286 17.515 20.9743 17.4781Z" fill="#20282D"/>
<path d="M21.6632 9.42042C21.7443 9.72488 21.8117 10.0376 21.8637 10.3501C21.883 10.4668 21.9432 10.5729 22.0334 10.6495C22.1236 10.726 22.238 10.7681 22.3563 10.7683C22.3839 10.7683 22.4114 10.766 22.4386 10.7615C22.5034 10.7507 22.5654 10.7273 22.6212 10.6926C22.6769 10.6579 22.7252 10.6125 22.7634 10.5591C22.8017 10.5057 22.829 10.4453 22.8438 10.3813C22.8586 10.3173 22.8607 10.2511 22.85 10.1863C22.7931 9.84253 22.7187 9.49814 22.6297 9.16308C22.5955 9.03494 22.5119 8.9256 22.3972 8.85912C22.2824 8.79264 22.146 8.77446 22.0178 8.80859C21.8897 8.84272 21.7803 8.92635 21.7139 9.04109C21.6474 9.15583 21.6292 9.29228 21.6633 9.42042H21.6632Z" fill="#20282D"/>
<path d="M18.3629 19.7151C18.1185 19.9173 17.8625 20.1094 17.602 20.2859C17.5476 20.3227 17.5011 20.3699 17.465 20.4247C17.4289 20.4796 17.4039 20.541 17.3915 20.6054C17.3792 20.6699 17.3796 20.7362 17.3928 20.8005C17.4061 20.8648 17.4319 20.9259 17.4687 20.9802C17.5055 21.0346 17.5527 21.0811 17.6075 21.1172C17.6624 21.1533 17.7238 21.1783 17.7883 21.1907C17.8527 21.203 17.919 21.2026 17.9833 21.1894C18.0476 21.1761 18.1087 21.1503 18.163 21.1135C18.4497 20.9194 18.7312 20.7082 19.0002 20.4861C19.1024 20.4016 19.1669 20.2799 19.1794 20.1479C19.192 20.0158 19.1516 19.8842 19.0671 19.782C18.9826 19.6797 18.8609 19.6153 18.7289 19.6027C18.5968 19.5902 18.4652 19.6306 18.3629 19.7151Z" fill="#20282D"/>
<path d="M22.1522 14.7288C22.0259 14.6887 21.8888 14.7003 21.7711 14.7611C21.6533 14.822 21.5645 14.927 21.5241 15.0533C21.4284 15.3533 21.3166 15.6529 21.1918 15.9441C21.1645 16.0047 21.1496 16.0701 21.1479 16.1364C21.1461 16.2028 21.1577 16.2689 21.1818 16.3308C21.2058 16.3927 21.242 16.4491 21.2882 16.4969C21.3343 16.5446 21.3895 16.5827 21.4506 16.6089C21.5116 16.6351 21.5773 16.6488 21.6437 16.6493C21.7101 16.6499 21.7759 16.6372 21.8374 16.612C21.8988 16.5868 21.9546 16.5496 22.0015 16.5025C22.0484 16.4555 22.0855 16.3997 22.1106 16.3382C22.2483 16.0176 22.3713 15.6873 22.4765 15.357C22.4965 15.2944 22.504 15.2286 22.4985 15.1631C22.493 15.0977 22.4747 15.034 22.4446 14.9757C22.4144 14.9173 22.3731 14.8655 22.323 14.8231C22.2728 14.7808 22.2148 14.7487 22.1522 14.7288Z" fill="#20282D"/>
<path d="M15.9345 21.196C15.6462 21.3195 15.3464 21.4311 15.0434 21.5278C14.9808 21.5477 14.9228 21.5798 14.8727 21.6222C14.8225 21.6645 14.7812 21.7164 14.7511 21.7747C14.7209 21.833 14.7026 21.8967 14.6971 21.9621C14.6916 22.0276 14.699 22.0934 14.7189 22.156C14.7389 22.2185 14.7709 22.2765 14.8133 22.3267C14.8557 22.3769 14.9075 22.4182 14.9658 22.4483C15.0242 22.4784 15.0878 22.4968 15.1533 22.5023C15.2187 22.5078 15.2846 22.5004 15.3471 22.4804C15.6803 22.3742 16.0104 22.2515 16.3281 22.1155C16.45 22.0633 16.5462 21.9647 16.5955 21.8416C16.6448 21.7185 16.6431 21.5808 16.5909 21.4589C16.5387 21.3369 16.4402 21.2408 16.317 21.1915C16.1939 21.1422 16.0562 21.1438 15.9343 21.196H15.9345Z" fill="#20282D"/>
<path d="M7.77152 10.9785C7.77152 10.1591 7.23269 9.50244 6.39873 9.30556C5.94059 9.19705 5.4592 9.24704 5.03312 9.44737C4.60705 9.64769 4.26147 9.98653 4.05278 10.4086C3.99435 10.5271 3.9852 10.6639 4.02733 10.7892C4.06946 10.9144 4.15946 11.0179 4.27765 11.077C4.39583 11.1361 4.53261 11.146 4.65809 11.1046C4.78356 11.0631 4.88754 10.9737 4.9473 10.8559C5.05405 10.6343 5.23362 10.4561 5.45598 10.3511C5.67835 10.2461 5.93003 10.2206 6.16895 10.2788C6.31033 10.3122 6.77148 10.4613 6.77148 10.9785C6.77148 11.5 6.16919 11.9022 5.5315 12.3282C4.81347 12.8074 4 13.3506 4 14.25C4 14.3826 4.05268 14.5098 4.14645 14.6036C4.24022 14.6974 4.3674 14.75 4.50002 14.75H7.2715C7.33757 14.7507 7.40311 14.7382 7.46433 14.7134C7.52555 14.6885 7.58125 14.6518 7.62819 14.6053C7.67513 14.5588 7.7124 14.5035 7.73783 14.4425C7.76326 14.3815 7.77636 14.3161 7.77636 14.2501C7.77636 14.184 7.76326 14.1186 7.73783 14.0576C7.7124 13.9966 7.67513 13.9413 7.62819 13.8948C7.58125 13.8483 7.52555 13.8116 7.46433 13.7867C7.40311 13.7619 7.33757 13.7494 7.2715 13.7501H5.29056C5.50005 13.5516 5.79616 13.3538 6.08669 13.1597C6.87658 12.6324 7.77152 12.0347 7.77152 10.9785Z" fill="#20282D"/>
<path d="M12.5001 12.625C12.5001 12.4924 12.4474 12.3652 12.3537 12.2714C12.2599 12.1777 12.1327 12.125 12.0001 12.125H11.5938V9.46873C11.5938 9.36517 11.5617 9.26418 11.5018 9.17969C11.4419 9.0952 11.3573 9.03138 11.2596 8.99704C11.1619 8.9627 11.056 8.95954 10.9564 8.988C10.8568 9.01645 10.7685 9.07511 10.7037 9.15588L8.17249 12.3123C8.1136 12.3858 8.07668 12.4745 8.06598 12.5681C8.05528 12.6617 8.07123 12.7564 8.112 12.8413C8.15277 12.9262 8.2167 12.9979 8.29642 13.0481C8.37615 13.0983 8.46842 13.1249 8.56263 13.125H10.5939V14.5312C10.5932 14.5973 10.6057 14.6628 10.6305 14.7241C10.6554 14.7853 10.6921 14.841 10.7386 14.8879C10.7851 14.9349 10.8404 14.9721 10.9014 14.9976C10.9624 15.023 11.0278 15.0361 11.0939 15.0361C11.1599 15.0361 11.2253 15.023 11.2863 14.9976C11.3473 14.9721 11.4026 14.9349 11.4491 14.8879C11.4956 14.841 11.5323 14.7853 11.5572 14.7241C11.582 14.6628 11.5945 14.5973 11.5938 14.5312V13.125H12.0001C12.1327 13.125 12.2599 13.0723 12.3537 12.9785C12.4474 12.8848 12.5001 12.7576 12.5001 12.625ZM10.5939 12.125H9.6048L10.5939 10.8913V12.125Z" fill="#20282D"/>
<path d="M15.059 8.69727C14.9946 8.68425 14.9283 8.68408 14.8638 8.69677C14.7994 8.70945 14.7381 8.73473 14.6834 8.77117C14.6287 8.80761 14.5818 8.85449 14.5453 8.90911C14.5088 8.96373 14.4834 9.02502 14.4707 9.08947L13.3457 14.7145C13.3196 14.8445 13.3463 14.9795 13.4199 15.0899C13.4934 15.2002 13.6078 15.2768 13.7378 15.3028C13.7702 15.3093 13.8032 15.3126 13.8362 15.3126C13.9517 15.3125 14.0636 15.2724 14.1528 15.1991C14.2421 15.1259 14.3033 15.024 14.326 14.9107L15.451 9.28573C15.4639 9.22136 15.464 9.15507 15.4513 9.09065C15.4386 9.02623 15.4133 8.96494 15.3769 8.91029C15.3405 8.85564 15.2937 8.8087 15.2392 8.77215C15.1846 8.7356 15.1234 8.71015 15.059 8.69727Z" fill="#20282D"/>
<path d="M17.6248 14.7503C17.7236 14.7502 17.8201 14.7209 17.9022 14.6662C17.9844 14.6114 18.0485 14.5335 18.0865 14.4424L19.9615 9.94239C19.9932 9.86641 20.0057 9.78378 19.9977 9.70184C19.9898 9.61989 19.9618 9.54117 19.9161 9.47266C19.8705 9.40415 19.8086 9.34798 19.736 9.30914C19.6634 9.27029 19.5824 9.24998 19.5001 9.25H16.9688C16.837 9.25128 16.7111 9.30452 16.6184 9.39814C16.5257 9.49177 16.4736 9.61822 16.4736 9.74999C16.4736 9.88177 16.5257 10.0082 16.6184 10.1018C16.7111 10.1955 16.837 10.2487 16.9688 10.25H18.7501L17.1636 14.0578C17.1321 14.1338 17.1197 14.2164 17.1277 14.2983C17.1356 14.3802 17.1637 14.4588 17.2093 14.5273C17.2549 14.5958 17.3166 14.652 17.3891 14.6909C17.4616 14.7298 17.5426 14.7503 17.6248 14.7505V14.7503Z" fill="#20282D"/>
</svg>
