<svg width="161" height="44" viewBox="0 0 161 44" fill="none" xmlns="http://www.w3.org/2000/svg">
<path d="M64.4682 40.673C63.8598 40.673 63.3102 40.5758 62.8195 40.3815C62.3327 40.1835 61.9304 39.9029 61.6124 39.5399C61.2983 39.1732 61.0942 38.7386 61 38.2362L62.2837 38.0547C62.4132 38.5387 62.6841 38.9165 63.0962 39.1878C63.5084 39.4555 63.9893 39.5894 64.5389 39.5894C64.8804 39.5894 65.1945 39.5399 65.481 39.4409C65.7676 39.3382 65.9972 39.1933 66.17 39.0063C66.3466 38.8156 66.4349 38.5882 66.4349 38.3242C66.4349 38.1812 66.4075 38.0547 66.3525 37.9446C66.3015 37.8346 66.2288 37.7393 66.1346 37.6586C66.0443 37.5743 65.9325 37.5028 65.799 37.4441C65.6695 37.3817 65.5262 37.3286 65.3692 37.2846L63.1964 36.685C62.9844 36.6263 62.7685 36.5511 62.5486 36.4594C62.3288 36.3641 62.1266 36.2412 61.9421 36.0909C61.7616 35.9369 61.6144 35.748 61.5005 35.5243C61.3867 35.2969 61.3297 35.0219 61.3297 34.6992C61.3297 34.2115 61.4632 33.7989 61.7302 33.4615C62.001 33.1205 62.3661 32.8638 62.8254 32.6914C63.2847 32.5154 63.7989 32.4274 64.3681 32.4274C64.9413 32.4347 65.4535 32.5301 65.905 32.7134C66.3604 32.8968 66.7372 33.1608 67.0356 33.5055C67.3378 33.8466 67.5459 34.261 67.6597 34.7487L66.3407 34.9577C66.2818 34.6607 66.1562 34.4058 65.9639 34.1931C65.7715 33.9768 65.536 33.8117 65.2573 33.6981C64.9786 33.5807 64.6763 33.5202 64.3505 33.5165C64.0364 33.5092 63.7479 33.5532 63.4849 33.6485C63.2258 33.7439 63.0177 33.8777 62.8607 34.0501C62.7076 34.2225 62.6311 34.4205 62.6311 34.6442C62.6311 34.8642 62.6998 35.0421 62.8372 35.1778C62.9746 35.3134 63.1434 35.4216 63.3436 35.5023C63.5477 35.5793 63.7499 35.6435 63.9501 35.6948L65.5164 36.1074C65.7126 36.1587 65.9344 36.2284 66.1817 36.3164C66.433 36.4008 66.6744 36.5199 66.906 36.674C67.1415 36.828 67.3359 37.0334 67.489 37.2901C67.6421 37.5431 67.7186 37.8621 67.7186 38.2472C67.7186 38.6469 67.6322 38.999 67.4595 39.3033C67.2868 39.604 67.0493 39.8571 66.747 40.0624C66.4487 40.2641 66.1032 40.4163 65.7107 40.519C65.3181 40.6217 64.904 40.673 64.4682 40.673Z" fill="#74787C"/>
<path d="M68.9735 40.508V32.5869H70.0864L73.1601 38.5442L76.2161 32.5869H77.3408V40.5025H76.1749V35.0842L73.4368 40.508H72.8774L70.1335 35.0842V40.508H68.9735Z" fill="#74787C"/>
<path d="M78.4017 40.508L81.1575 32.5869H82.9298L85.6856 40.508H84.4078L81.8699 33.28H82.1879L79.6795 40.508H78.4017ZM79.8326 38.7203V37.6421H84.2606V38.7203H79.8326Z" fill="#74787C"/>
<path d="M86.742 40.508V32.5869H90.169C90.2514 32.5869 90.3535 32.5906 90.4752 32.5979C90.5969 32.6016 90.7127 32.6126 90.8226 32.6309C91.2937 32.7006 91.6862 32.8509 92.0003 33.082C92.3183 33.313 92.5557 33.6045 92.7128 33.9566C92.8698 34.3086 92.9483 34.6974 92.9483 35.1228C92.9483 35.7535 92.7756 36.2981 92.4301 36.7565C92.0847 37.2112 91.5665 37.4954 90.8756 37.6091L90.3751 37.6641H87.9727V40.508H86.742ZM91.7 40.508L90.0277 37.2846L91.2701 36.9875L93.1073 40.508H91.7ZM87.9727 36.575H90.1219C90.2004 36.575 90.2868 36.5713 90.381 36.564C90.4791 36.5566 90.5714 36.5438 90.6577 36.5254C90.909 36.4704 91.1111 36.3696 91.2642 36.2229C91.4173 36.0726 91.5273 35.9002 91.594 35.7058C91.6607 35.5115 91.6941 35.3171 91.6941 35.1228C91.6941 34.9284 91.6607 34.7359 91.594 34.5452C91.5273 34.3508 91.4173 34.1803 91.2642 34.0336C91.1111 33.8832 90.909 33.7806 90.6577 33.7256C90.5714 33.7036 90.4791 33.6889 90.381 33.6816C90.2868 33.6742 90.2004 33.6705 90.1219 33.6705H87.9727V36.575Z" fill="#74787C"/>
<path d="M96.5154 40.508V33.6705H93.6948V32.5869H100.567V33.6705H97.746V40.508H96.5154Z" fill="#74787C"/>
<path d="M106.584 40.673C105.975 40.673 105.426 40.5758 104.935 40.3815C104.448 40.1835 104.046 39.9029 103.728 39.5399C103.414 39.1732 103.21 38.7386 103.115 38.2362L104.399 38.0547C104.529 38.5387 104.8 38.9165 105.212 39.1878C105.624 39.4555 106.105 39.5894 106.654 39.5894C106.996 39.5894 107.31 39.5399 107.596 39.4409C107.883 39.3382 108.113 39.1933 108.285 39.0063C108.462 38.8156 108.55 38.5882 108.55 38.3242C108.55 38.1812 108.523 38.0547 108.468 37.9446C108.417 37.8346 108.344 37.7393 108.25 37.6586C108.16 37.5743 108.048 37.5028 107.914 37.4441C107.785 37.3817 107.642 37.3286 107.485 37.2846L105.312 36.685C105.1 36.6263 104.884 36.5511 104.664 36.4594C104.444 36.3641 104.242 36.2412 104.058 36.0909C103.877 35.9369 103.73 35.748 103.616 35.5243C103.502 35.2969 103.445 35.0219 103.445 34.6992C103.445 34.2115 103.579 33.7989 103.846 33.4615C104.116 33.1205 104.482 32.8638 104.941 32.6914C105.4 32.5154 105.914 32.4274 106.484 32.4274C107.057 32.4347 107.569 32.5301 108.02 32.7134C108.476 32.8968 108.853 33.1608 109.151 33.5055C109.453 33.8466 109.661 34.261 109.775 34.7487L108.456 34.9577C108.397 34.6607 108.272 34.4058 108.079 34.1931C107.887 33.9768 107.651 33.8117 107.373 33.6981C107.094 33.5807 106.792 33.5202 106.466 33.5165C106.152 33.5092 105.863 33.5532 105.6 33.6485C105.341 33.7439 105.133 33.8777 104.976 34.0501C104.823 34.2225 104.747 34.4205 104.747 34.6442C104.747 34.8642 104.815 35.0421 104.953 35.1778C105.09 35.3134 105.259 35.4216 105.459 35.5023C105.663 35.5793 105.865 35.6435 106.066 35.6948L107.632 36.1074C107.828 36.1587 108.05 36.2284 108.297 36.3164C108.548 36.4008 108.79 36.5199 109.021 36.674C109.257 36.828 109.451 37.0334 109.604 37.2901C109.757 37.5431 109.834 37.8621 109.834 38.2472C109.834 38.6469 109.748 38.999 109.575 39.3033C109.402 39.604 109.165 39.8571 108.862 40.0624C108.564 40.2641 108.219 40.4163 107.826 40.519C107.434 40.6217 107.019 40.673 106.584 40.673Z" fill="#74787C"/>
<path d="M114.628 40.673C113.78 40.673 113.058 40.5007 112.461 40.156C111.864 39.8076 111.407 39.3235 111.089 38.7038C110.775 38.084 110.618 37.3652 110.618 36.5475C110.618 35.7297 110.775 35.0109 111.089 34.3912C111.407 33.7714 111.864 33.2892 112.461 32.9444C113.058 32.5961 113.78 32.4219 114.628 32.4219C115.472 32.4219 116.192 32.5961 116.789 32.9444C117.389 33.2892 117.847 33.7714 118.161 34.3912C118.475 35.0109 118.632 35.7297 118.632 36.5475C118.632 37.3652 118.475 38.084 118.161 38.7038C117.847 39.3235 117.389 39.8076 116.789 40.156C116.192 40.5007 115.472 40.673 114.628 40.673ZM114.628 39.5784C115.228 39.5857 115.727 39.4629 116.123 39.2098C116.524 38.9531 116.824 38.5974 117.024 38.1427C117.225 37.6843 117.325 37.1525 117.325 36.5475C117.325 35.9424 117.225 35.4143 117.024 34.9632C116.824 34.5085 116.524 34.1546 116.123 33.9016C115.727 33.6485 115.228 33.5202 114.628 33.5165C114.027 33.5092 113.527 33.632 113.126 33.8851C112.73 34.1381 112.431 34.4938 112.231 34.9522C112.031 35.4106 111.929 35.9424 111.925 36.5475C111.921 37.1525 112.019 37.6824 112.219 38.1372C112.42 38.5882 112.72 38.9403 113.12 39.1933C113.525 39.4464 114.027 39.5747 114.628 39.5784Z" fill="#74787C"/>
<path d="M119.924 40.508V32.5869H121.155V39.4244H124.994V40.508H119.924Z" fill="#74787C"/>
<path d="M129.374 40.673C128.71 40.673 128.123 40.5465 127.613 40.2935C127.107 40.0368 126.71 39.6792 126.424 39.2208C126.137 38.7588 125.994 38.216 125.994 37.5926V32.5924L127.242 32.5869V37.5321C127.242 37.8695 127.303 38.1665 127.425 38.4232C127.546 38.6799 127.709 38.8944 127.913 39.0668C128.118 39.2392 128.345 39.3693 128.596 39.4574C128.852 39.5454 129.111 39.5894 129.374 39.5894C129.641 39.5894 129.9 39.5454 130.151 39.4574C130.406 39.3657 130.636 39.2337 130.84 39.0613C131.044 38.8889 131.205 38.6744 131.323 38.4177C131.444 38.161 131.505 37.8658 131.505 37.5321V32.5869H132.754V37.5926C132.754 38.2124 132.61 38.7533 132.324 39.2153C132.037 39.6774 131.639 40.0368 131.128 40.2935C130.622 40.5465 130.037 40.673 129.374 40.673Z" fill="#74787C"/>
<path d="M136.515 40.508V33.6705H133.694V32.5869H140.566V33.6705H137.745V40.508H136.515Z" fill="#74787C"/>
<path d="M141.626 40.508V32.5869H142.857V40.508H141.626Z" fill="#74787C"/>
<path d="M148.164 40.673C147.316 40.673 146.594 40.5007 145.997 40.156C145.4 39.8076 144.943 39.3235 144.625 38.7038C144.311 38.084 144.154 37.3652 144.154 36.5475C144.154 35.7297 144.311 35.0109 144.625 34.3912C144.943 33.7714 145.4 33.2892 145.997 32.9444C146.594 32.5961 147.316 32.4219 148.164 32.4219C149.008 32.4219 149.728 32.5961 150.325 32.9444C150.925 33.2892 151.383 33.7714 151.697 34.3912C152.011 35.0109 152.168 35.7297 152.168 36.5475C152.168 37.3652 152.011 38.084 151.697 38.7038C151.383 39.3235 150.925 39.8076 150.325 40.156C149.728 40.5007 149.008 40.673 148.164 40.673ZM148.164 39.5784C148.764 39.5857 149.263 39.4629 149.659 39.2098C150.06 38.9531 150.36 38.5974 150.56 38.1427C150.761 37.6843 150.861 37.1525 150.861 36.5475C150.861 35.9424 150.761 35.4143 150.56 34.9632C150.36 34.5085 150.06 34.1546 149.659 33.9016C149.263 33.6485 148.764 33.5202 148.164 33.5165C147.563 33.5092 147.063 33.632 146.662 33.8851C146.266 34.1381 145.967 34.4938 145.767 34.9522C145.567 35.4106 145.465 35.9424 145.461 36.5475C145.457 37.1525 145.555 37.6824 145.755 38.1372C145.956 38.5882 146.256 38.9403 146.656 39.1933C147.061 39.4464 147.563 39.5747 148.164 39.5784Z" fill="#74787C"/>
<path d="M153.342 40.508V32.5869H154.591L158.766 38.4727V32.5869H160.014V40.508H158.766L154.591 34.6167V40.508H153.342Z" fill="#74787C"/>
<path d="M70.9605 24.9709C69.6324 24.9709 68.3679 24.7366 67.1667 24.2679C65.9656 23.7894 64.9012 23.0864 63.9735 22.1587C63.0556 21.231 62.3281 20.0837 61.791 18.7166C61.2637 17.3496 61 15.7725 61 13.9856C61 11.6518 61.4443 9.66957 62.333 8.03886C63.2314 6.39838 64.4325 5.14849 65.9363 4.28919C67.4499 3.42989 69.1247 3.00024 70.9605 3.00024C73.6752 3.00024 75.8089 3.63007 77.3616 4.88972C78.9143 6.14938 79.9543 7.93145 80.4816 10.2359L76.4095 10.8218C76.0287 9.59146 75.4037 8.6101 74.5346 7.87774C73.6752 7.13562 72.5718 6.75968 71.2242 6.74991C69.8863 6.73038 68.7731 7.01844 67.8845 7.61409C66.9958 8.20974 66.3269 9.05439 65.8777 10.148C65.4383 11.2417 65.2186 12.5209 65.2186 13.9856C65.2186 15.4503 65.4383 16.7197 65.8777 17.7939C66.3269 18.868 66.9958 19.7029 67.8845 20.2985C68.7731 20.8942 69.8863 21.2018 71.2242 21.2213C72.1323 21.2408 72.9526 21.0846 73.685 20.7526C74.4272 20.4206 75.0521 19.8982 75.5599 19.1853C76.0677 18.4725 76.429 17.5595 76.6439 16.4463H73.3042V13.3704H80.8917C80.9113 13.4974 80.9259 13.7219 80.9357 14.0442C80.9454 14.3664 80.9503 14.552 80.9503 14.6008C80.9503 16.6221 80.5402 18.4139 79.7199 19.9763C78.8996 21.5386 77.7425 22.7641 76.2484 23.6527C74.7543 24.5315 72.9917 24.9709 70.9605 24.9709Z" fill="#141414"/>
<path d="M91.2393 24.9709C89.6182 24.9709 88.1876 24.6243 86.9475 23.931C85.717 23.2279 84.7503 22.2661 84.0472 21.0455C83.3539 19.8152 83.0072 18.409 83.0072 16.8271C83.0072 15.0988 83.349 13.595 84.0325 12.3158C84.7161 11.0366 85.6585 10.0455 86.8596 9.34245C88.0607 8.62963 89.4425 8.27321 91.0049 8.27321C92.665 8.27321 94.0761 8.6638 95.2381 9.44498C96.4002 10.2262 97.2595 11.3247 97.8161 12.7406C98.3728 14.1565 98.5681 15.8214 98.4021 17.7353H94.4618V16.2706C94.4618 14.6594 94.203 13.5022 93.6855 12.7992C93.1777 12.0864 92.3427 11.7299 91.1807 11.7299C89.8233 11.7299 88.8224 12.1449 88.1779 12.9749C87.5431 13.7952 87.2258 15.0109 87.2258 16.6221C87.2258 18.0966 87.5431 19.239 88.1779 20.0495C88.8224 20.8502 89.7647 21.2506 91.0049 21.2506C91.7861 21.2506 92.455 21.0797 93.0117 20.7379C93.5683 20.3962 93.9931 19.903 94.286 19.2586L98.2702 20.401C97.6745 21.8462 96.7322 22.9692 95.4432 23.7699C94.164 24.5706 92.7626 24.9709 91.2393 24.9709ZM85.9954 17.7353V14.7765H96.4832V17.7353H85.9954Z" fill="#141414"/>
<path d="M112.061 24.5315V17.0615C112.061 16.7002 112.042 16.2413 112.003 15.6847C111.963 15.1183 111.841 14.552 111.636 13.9856C111.431 13.4192 111.094 12.9456 110.626 12.5648C110.167 12.184 109.512 11.9936 108.663 11.9936C108.321 11.9936 107.955 12.0473 107.564 12.1547C107.174 12.2621 106.807 12.4721 106.466 12.7845C106.124 13.0872 105.841 13.5364 105.616 14.1321C105.401 14.7277 105.294 15.5187 105.294 16.5049L103.009 15.421C103.009 14.1711 103.263 12.9994 103.77 11.9057C104.278 10.8121 105.04 9.92834 106.056 9.25457C107.081 8.5808 108.37 8.24392 109.923 8.24392C111.163 8.24392 112.173 8.45386 112.955 8.87375C113.736 9.29363 114.341 9.82581 114.771 10.4703C115.21 11.1148 115.523 11.7885 115.708 12.4916C115.894 13.1849 116.006 13.8196 116.045 14.3957C116.084 14.9718 116.104 15.3917 116.104 15.6554V24.5315H112.061ZM101.251 24.5315V8.71263H104.796V13.9563H105.294V24.5315H101.251Z" fill="#141414"/>
<path d="M120.198 6.51556V3.00024H124.182V6.51556H120.198ZM120.198 24.5315V8.71263H124.182V24.5315H120.198Z" fill="#141414"/>
<path d="M134.462 25.0002C133.222 25.0002 132.211 24.7903 131.43 24.3704C130.648 23.9505 130.038 23.4184 129.599 22.7739C129.169 22.1294 128.861 21.4605 128.676 20.7672C128.49 20.0642 128.378 19.4246 128.339 18.8484C128.3 18.2723 128.28 17.8524 128.28 17.5888V8.71263H132.323V16.1827C132.323 16.544 132.343 17.0078 132.382 17.5741C132.421 18.1307 132.543 18.6922 132.748 19.2586C132.953 19.8249 133.285 20.2985 133.744 20.6793C134.213 21.0602 134.872 21.2506 135.721 21.2506C136.063 21.2506 136.429 21.1969 136.82 21.0895C137.211 20.982 137.577 20.777 137.919 20.4743C138.26 20.1618 138.539 19.7077 138.754 19.1121C138.978 18.5067 139.09 17.7157 139.09 16.7393L141.376 17.8231C141.376 19.073 141.122 20.2448 140.614 21.3385C140.106 22.4321 139.339 23.3158 138.314 23.9896C137.299 24.6634 136.014 25.0002 134.462 25.0002ZM139.589 24.5315V19.2879H139.09V8.71263H143.104V24.5315H139.589Z" fill="#141414"/>
<path d="M153.379 24.9709C151.387 24.9709 149.776 24.5218 148.545 23.6234C147.325 22.7153 146.583 21.4361 146.319 19.7859L150.391 19.1707C150.557 19.9128 150.923 20.4938 151.49 20.9137C152.066 21.3336 152.793 21.5435 153.672 21.5435C154.395 21.5435 154.951 21.4068 155.342 21.1334C155.733 20.8502 155.928 20.4596 155.928 19.9616C155.928 19.6492 155.85 19.4002 155.694 19.2146C155.537 19.0193 155.186 18.8289 154.639 18.6434C154.102 18.4579 153.262 18.2137 152.119 17.911C150.83 17.579 149.8 17.208 149.029 16.7978C148.257 16.3877 147.701 15.8995 147.359 15.3331C147.017 14.757 146.846 14.0637 146.846 13.2532C146.846 12.2377 147.105 11.3589 147.623 10.6168C148.14 9.86487 148.868 9.28875 149.805 8.88839C150.752 8.47827 151.866 8.27321 153.145 8.27321C154.385 8.27321 155.484 8.46363 156.441 8.84445C157.398 9.22528 158.169 9.76722 158.755 10.4703C159.351 11.1733 159.717 12.0034 159.854 12.9603L155.781 13.6927C155.713 13.1068 155.459 12.6429 155.02 12.3012C154.58 11.9594 153.985 11.7592 153.233 11.7006C152.5 11.6518 151.91 11.7495 151.46 11.9936C151.021 12.2377 150.801 12.5892 150.801 13.0482C150.801 13.3216 150.894 13.5511 151.079 13.7366C151.275 13.9221 151.67 14.1125 152.266 14.3078C152.871 14.5031 153.789 14.757 155.02 15.0695C156.221 15.382 157.183 15.7481 157.905 16.168C158.638 16.5781 159.17 17.0761 159.502 17.662C159.834 18.2381 160 18.9363 160 19.7566C160 21.3775 159.414 22.6518 158.242 23.5795C157.07 24.5071 155.449 24.9709 153.379 24.9709Z" fill="#141414"/>
<path d="M41.4198 12.1362C38.4626 8.97561 34.2781 7.375 28.9699 7.375H26.4377C26.9253 9.20586 27.1554 11.0957 27.1216 12.9901C27.1216 13.2008 27.1216 13.4041 27.1216 13.6111H28.9699C32.5296 13.6111 35.1135 14.5204 36.862 16.3946C38.6105 18.2687 39.5494 21.4367 39.5494 25.7173C39.5494 29.9979 38.6511 33.0624 36.8768 34.9402C35.1024 36.8181 32.537 37.6905 28.9699 37.6905H24.8371C21.2662 37.6905 18.6786 36.7922 16.9302 34.9365C15.1817 33.0808 14.2908 30.0718 14.2576 25.9465H11.5184C10.3427 25.953 9.16987 25.829 8.02148 25.5768C8.02148 25.6212 8.02148 25.6656 8.02148 25.7099C8.02148 31.6022 9.5001 36.1453 12.4019 39.2171C15.3037 42.289 19.5363 43.9191 24.8408 43.9191H28.9736C34.2744 43.9191 38.4589 42.337 41.4125 39.2171C44.366 36.0972 45.7855 31.6059 45.7855 25.721C45.7855 19.8361 44.3179 15.2376 41.4198 12.1362Z" fill="url(#paint0_linear_3096_231)"/>
<path d="M27.1138 13.6099C27.0288 17.5764 26.1305 20.5077 24.3636 22.5519C22.4192 24.8031 19.4878 25.9453 15.6471 25.9453H14.2572C14.2572 25.8677 14.2572 25.7938 14.2572 25.7162C14.2099 23.6826 14.4831 21.6542 15.0667 19.7056C15.4415 18.474 16.0797 17.3388 16.9372 16.3787C18.0015 15.2621 19.3578 14.4668 20.8518 14.0831C22.1494 13.7407 23.4875 13.5766 24.8293 13.5952L27.1138 13.6099Z" fill="url(#paint1_linear_3096_231)"/>
<path d="M26.4341 7.37093H24.8335C23.191 7.3614 21.5527 7.53874 19.9503 7.89954C17.0578 8.51428 14.4195 9.9913 12.3835 12.1358C10.6424 14.0026 9.42622 16.4016 8.72018 19.3071C8.24518 21.3678 8.01072 23.4766 8.02153 25.5912C5.9768 25.1911 4.11909 24.133 2.73176 22.5786C0.883482 20.4456 0 17.3258 0 13.0378C0 8.74975 0.898264 5.5818 2.75024 3.42671C4.69463 1.15333 7.64449 0 11.5185 0H15.6475C19.5289 0 22.4751 1.15702 24.4084 3.4378C25.3552 4.59013 26.0458 5.93092 26.4341 7.37093Z" fill="url(#paint2_linear_3096_231)"/>
<defs>
<linearGradient id="paint0_linear_3096_231" x1="16.7712" y1="15.5407" x2="44.5508" y2="43.3166" gradientUnits="userSpaceOnUse">
<stop stop-color="#221ECA"/>
<stop offset="1" stop-color="#6461DA"/>
</linearGradient>
<linearGradient id="paint1_linear_3096_231" x1="7.38528" y1="4.09134" x2="20.8222" y2="19.9385" gradientUnits="userSpaceOnUse">
<stop stop-color="#93D8DE"/>
<stop offset="1" stop-color="#65C8D0"/>
</linearGradient>
<linearGradient id="paint2_linear_3096_231" x1="6.58726" y1="4.76856" x2="20.0242" y2="20.6157" gradientUnits="userSpaceOnUse">
<stop stop-color="#93D8DE"/>
<stop offset="1" stop-color="#65C8D0"/>
</linearGradient>
</defs>
</svg>
