<svg width="75" height="75" viewBox="0 0 75 75" fill="none" xmlns="http://www.w3.org/2000/svg">
<circle cx="37.5" cy="37.5" r="37.5" fill="#F2F2F2"/>
<path d="M54.7158 41.3741L54.7076 41.3607C54.3341 40.792 53.764 40.3811 53.1064 40.2067C52.4488 40.0322 51.75 40.1064 51.1437 40.4151L47.406 42.3272C46.9586 41.6984 46.3 41.2515 45.5504 41.0679C44.8008 40.8844 44.0103 40.9765 43.323 41.3274L38.6164 43.7399C38.3707 43.8661 38.0981 43.9311 37.8219 43.9294C37.5457 43.9277 37.274 43.8593 37.0298 43.73L33.8217 42.0268C32.6077 41.3787 31.2377 41.0796 29.864 41.1628C28.4903 41.246 27.1665 41.7082 26.0395 42.4981L25.6767 40.7704C25.6609 40.6952 25.6304 40.6238 25.5869 40.5605C25.5435 40.4971 25.4879 40.4429 25.4235 40.4011C25.359 40.3592 25.287 40.3305 25.2114 40.3166C25.1358 40.3027 25.0583 40.3039 24.9831 40.3201L20.4603 41.2959C20.3097 41.3284 20.1781 41.4191 20.0942 41.5483C20.0103 41.6775 19.9808 41.8346 20.0123 41.9854L22.6459 54.5337C22.6727 54.6653 22.7442 54.7835 22.8481 54.8685C22.952 54.9535 23.0821 55.0001 23.2163 55.0003C23.2575 55.0002 23.2985 54.9959 23.3388 54.9875L27.864 54.0134C28.0148 53.9811 28.1467 53.8903 28.2307 53.761C28.3148 53.6317 28.3442 53.4743 28.3126 53.3234L28.0792 52.2L29.6255 51.8675C30.0761 51.7714 30.5397 51.7537 30.9963 51.815L38.2693 52.6123C39.7793 52.8124 41.3102 52.453 42.5734 51.6021L54.2235 43.786C54.6045 43.528 54.8693 43.1312 54.9613 42.6804C55.0533 42.2296 54.9652 41.7607 54.7158 41.3741ZM23.6672 53.7206L21.2728 42.3143L24.6559 41.5852L27.0521 52.9921L23.6672 53.7206ZM53.5743 42.8189L41.9248 50.635C40.8914 51.3274 39.6404 51.6179 38.4076 51.4516L31.1351 50.6542C30.5498 50.5759 29.9554 50.5996 29.3782 50.7242L27.8372 51.0555L26.2996 43.7399L26.698 43.4623C27.6494 42.7931 28.7678 42.401 29.9288 42.3295C31.0897 42.258 32.2477 42.51 33.274 43.0575L36.4821 44.7607C36.892 44.9787 37.3485 45.0942 37.8127 45.0974C38.2769 45.1005 38.735 44.9912 39.1478 44.7787L43.8567 42.3633C44.3272 42.1228 44.8722 42.0721 45.379 42.2217C45.8859 42.3713 46.316 42.7097 46.5806 43.1671C46.6587 43.301 46.6807 43.4602 46.6421 43.6103C46.6034 43.7603 46.5071 43.889 46.3742 43.9686L39.8845 47.8183C38.7497 48.4957 37.3974 48.7099 36.1088 48.4161L30.2549 47.0162L29.9837 48.1513L35.8434 49.5512C37.4251 49.9136 39.0855 49.6522 40.4794 48.8215L46.9697 44.9718C47.2354 44.8122 47.4539 44.5849 47.603 44.3131C47.752 44.0413 47.8261 43.7348 47.8178 43.4249L51.6728 41.4522C52.0219 41.275 52.424 41.2322 52.8026 41.3321C53.1812 41.432 53.5098 41.6676 53.726 41.9941L53.7324 42.0046C53.8163 42.1345 53.8468 42.2918 53.8173 42.4436C53.7878 42.5954 53.7007 42.7299 53.5743 42.8189Z" fill="#20282D"/>
<path d="M23.7745 42.9729L22.6328 43.2124L22.8721 44.353L24.0138 44.1135L23.7745 42.9729Z" fill="#20282D"/>
<path d="M31.0828 35.1665C30.9281 35.1665 30.7797 35.228 30.6704 35.3373C30.561 35.4467 30.4995 35.5951 30.4995 35.7498V39.2495C30.4995 39.4042 30.561 39.5526 30.6704 39.662C30.7797 39.7714 30.9281 39.8328 31.0828 39.8328H33.416C33.5707 39.8328 33.719 39.7714 33.8284 39.662C33.9378 39.5526 33.9993 39.4042 33.9993 39.2495V35.7498C33.9993 35.5951 33.9378 35.4467 33.8284 35.3373C33.719 35.228 33.5707 35.1665 33.416 35.1665H31.0828ZM32.8327 38.6662H31.6661V36.3331H32.8327V38.6662Z" fill="#20282D"/>
<path d="M36.3318 31.0815C36.1771 31.0815 36.0288 31.143 35.9194 31.2524C35.81 31.3618 35.7485 31.5101 35.7485 31.6648V39.2476C35.7485 39.4023 35.81 39.5507 35.9194 39.6601C36.0288 39.7695 36.1771 39.8309 36.3318 39.8309H38.665C38.8197 39.8309 38.9681 39.7695 39.0774 39.6601C39.1868 39.5507 39.2483 39.4023 39.2483 39.2476V31.6648C39.2483 31.5101 39.1868 31.3618 39.0774 31.2524C38.9681 31.143 38.8197 31.0815 38.665 31.0815H36.3318ZM38.0817 38.6643H36.9151V32.2481H38.0817V38.6643Z" fill="#20282D"/>
<path d="M41.5823 32.833C41.4276 32.833 41.2793 32.8945 41.1699 33.0038C41.0605 33.1132 40.999 33.2616 40.999 33.4163V39.2492C40.999 39.4039 41.0605 39.5523 41.1699 39.6617C41.2793 39.771 41.4276 39.8325 41.5823 39.8325H43.9155C44.0702 39.8325 44.2185 39.771 44.3279 39.6617C44.4373 39.5523 44.4988 39.4039 44.4988 39.2492V33.4163C44.4988 33.2616 44.4373 33.1132 44.3279 33.0038C44.2185 32.8945 44.0702 32.833 43.9155 32.833H41.5823ZM43.3322 38.6659H42.1656V33.9996H43.3322V38.6659Z" fill="#20282D"/>
<path d="M46.8313 29.9158C46.6766 29.9158 46.5283 29.9772 46.4189 30.0866C46.3095 30.196 46.248 30.3444 46.248 30.4991V39.2484C46.248 39.4031 46.3095 39.5515 46.4189 39.6609C46.5283 39.7703 46.6766 39.8317 46.8313 39.8317H49.1645C49.3192 39.8317 49.4676 39.7703 49.577 39.6609C49.6863 39.5515 49.7478 39.4031 49.7478 39.2484V30.4991C49.7478 30.3444 49.6863 30.196 49.577 30.0866C49.4676 29.9772 49.3192 29.9158 49.1645 29.9158H46.8313ZM48.5812 38.6651H47.4146V31.0824H48.5812V38.6651Z" fill="#20282D"/>
<path d="M31.0819 26.0744L34.7525 29.745C34.8619 29.8544 35.0102 29.9158 35.1649 29.9158C35.3196 29.9158 35.4679 29.8544 35.5773 29.745L42.1644 23.1579L47.0016 27.9952C47.111 28.1045 47.2594 28.1659 47.414 28.1659C47.5687 28.1659 47.717 28.1045 47.8264 27.9952L53.8302 21.9914V23.4997H54.9968V20.5833C54.9968 20.4286 54.9354 20.2802 54.826 20.1708C54.7166 20.0615 54.5682 20 54.4135 20H51.4971V21.1666H53.0055L47.414 26.758L42.5768 21.9208C42.4674 21.8114 42.3191 21.75 42.1644 21.75C42.0097 21.75 41.8614 21.8114 41.752 21.9208L35.1649 28.5079L31.4943 24.8372C31.3849 24.7279 31.2365 24.6665 31.0819 24.6665C30.9272 24.6665 30.7789 24.7279 30.6695 24.8372L22.5034 33.0033L23.3282 33.8281L31.0819 26.0744Z" fill="#20282D"/>
</svg>
