<svg width="75" height="75" viewBox="0 0 75 75" fill="none" xmlns="http://www.w3.org/2000/svg">
<circle cx="37.5" cy="37.5" r="37.5" fill="#F2F2F2"/>
<path d="M47.9167 55H28.0833C27.0007 54.9988 25.9629 54.5682 25.1973 53.8027C24.4318 53.0371 24.0012 51.9993 24 50.9167V24.0833C24.0012 23.0007 24.4318 21.9629 25.1973 21.1973C25.9629 20.4318 27.0007 20.0012 28.0833 20H47.9167C48.9993 20.0012 50.0371 20.4318 50.8027 21.1973C51.5682 21.9629 51.9988 23.0007 52 24.0833V50.9167C51.9988 51.9993 51.5682 53.0371 50.8027 53.8027C50.0371 54.5682 48.9993 54.9988 47.9167 55ZM28.0833 21.1667C27.3101 21.1676 26.5687 21.4752 26.022 22.022C25.4752 22.5687 25.1676 23.3101 25.1667 24.0833V50.9167C25.1676 51.6899 25.4752 52.4313 26.022 52.978C26.5687 53.5248 27.3101 53.8324 28.0833 53.8333H47.9167C48.6899 53.8324 49.4313 53.5248 49.978 52.978C50.5248 52.4313 50.8324 51.6899 50.8333 50.9167V24.0833C50.8324 23.3101 50.5248 22.5687 49.978 22.022C49.4313 21.4752 48.6899 21.1676 47.9167 21.1667H28.0833Z" fill="#20282D"/>
<path d="M39.75 52.6676H36.25C35.7859 52.6676 35.3408 52.4832 35.0126 52.155C34.6844 51.8268 34.5 51.3817 34.5 50.9176V48.5842C34.5 48.1201 34.6844 47.675 35.0126 47.3468C35.3408 47.0186 35.7859 46.8342 36.25 46.8342H39.75C40.2141 46.8342 40.6592 47.0186 40.9874 47.3468C41.3156 47.675 41.5 48.1201 41.5 48.5842V50.9176C41.5 51.3817 41.3156 51.8268 40.9874 52.155C40.6592 52.4832 40.2141 52.6676 39.75 52.6676ZM36.25 48.0009C36.0953 48.0009 35.9469 48.0624 35.8375 48.1717C35.7281 48.2811 35.6667 48.4295 35.6667 48.5842V50.9176C35.6667 51.0723 35.7281 51.2206 35.8375 51.33C35.9469 51.4394 36.0953 51.5009 36.25 51.5009H39.75C39.9047 51.5009 40.0531 51.4394 40.1625 51.33C40.2719 51.2206 40.3333 51.0723 40.3333 50.9176V48.5842C40.3333 48.4295 40.2719 48.2811 40.1625 48.1717C40.0531 48.0624 39.9047 48.0009 39.75 48.0009H36.25Z" fill="#20282D"/>
<path d="M31.584 52.6676H28.084C27.6199 52.6676 27.1747 52.4832 26.8465 52.155C26.5184 51.8268 26.334 51.3817 26.334 50.9176V48.5842C26.334 48.1201 26.5184 47.675 26.8465 47.3468C27.1747 47.0186 27.6199 46.8342 28.084 46.8342H31.584C32.0481 46.8342 32.4932 47.0186 32.8214 47.3468C33.1496 47.675 33.334 48.1201 33.334 48.5842V50.9176C33.334 51.3817 33.1496 51.8268 32.8214 52.155C32.4932 52.4832 32.0481 52.6676 31.584 52.6676ZM28.084 48.0009C27.9293 48.0009 27.7809 48.0624 27.6715 48.1717C27.5621 48.2811 27.5007 48.4295 27.5007 48.5842V50.9176C27.5007 51.0723 27.5621 51.2206 27.6715 51.33C27.7809 51.4394 27.9293 51.5009 28.084 51.5009H31.584C31.7387 51.5009 31.8871 51.4394 31.9965 51.33C32.1059 51.2206 32.1673 51.0723 32.1673 50.9176V48.5842C32.1673 48.4295 32.1059 48.2811 31.9965 48.1717C31.8871 48.0624 31.7387 48.0009 31.584 48.0009H28.084Z" fill="#20282D"/>
<path d="M47.916 52.6676H44.416C43.9519 52.6676 43.5068 52.4832 43.1786 52.155C42.8504 51.8268 42.666 51.3817 42.666 50.9176V41.5842C42.666 41.1201 42.8504 40.675 43.1786 40.3468C43.5068 40.0186 43.9519 39.8342 44.416 39.8342H47.916C48.3801 39.8342 48.8253 40.0186 49.1535 40.3468C49.4816 40.675 49.666 41.1201 49.666 41.5842V50.9176C49.666 51.3817 49.4816 51.8268 49.1535 52.155C48.8253 52.4832 48.3801 52.6676 47.916 52.6676ZM44.416 41.0009C44.2613 41.0009 44.1129 41.0624 44.0035 41.1717C43.8941 41.2811 43.8327 41.4295 43.8327 41.5842V50.9176C43.8327 51.0723 43.8941 51.2206 44.0035 51.33C44.1129 51.4394 44.2613 51.5009 44.416 51.5009H47.916C48.0707 51.5009 48.2191 51.4394 48.3285 51.33C48.4379 51.2206 48.4993 51.0723 48.4993 50.9176V41.5842C48.4993 41.4295 48.4379 41.2811 48.3285 41.1717C48.2191 41.0624 48.0707 41.0009 47.916 41.0009H44.416Z" fill="#20282D"/>
<path d="M39.75 45.6676H36.25C35.7859 45.6676 35.3408 45.4832 35.0126 45.155C34.6844 44.8268 34.5 44.3817 34.5 43.9176V41.5842C34.5 41.1201 34.6844 40.675 35.0126 40.3468C35.3408 40.0186 35.7859 39.8342 36.25 39.8342H39.75C40.2141 39.8342 40.6592 40.0186 40.9874 40.3468C41.3156 40.675 41.5 41.1201 41.5 41.5842V43.9176C41.5 44.3817 41.3156 44.8268 40.9874 45.155C40.6592 45.4832 40.2141 45.6676 39.75 45.6676ZM36.25 41.0009C36.0953 41.0009 35.9469 41.0624 35.8375 41.1717C35.7281 41.2811 35.6667 41.4295 35.6667 41.5842V43.9176C35.6667 44.0723 35.7281 44.2206 35.8375 44.33C35.9469 44.4394 36.0953 44.5009 36.25 44.5009H39.75C39.9047 44.5009 40.0531 44.4394 40.1625 44.33C40.2719 44.2206 40.3333 44.0723 40.3333 43.9176V41.5842C40.3333 41.4295 40.2719 41.2811 40.1625 41.1717C40.0531 41.0624 39.9047 41.0009 39.75 41.0009H36.25Z" fill="#20282D"/>
<path d="M31.584 45.6676H28.084C27.6199 45.6676 27.1747 45.4832 26.8465 45.155C26.5184 44.8268 26.334 44.3817 26.334 43.9176V41.5842C26.334 41.1201 26.5184 40.675 26.8465 40.3468C27.1747 40.0186 27.6199 39.8342 28.084 39.8342H31.584C32.0481 39.8342 32.4932 40.0186 32.8214 40.3468C33.1496 40.675 33.334 41.1201 33.334 41.5842V43.9176C33.334 44.3817 33.1496 44.8268 32.8214 45.155C32.4932 45.4832 32.0481 45.6676 31.584 45.6676ZM28.084 41.0009C27.9293 41.0009 27.7809 41.0624 27.6715 41.1717C27.5621 41.2811 27.5007 41.4295 27.5007 41.5842V43.9176C27.5007 44.0723 27.5621 44.2206 27.6715 44.33C27.7809 44.4394 27.9293 44.5009 28.084 44.5009H31.584C31.7387 44.5009 31.8871 44.4394 31.9965 44.33C32.1059 44.2206 32.1673 44.0723 32.1673 43.9176V41.5842C32.1673 41.4295 32.1059 41.2811 31.9965 41.1717C31.8871 41.0624 31.7387 41.0009 31.584 41.0009H28.084Z" fill="#20282D"/>
<path d="M39.75 38.6676H36.25C35.7859 38.6676 35.3408 38.4832 35.0126 38.155C34.6844 37.8268 34.5 37.3817 34.5 36.9176V34.5842C34.5 34.1201 34.6844 33.675 35.0126 33.3468C35.3408 33.0186 35.7859 32.8342 36.25 32.8342H39.75C40.2141 32.8342 40.6592 33.0186 40.9874 33.3468C41.3156 33.675 41.5 34.1201 41.5 34.5842V36.9176C41.5 37.3817 41.3156 37.8268 40.9874 38.155C40.6592 38.4832 40.2141 38.6676 39.75 38.6676ZM36.25 34.0009C36.0953 34.0009 35.9469 34.0624 35.8375 34.1717C35.7281 34.2811 35.6667 34.4295 35.6667 34.5842V36.9176C35.6667 37.0723 35.7281 37.2206 35.8375 37.33C35.9469 37.4394 36.0953 37.5009 36.25 37.5009H39.75C39.9047 37.5009 40.0531 37.4394 40.1625 37.33C40.2719 37.2206 40.3333 37.0723 40.3333 36.9176V34.5842C40.3333 34.4295 40.2719 34.2811 40.1625 34.1717C40.0531 34.0624 39.9047 34.0009 39.75 34.0009H36.25Z" fill="#20282D"/>
<path d="M31.584 38.6676H28.084C27.6199 38.6676 27.1747 38.4832 26.8465 38.155C26.5184 37.8268 26.334 37.3817 26.334 36.9176V34.5842C26.334 34.1201 26.5184 33.675 26.8465 33.3468C27.1747 33.0186 27.6199 32.8342 28.084 32.8342H31.584C32.0481 32.8342 32.4932 33.0186 32.8214 33.3468C33.1496 33.675 33.334 34.1201 33.334 34.5842V36.9176C33.334 37.3817 33.1496 37.8268 32.8214 38.155C32.4932 38.4832 32.0481 38.6676 31.584 38.6676ZM28.084 34.0009C27.9293 34.0009 27.7809 34.0624 27.6715 34.1717C27.5621 34.2811 27.5007 34.4295 27.5007 34.5842V36.9176C27.5007 37.0723 27.5621 37.2206 27.6715 37.33C27.7809 37.4394 27.9293 37.5009 28.084 37.5009H31.584C31.7387 37.5009 31.8871 37.4394 31.9965 37.33C32.1059 37.2206 32.1673 37.0723 32.1673 36.9176V34.5842C32.1673 34.4295 32.1059 34.2811 31.9965 34.1717C31.8871 34.0624 31.7387 34.0009 31.584 34.0009H28.084Z" fill="#20282D"/>
<path d="M47.916 38.6676H44.416C43.9519 38.6676 43.5068 38.4832 43.1786 38.155C42.8504 37.8268 42.666 37.3817 42.666 36.9176V34.5842C42.666 34.1201 42.8504 33.675 43.1786 33.3468C43.5068 33.0186 43.9519 32.8342 44.416 32.8342H47.916C48.3801 32.8342 48.8253 33.0186 49.1535 33.3468C49.4816 33.675 49.666 34.1201 49.666 34.5842V36.9176C49.666 37.3817 49.4816 37.8268 49.1535 38.155C48.8253 38.4832 48.3801 38.6676 47.916 38.6676ZM44.416 34.0009C44.2613 34.0009 44.1129 34.0624 44.0035 34.1717C43.8941 34.2811 43.8327 34.4295 43.8327 34.5842V36.9176C43.8327 37.0723 43.8941 37.2206 44.0035 37.33C44.1129 37.4394 44.2613 37.5009 44.416 37.5009H47.916C48.0707 37.5009 48.2191 37.4394 48.3285 37.33C48.4379 37.2206 48.4993 37.0723 48.4993 36.9176V34.5842C48.4993 34.4295 48.4379 34.2811 48.3285 34.1717C48.2191 34.0624 48.0707 34.0009 47.916 34.0009H44.416Z" fill="#20282D"/>
<path d="M47.9173 30.5009H28.084C27.6199 30.5009 27.1747 30.3165 26.8465 29.9883C26.5184 29.6601 26.334 29.215 26.334 28.7509V24.0842C26.334 23.6201 26.5184 23.175 26.8465 22.8468C27.1747 22.5186 27.6199 22.3342 28.084 22.3342H47.9173C48.3814 22.3342 48.8266 22.5186 49.1548 22.8468C49.4829 23.175 49.6673 23.6201 49.6673 24.0842V28.7509C49.6673 29.215 49.4829 29.6601 49.1548 29.9883C48.8266 30.3165 48.3814 30.5009 47.9173 30.5009ZM28.084 23.5009C27.9293 23.5009 27.7809 23.5624 27.6715 23.6717C27.5621 23.7811 27.5007 23.9295 27.5007 24.0842V28.7509C27.5007 28.9056 27.5621 29.054 27.6715 29.1634C27.7809 29.2728 27.9293 29.3342 28.084 29.3342H47.9173C48.072 29.3342 48.2204 29.2728 48.3298 29.1634C48.4392 29.054 48.5007 28.9056 48.5007 28.7509V24.0842C48.5007 23.9295 48.4392 23.7811 48.3298 23.6717C48.2204 23.5624 48.072 23.5009 47.9173 23.5009H28.084Z" fill="#20282D"/>
<path d="M46.166 28.7509C45.7019 28.7509 45.2568 28.5665 44.9286 28.2383C44.6004 27.9101 44.416 27.465 44.416 27.0009V25.8342C44.416 25.3701 44.6004 24.925 44.9286 24.5968C45.2568 24.2686 45.7019 24.0842 46.166 24.0842C46.6301 24.0842 47.0753 24.2686 47.4035 24.5968C47.7316 24.925 47.916 25.3701 47.916 25.8342V27.0009C47.916 27.465 47.7316 27.9101 47.4035 28.2383C47.0753 28.5665 46.6301 28.7509 46.166 28.7509ZM46.166 25.2509C46.0113 25.2509 45.8629 25.3124 45.7535 25.4217C45.6441 25.5311 45.5827 25.6795 45.5827 25.8342V27.0009C45.5827 27.1556 45.6441 27.304 45.7535 27.4134C45.8629 27.5228 46.0113 27.5842 46.166 27.5842C46.3207 27.5842 46.4691 27.5228 46.5785 27.4134C46.6879 27.304 46.7493 27.1556 46.7493 27.0009V25.8342C46.7493 25.6795 46.6879 25.5311 46.5785 25.4217C46.4691 25.3124 46.3207 25.2509 46.166 25.2509Z" fill="#20282D"/>
</svg>
