<svg width="40" height="41" viewBox="0 0 40 41" fill="none" xmlns="http://www.w3.org/2000/svg">
<path d="M37.9723 20.4998C37.6622 20.4987 37.3579 20.5845 37.0942 20.7476C36.8304 20.9107 36.6176 21.1444 36.48 21.4223L33.4974 27.3869L31.6636 29.2206L31.0681 29.5191L32.0422 27.8137C32.2875 27.387 32.3606 26.8828 32.2466 26.404C32.1326 25.9252 31.8401 25.508 31.4288 25.2376C31.0175 24.9673 30.5185 24.8641 30.0338 24.9494C29.549 25.0346 29.1151 25.3016 28.8207 25.696L25.5708 30.0293C25.5281 30.0862 25.495 30.1497 25.4728 30.2172L24.1493 34.1878C24.135 34.229 24.1252 34.2716 24.1202 34.3149L23.4584 39.609C23.4468 39.7021 23.4551 39.7966 23.4827 39.8863C23.5104 39.9759 23.5568 40.0586 23.6189 40.129C23.681 40.1993 23.7573 40.2557 23.8428 40.2943C23.9283 40.3329 24.0211 40.3528 24.1149 40.3529H30.0708C30.2463 40.3529 30.4146 40.2831 30.5387 40.159C30.6628 40.0349 30.7325 39.8666 30.7325 39.6911V37.0903C30.7325 36.9814 30.7594 36.8742 30.8108 36.7781C30.8621 36.6821 30.9364 36.6002 31.027 36.5398L34.4087 34.2858C34.4812 34.2374 34.5435 34.1751 34.592 34.1025L37.239 30.1319C37.2749 30.0787 37.3026 30.0205 37.3211 29.9591L39.5678 22.6592C39.6447 22.4096 39.6619 22.1454 39.618 21.8879C39.5741 21.6304 39.4704 21.3868 39.3151 21.1767C39.1599 20.9667 38.9575 20.796 38.7243 20.6784C38.4911 20.5608 38.2335 20.4997 37.9723 20.4998ZM38.3032 22.2701L36.0843 29.4774L33.5642 33.258L30.2931 35.4386C30.0209 35.6196 29.7977 35.8651 29.6434 36.1533C29.4891 36.4415 29.4086 36.7634 29.409 37.0903V39.0293H24.8646L25.4252 34.5445L26.6958 30.7374L29.8815 26.4908C29.974 26.3666 30.1105 26.2824 30.2631 26.2555C30.4156 26.2286 30.5726 26.261 30.7021 26.346C30.8316 26.431 30.9237 26.5623 30.9596 26.7129C30.9955 26.8636 30.9725 27.0223 30.8953 27.1566L28.8346 30.7572C28.7616 30.8806 28.7307 31.0243 28.7464 31.1668C28.7621 31.3093 28.8237 31.4428 28.9218 31.5473C29.0199 31.6517 29.1493 31.7215 29.2905 31.7461C29.4317 31.7707 29.5771 31.7488 29.7048 31.6837L32.3519 30.3602C32.4156 30.3282 32.4737 30.2862 32.5239 30.2358L34.5092 28.2505C34.5597 28.2002 34.6017 28.1421 34.6337 28.0784L37.6639 22.0173C37.6917 21.9591 37.7355 21.9101 37.7901 21.8758C37.8446 21.8415 37.9078 21.8233 37.9723 21.8234C38.0263 21.8233 38.0797 21.8359 38.128 21.8602C38.1763 21.8845 38.2183 21.9197 38.2505 21.9632C38.2827 22.0067 38.3042 22.0571 38.3133 22.1104C38.3225 22.1637 38.319 22.2184 38.3032 22.2701Z" fill="white"/>
<path d="M16.1393 34.1878L14.8157 30.2172C14.7935 30.1497 14.7604 30.0862 14.7178 30.0293L11.4678 25.696C11.1734 25.3016 10.7395 25.0346 10.2547 24.9494C9.76999 24.8641 9.271 24.9673 8.85972 25.2376C8.44845 25.508 8.15592 25.9252 8.04192 26.404C7.92792 26.8828 8.00105 27.387 8.24636 27.8137L9.22048 29.5197L8.62489 29.2213L6.79113 27.3875L3.80855 21.4223C3.62104 21.0482 3.2998 20.7581 2.90849 20.6096C2.51718 20.4612 2.08437 20.4651 1.69585 20.6208C1.30733 20.7764 0.991467 21.0723 0.810859 21.4499C0.630251 21.8274 0.598087 22.259 0.720742 22.6592L2.96744 29.9591C2.98595 30.0205 3.01362 30.0787 3.0495 30.1319L5.69657 34.1025C5.74499 34.1751 5.80729 34.2374 5.87988 34.2858L9.26151 36.5398C9.35211 36.6002 9.4264 36.6821 9.47777 36.7781C9.52914 36.8742 9.55601 36.9814 9.55599 37.0903V39.6911C9.55599 39.8666 9.62571 40.0349 9.74982 40.159C9.87393 40.2831 10.0422 40.3529 10.2178 40.3529H16.1737C16.2675 40.3528 16.3602 40.3329 16.4457 40.2943C16.5312 40.2557 16.6076 40.1993 16.6696 40.129C16.7317 40.0586 16.7781 39.9759 16.8058 39.8863C16.8335 39.7966 16.8418 39.7021 16.8301 39.609L16.1684 34.3149C16.1633 34.2716 16.1535 34.229 16.1393 34.1878ZM10.8795 39.0293V37.0903C10.8804 36.763 10.8 36.4405 10.6457 36.1518C10.4915 35.8631 10.268 35.6172 9.99541 35.4359L6.72429 33.2554L4.20428 29.4774L1.9867 22.2701C1.97088 22.2185 1.96737 22.1639 1.97646 22.1107C1.98554 22.0575 2.00696 22.0072 2.039 21.9637C2.07104 21.9203 2.11281 21.885 2.16095 21.8606C2.2091 21.8362 2.26229 21.8235 2.31626 21.8234C2.38037 21.823 2.4433 21.8407 2.49783 21.8744C2.55237 21.9081 2.59632 21.9565 2.62465 22.014L5.65488 28.0751C5.68682 28.1388 5.72883 28.1969 5.77929 28.2472L7.76459 30.2325C7.81487 30.2829 7.87297 30.3249 7.93665 30.3569L10.5837 31.6804C10.7111 31.7446 10.8557 31.7659 10.9962 31.7413C11.1366 31.7166 11.2653 31.6472 11.3632 31.5434C11.461 31.4396 11.5227 31.307 11.539 31.1654C11.5554 31.0237 11.5255 30.8806 11.4539 30.7572L9.39518 27.1532C9.31799 27.019 9.295 26.8603 9.33091 26.7096C9.36683 26.5589 9.45893 26.4277 9.5884 26.3427C9.71787 26.2576 9.87492 26.2253 10.0275 26.2522C10.18 26.2791 10.3165 26.3633 10.409 26.4875L13.5928 30.7374L14.8614 34.5445L15.4239 39.0293H10.8795Z" fill="white"/>
<path d="M8.89423 23.1469H31.3943C31.5698 23.1469 31.7381 23.0772 31.8622 22.9531C31.9864 22.829 32.0561 22.6607 32.0561 22.4851V17.191C32.0561 16.6645 31.8469 16.1595 31.4746 15.7872C31.1023 15.4149 30.5973 15.2057 30.0708 15.2057H29.818C30.2261 14.8524 30.5164 14.3829 30.6501 13.8599C30.7838 13.337 30.7544 12.7857 30.5659 12.2799C30.3774 11.7741 30.0387 11.3381 29.5954 11.0302C29.1521 10.7223 28.6252 10.5573 28.0855 10.5573C27.5457 10.5573 27.0189 10.7223 26.5755 11.0302C26.1322 11.3381 25.7936 11.7741 25.6051 12.2799C25.4166 12.7857 25.3872 13.337 25.5209 13.8599C25.6545 14.3829 25.9449 14.8524 26.353 15.2057H26.1002C25.7843 15.2078 25.4737 15.2864 25.1949 15.4347C24.9851 14.9728 24.6471 14.5809 24.2209 14.3057C23.7948 14.0304 23.2986 13.8834 22.7913 13.8822H21.9932C22.4779 13.4983 22.8311 12.973 23.0038 12.3793C23.1764 11.7856 23.16 11.1528 22.9567 10.5689C22.7535 9.98492 22.3735 9.47871 21.8695 9.12049C21.3656 8.76227 20.7626 8.56981 20.1443 8.56981C19.526 8.56981 18.923 8.76227 18.419 9.12049C17.915 9.47871 17.535 9.98492 17.3318 10.5689C17.1285 11.1528 17.1121 11.7856 17.2848 12.3793C17.4574 12.973 17.8106 13.4983 18.2953 13.8822H17.4972C16.9899 13.8834 16.4937 14.0304 16.0676 14.3057C15.6415 14.5809 15.3034 14.9728 15.0937 15.4347C14.8148 15.2864 14.5042 15.2078 14.1884 15.2057H13.9356C14.3437 14.8524 14.634 14.3829 14.7677 13.8599C14.9013 13.337 14.872 12.7857 14.6835 12.2799C14.4949 11.7741 14.1563 11.3381 13.713 11.0302C13.2697 10.7223 12.7428 10.5573 12.2031 10.5573C11.6633 10.5573 11.1364 10.7223 10.6931 11.0302C10.2498 11.3381 9.91118 11.7741 9.72267 12.2799C9.53417 12.7857 9.50478 13.337 9.63845 13.8599C9.77213 14.3829 10.0625 14.8524 10.4706 15.2057H10.2178C9.69123 15.2057 9.18626 15.4149 8.81394 15.7872C8.44162 16.1595 8.23246 16.6645 8.23246 17.191V22.4851C8.23246 22.6607 8.30218 22.829 8.42629 22.9531C8.55039 23.0772 8.71871 23.1469 8.89423 23.1469ZM28.0855 11.8969C28.3472 11.8969 28.6031 11.9745 28.8208 12.1199C29.0384 12.2654 29.2081 12.4721 29.3083 12.7139C29.4084 12.9558 29.4346 13.2219 29.3836 13.4786C29.3325 13.7354 29.2064 13.9712 29.0214 14.1563C28.8363 14.3414 28.6004 14.4674 28.3437 14.5185C28.0869 14.5696 27.8208 14.5434 27.579 14.4432C27.3371 14.343 27.1304 14.1734 26.985 13.9557C26.8396 13.7381 26.7619 13.4822 26.7619 13.2204C26.7619 12.8694 26.9014 12.5327 27.1496 12.2845C27.3978 12.0363 27.7344 11.8969 28.0855 11.8969ZM25.4384 17.191C25.4384 17.0155 25.5081 16.8472 25.6322 16.7231C25.7563 16.599 25.9247 16.5292 26.1002 16.5292H30.0708C30.2463 16.5292 30.4146 16.599 30.5387 16.7231C30.6628 16.8472 30.7325 17.0155 30.7325 17.191V21.8234H25.4384V17.191ZM20.1443 9.91157C20.4715 9.91157 20.7913 10.0086 21.0634 10.1904C21.3355 10.3722 21.5475 10.6306 21.6727 10.9329C21.798 11.2352 21.8307 11.5678 21.7669 11.8887C21.7031 12.2097 21.5455 12.5045 21.3141 12.7358C21.0827 12.9672 20.788 13.1248 20.467 13.1886C20.1461 13.2525 19.8135 13.2197 19.5111 13.0945C19.2088 12.9693 18.9505 12.7572 18.7687 12.4851C18.5869 12.2131 18.4898 11.8932 18.4898 11.566C18.4898 11.1272 18.6642 10.7064 18.9744 10.3961C19.2847 10.0859 19.7055 9.91157 20.1443 9.91157ZM16.1737 16.5292C16.1737 16.1782 16.3131 15.8416 16.5613 15.5934C16.8095 15.3452 17.1462 15.2057 17.4972 15.2057H22.7913C23.1424 15.2057 23.479 15.3452 23.7272 15.5934C23.9754 15.8416 24.1149 16.1782 24.1149 16.5292V21.8234H16.1737V16.5292ZM12.2031 11.8969C12.4648 11.8969 12.7207 11.9745 12.9384 12.1199C13.156 12.2654 13.3257 12.4721 13.4258 12.7139C13.526 12.9558 13.5522 13.2219 13.5012 13.4786C13.4501 13.7354 13.324 13.9712 13.1389 14.1563C12.9538 14.3414 12.718 14.4674 12.4613 14.5185C12.2045 14.5696 11.9384 14.5434 11.6966 14.4432C11.4547 14.343 11.248 14.1734 11.1026 13.9557C10.9572 13.7381 10.8795 13.4822 10.8795 13.2204C10.8795 12.8694 11.019 12.5327 11.2672 12.2845C11.5154 12.0363 11.852 11.8969 12.2031 11.8969ZM9.55599 17.191C9.55599 17.0155 9.62572 16.8472 9.74982 16.7231C9.87393 16.599 10.0422 16.5292 10.2178 16.5292H14.1884C14.3639 16.5292 14.5322 16.599 14.6563 16.7231C14.7804 16.8472 14.8501 17.0155 14.8501 17.191V21.8234H9.55599V17.191Z" fill="white"/>
<path d="M4.92362 9.2498V15.2057H6.24716V9.74216L12.393 7.89848C12.5294 7.85762 12.6489 7.77386 12.7339 7.65965C12.8189 7.54545 12.8648 7.40687 12.8648 7.2645V4.22964L14.3823 5.74707L15.318 4.81133L12.6709 2.16426C12.5468 2.0402 12.3785 1.97051 12.2031 1.97051C12.0276 1.97051 11.8593 2.0402 11.7352 2.16426L9.08813 4.81133L10.0239 5.74707L11.5413 4.22964V6.77215L5.39546 8.61583C5.25909 8.65669 5.13952 8.74044 5.05452 8.85465C4.96952 8.96886 4.92361 9.10744 4.92362 9.2498Z" fill="white"/>
<path d="M20.806 6.60274V2.9061L22.3235 4.42354L23.2592 3.4878L20.6121 0.840729C20.488 0.716667 20.3197 0.646973 20.1443 0.646973C19.9688 0.646973 19.8005 0.716667 19.6764 0.840729L17.0293 3.4878L17.9651 4.42354L19.4825 2.9061V6.60274H20.806Z" fill="white"/>
<path d="M30.2647 5.74707L31.2004 4.81133L28.5533 2.16426C28.4292 2.0402 28.2609 1.97051 28.0855 1.97051C27.91 1.97051 27.7417 2.0402 27.6176 2.16426L24.9705 4.81133L25.9063 5.74707L27.4237 4.22964V7.2645C27.4238 7.40334 27.4676 7.53862 27.5488 7.65121C27.63 7.7638 27.7446 7.84799 27.8764 7.89186L33.3796 9.72694V15.2057H34.7031V9.2498C34.703 9.11097 34.6593 8.97568 34.578 8.8631C34.4968 8.75051 34.3822 8.66632 34.2505 8.62245L28.7472 6.78737V4.22964L30.2647 5.74707Z" fill="white"/>
</svg>
