<svg width="36" height="31" viewBox="0 0 36 31" fill="none" xmlns="http://www.w3.org/2000/svg">
<path d="M34.9998 7.18553H31.4704C31.3144 7.18553 31.1648 7.2481 31.0545 7.35948C30.9442 7.47086 30.8822 7.62192 30.8822 7.77943V30.3473C30.8822 30.5048 30.9442 30.6559 31.0545 30.7672C31.1648 30.8786 31.3144 30.9412 31.4704 30.9412H34.9998C35.1558 30.9412 35.3055 30.8786 35.4158 30.7672C35.5261 30.6559 35.5881 30.5048 35.5881 30.3473V7.77943C35.5881 7.62192 35.5261 7.47086 35.4158 7.35948C35.3055 7.2481 35.1558 7.18553 34.9998 7.18553ZM34.4116 29.7534H32.0587V8.37332H34.4116V29.7534Z" fill="white"/>
<path d="M29.1175 30.9412C29.2735 30.9412 29.4231 30.8786 29.5334 30.7672C29.6437 30.6559 29.7057 30.5048 29.7057 30.3473V12.5306C29.7057 12.373 29.6437 12.222 29.5334 12.1106C29.4231 11.9992 29.2735 11.9367 29.1175 11.9367H25.5881C25.4321 11.9367 25.2824 11.9992 25.1721 12.1106C25.0618 12.222 24.9998 12.373 24.9998 12.5306V30.3473C24.9998 30.5048 25.0618 30.6559 25.1721 30.7672C25.2824 30.8786 25.4321 30.9412 25.5881 30.9412H29.1175ZM26.1763 13.1244H28.5292V29.7534H26.1763V13.1244Z" fill="white"/>
<path d="M23.2351 30.9412C23.3911 30.9412 23.5408 30.8786 23.6511 30.7672C23.7614 30.6559 23.8234 30.5048 23.8234 30.3473V16.6878C23.8234 16.5303 23.7614 16.3792 23.6511 16.2679C23.5408 16.1565 23.3911 16.0939 23.2351 16.0939H19.7057C19.5497 16.0939 19.4001 16.1565 19.2898 16.2679C19.1795 16.3792 19.1175 16.5303 19.1175 16.6878V30.3473C19.1175 30.5048 19.1795 30.6559 19.2898 30.7672C19.4001 30.8786 19.5497 30.9412 19.7057 30.9412H23.2351ZM20.294 17.2817H22.6469V29.7534H20.294V17.2817Z" fill="white"/>
<path d="M17.3528 30.9412C17.5088 30.9412 17.6584 30.8786 17.7687 30.7672C17.879 30.6559 17.941 30.5048 17.941 30.3473V21.4389C17.941 21.2814 17.879 21.1304 17.7687 21.019C17.6584 20.9076 17.5088 20.845 17.3528 20.845H13.8234C13.6674 20.845 13.5177 20.9076 13.4074 21.019C13.2971 21.1304 13.2351 21.2814 13.2351 21.4389V30.3473C13.2351 30.5048 13.2971 30.6559 13.4074 30.7672C13.5177 30.8786 13.6674 30.9412 13.8234 30.9412H17.3528ZM14.4116 22.0328H16.7645V29.7534H14.4116V22.0328Z" fill="white"/>
<path d="M11.4704 30.9412C11.6264 30.9412 11.7761 30.8786 11.8864 30.7672C11.9967 30.6559 12.0587 30.5048 12.0587 30.3473V23.8145C12.0587 23.657 11.9967 23.5059 11.8864 23.3945C11.7761 23.2832 11.6264 23.2206 11.4704 23.2206H7.94102C7.78501 23.2206 7.63539 23.2832 7.52507 23.3945C7.41476 23.5059 7.35278 23.657 7.35278 23.8145V30.3473C7.35278 30.5048 7.41476 30.6559 7.52507 30.7672C7.63539 30.8786 7.78501 30.9412 7.94102 30.9412H11.4704ZM8.52925 24.4084H10.8822V29.7534H8.52925V24.4084Z" fill="white"/>
<path d="M5.58808 30.9412C5.74409 30.9412 5.8937 30.8786 6.00402 30.7672C6.11434 30.6559 6.17631 30.5048 6.17631 30.3473V26.784C6.17631 26.6264 6.11434 26.4754 6.00402 26.364C5.8937 26.2526 5.74409 26.1901 5.58808 26.1901H2.05867C1.90266 26.1901 1.75304 26.2526 1.64272 26.364C1.53241 26.4754 1.47043 26.6264 1.47043 26.784V30.3473C1.47043 30.5048 1.53241 30.6559 1.64272 30.7672C1.75304 30.8786 1.90266 30.9412 2.05867 30.9412H5.58808ZM2.6469 27.3778H4.99984V29.7534H2.6469V27.3778Z" fill="white"/>
<path d="M14.9998 7.18553H16.1763C16.3323 7.18553 16.4819 7.12296 16.5923 7.01159C16.7026 6.90021 16.7645 6.74915 16.7645 6.59164C16.7645 6.43413 16.7026 6.28307 16.5923 6.1717C16.4819 6.06032 16.3323 5.99775 16.1763 5.99775H15.5881V5.40386C15.5881 5.24635 15.5261 5.09529 15.4158 4.98392C15.3055 4.87254 15.1558 4.80997 14.9998 4.80997C14.8438 4.80997 14.6942 4.87254 14.5839 4.98392C14.4736 5.09529 14.4116 5.24635 14.4116 5.40386V6.0999C14.0193 6.24012 13.6887 6.51581 13.4782 6.87827C13.2677 7.24072 13.1909 7.66662 13.2613 8.08073C13.3316 8.49484 13.5447 8.87052 13.8628 9.1414C14.181 9.41228 14.5837 9.56093 14.9998 9.5611C15.1558 9.5611 15.3055 9.62367 15.4158 9.73505C15.5261 9.84642 15.5881 9.99748 15.5881 10.155C15.5881 10.3125 15.5261 10.4636 15.4158 10.5749C15.3055 10.6863 15.1558 10.7489 14.9998 10.7489H13.8234C13.6674 10.7489 13.5177 10.8115 13.4074 10.9228C13.2971 11.0342 13.2351 11.1853 13.2351 11.3428C13.2351 11.5003 13.2971 11.6513 13.4074 11.7627C13.5177 11.8741 13.6674 11.9367 13.8234 11.9367H14.4116V12.5306C14.4116 12.6881 14.4736 12.8391 14.5839 12.9505C14.6942 13.0619 14.8438 13.1244 14.9998 13.1244C15.1558 13.1244 15.3055 13.0619 15.4158 12.9505C15.5261 12.8391 15.5881 12.6881 15.5881 12.5306V11.8345C15.9804 11.6943 16.311 11.4186 16.5215 11.0562C16.7319 10.6937 16.8088 10.2678 16.7384 9.85369C16.668 9.43958 16.455 9.0639 16.1368 8.79302C15.8187 8.52214 15.416 8.37349 14.9998 8.37332C14.8438 8.37332 14.6942 8.31075 14.5839 8.19937C14.4736 8.08799 14.4116 7.93694 14.4116 7.77943C14.4116 7.62192 14.4736 7.47086 14.5839 7.35948C14.6942 7.2481 14.8438 7.18553 14.9998 7.18553Z" fill="white"/>
<path d="M34.9998 0.0588379H31.4704C31.3144 0.0588379 31.1648 0.121409 31.0545 0.232785C30.9442 0.344161 30.8822 0.495219 30.8822 0.652729C30.8822 0.810239 30.9442 0.961298 31.0545 1.07267C31.1648 1.18405 31.3144 1.24662 31.4704 1.24662H33.5797L25.3444 9.5611H22.034C22.0501 9.36519 22.0587 9.1672 22.0587 8.96721C22.0586 7.61385 21.6769 6.28848 20.9581 5.14612C20.2393 4.00376 19.2133 3.09164 17.9999 2.51645C16.7865 1.94127 15.436 1.72679 14.1063 1.8981C12.7766 2.06942 11.5227 2.61944 10.4913 3.48385C9.45987 4.34825 8.69356 5.4913 8.28198 6.77929C7.8704 8.06728 7.83058 9.44696 8.16717 10.757C8.50376 12.067 9.20284 13.2531 10.1827 14.1767C11.1625 15.1003 12.3825 15.7231 13.7001 15.9723L11.2268 18.4695H6.76455C6.6873 18.4695 6.6108 18.4848 6.53943 18.5147C6.46806 18.5445 6.40321 18.5883 6.34859 18.6434L0.46624 24.5823C0.355922 24.6937 0.293945 24.8448 0.293945 25.0023C0.293945 25.1598 0.355922 25.3109 0.46624 25.4222C0.576558 25.5336 0.726182 25.5962 0.882195 25.5962C1.03821 25.5962 1.18783 25.5336 1.29815 25.4222L7.00815 19.6573H11.4704C11.5477 19.6573 11.6242 19.6419 11.6955 19.6121C11.7669 19.5822 11.8318 19.5385 11.8864 19.4833L15.2484 16.089C16.7692 16.0329 18.2316 15.4829 19.4183 14.5209C20.6049 13.5588 21.4526 12.236 21.8353 10.7489H25.5881C25.6653 10.7489 25.7418 10.7335 25.8132 10.7037C25.8845 10.6738 25.9494 10.6301 26.004 10.5749L34.4116 2.08653V4.21608C34.4116 4.37359 34.4736 4.52465 34.5839 4.63602C34.6942 4.7474 34.8438 4.80997 34.9998 4.80997C35.1558 4.80997 35.3055 4.7474 35.4158 4.63602C35.5261 4.52465 35.5881 4.37359 35.5881 4.21608V0.652729C35.5881 0.495219 35.5261 0.344161 35.4158 0.232785C35.3055 0.121409 35.1558 0.0588379 34.9998 0.0588379ZM14.9998 14.9061C13.8364 14.9061 12.6991 14.5578 11.7318 13.9052C10.7644 13.2527 10.0105 12.3251 9.56525 11.2399C9.12003 10.1547 9.00354 8.96062 9.23051 7.80858C9.45749 6.65655 10.0177 5.59833 10.8404 4.76776C11.663 3.93719 12.7112 3.37156 13.8522 3.14241C14.9933 2.91325 16.1761 3.03087 17.2509 3.48037C18.3258 3.92987 19.2445 4.69108 19.8908 5.66773C20.5372 6.64437 20.8822 7.7926 20.8822 8.96721C20.8804 10.5418 20.2601 12.0513 19.1573 13.1647C18.0546 14.2781 16.5594 14.9043 14.9998 14.9061Z" fill="white"/>
</svg>
