<svg width="65" height="66" viewBox="0 0 65 66" fill="none" xmlns="http://www.w3.org/2000/svg">
<path d="M20.8281 29.7516H25.7875C27.0792 29.7516 28.13 28.6997 28.13 27.4066V25.6797C28.13 24.3867 27.0792 23.3348 25.7875 23.3348H20.8281C19.5364 23.3348 18.4856 24.3867 18.4856 25.6797V27.4066C18.4855 28.6997 19.5364 29.7516 20.8281 29.7516ZM20.5168 25.6797C20.5168 25.5108 20.6592 25.3682 20.8279 25.3682H25.7874C25.9561 25.3682 26.0986 25.5108 26.0986 25.6797V27.4066C26.0986 27.5755 25.9561 27.7182 25.7874 27.7182H20.8279C20.6592 27.7182 20.5168 27.5755 20.5168 27.4066V25.6797ZM14.8902 41.9644H9.93078C8.63916 41.9644 7.58837 43.0163 7.58837 44.3094V46.0363C7.58837 47.3294 8.63916 48.3813 9.93078 48.3813H14.8902C16.1818 48.3813 17.2326 47.3294 17.2326 46.0363V44.3094C17.2326 43.0163 16.1818 41.9644 14.8902 41.9644ZM15.2014 46.0363C15.2014 46.2052 15.0589 46.3479 14.8902 46.3479H9.93078C9.76206 46.3479 9.61962 46.2052 9.61962 46.0363V44.3094C9.61962 44.1405 9.76206 43.9978 9.93078 43.9978H14.8902C15.0589 43.9978 15.2014 44.1405 15.2014 44.3094V46.0363ZM14.8902 32.6495H9.93078C8.63916 32.6495 7.58837 33.7014 7.58837 34.9946V36.7214C7.58837 38.0145 8.63916 39.0664 9.93078 39.0664H14.8902C16.1818 39.0664 17.2326 38.0145 17.2326 36.7214V34.9946C17.2326 33.7014 16.1818 32.6495 14.8902 32.6495ZM15.2014 36.7214C15.2014 36.8903 15.0589 37.033 14.8902 37.033H9.93078C9.76206 37.033 9.61962 36.8903 9.61962 36.7214V34.9946C9.61962 34.8257 9.76206 34.6829 9.93078 34.6829H14.8902C15.0589 34.6829 15.2014 34.8257 15.2014 34.9946V36.7214ZM28.13 44.3094C28.13 43.0163 27.0792 41.9644 25.7875 41.9644H20.8281C19.5364 41.9644 18.4856 43.0163 18.4856 44.3094V46.0363C18.4856 47.3294 19.5364 48.3813 20.8281 48.3813H25.7875C27.0792 48.3813 28.13 47.3294 28.13 46.0363V44.3094ZM26.0988 46.0363C26.0988 46.2052 25.9562 46.3479 25.7875 46.3479H20.8281C20.6593 46.3479 20.5169 46.2052 20.5169 46.0363V44.3094C20.5169 44.1405 20.6593 43.9978 20.8281 43.9978H25.7875C25.9562 43.9978 26.0988 44.1405 26.0988 44.3094V46.0363ZM14.8902 23.3348H9.93078C8.63916 23.3348 7.58837 24.3867 7.58837 25.6797V27.4066C7.58837 28.6997 8.63916 29.7516 9.93078 29.7516H14.8902C16.1818 29.7516 17.2326 28.6997 17.2326 27.4066V25.6797C17.2326 24.3867 16.1818 23.3348 14.8902 23.3348ZM15.2014 27.4066C15.2014 27.5755 15.0589 27.7182 14.8902 27.7182H9.93078C9.76206 27.7182 9.61962 27.5755 9.61962 27.4066V25.6797C9.61962 25.5108 9.76206 25.3682 9.93078 25.3682H14.8902C15.0589 25.3682 15.2014 25.5108 15.2014 25.6797V27.4066ZM20.8281 39.0664H25.7875C27.0792 39.0664 28.13 38.0145 28.13 36.7214V34.9946C28.13 33.7014 27.0792 32.6495 25.7875 32.6495H20.8281C19.5364 32.6495 18.4856 33.7014 18.4856 34.9946V36.7214C18.4855 38.0145 19.5364 39.0664 20.8281 39.0664ZM20.5168 34.9946C20.5168 34.8257 20.6592 34.6829 20.8279 34.6829H25.7874C25.9561 34.6829 26.0986 34.8257 26.0986 34.9946V36.7214C26.0986 36.8903 25.9561 37.033 25.7874 37.033H20.8279C20.6592 37.033 20.5168 36.8903 20.5168 36.7214V34.9946ZM62.6889 41.1634C60.8349 37.9047 58.0078 34.2216 53.8508 29.6574C55.0042 29.0543 55.7937 27.8458 55.7937 26.4554C55.7937 24.6028 54.3922 23.0721 52.595 22.8684L55.1276 20.333C56.5619 18.8971 56.5619 16.5608 55.1275 15.125C53.9134 13.9099 51.983 13.7024 50.5375 14.6311C50.4284 14.7015 50.3312 14.7103 50.2111 14.6602C50.0915 14.6107 50.0285 14.5353 50.0009 14.4086C49.6495 12.7971 48.2442 11.6127 46.6157 11.5179V7.63969C46.6155 3.89291 43.5706 0.844727 39.8279 0.844727H6.78768C3.04484 0.844727 0 3.89291 0 7.63969V49.88C0 53.6267 3.04484 56.6749 6.78768 56.6749H29.6543C29.7502 56.8518 29.8487 57.0279 29.9522 57.2025C33.1461 62.5975 39.2991 65.9136 46.0726 65.9133H46.7398C53.5129 65.9133 59.6666 62.5971 62.8602 57.2025C65.7618 52.301 65.6995 46.4549 62.6889 41.1634ZM53.7624 26.4554C53.7624 27.3252 53.0555 28.0329 52.1866 28.0329H40.6258C39.7568 28.0329 39.0499 27.3252 39.0499 26.4553C39.0499 25.5855 39.7568 24.878 40.6258 24.878H52.1866C53.0555 24.878 53.7624 25.5858 53.7624 26.4554ZM48.0163 14.8426C48.1856 15.6176 48.7021 16.2359 49.4335 16.539C50.1653 16.8431 50.9677 16.7712 51.6346 16.3425C52.2825 15.9265 53.1477 16.0189 53.6913 16.5631C54.0004 16.8726 54.1705 17.2865 54.1705 17.7291C54.1705 18.1718 54.0003 18.5858 53.6911 18.8953L49.7461 22.8448H43.0666L39.1212 18.8953C38.812 18.5858 38.6419 18.1718 38.6419 17.7291C38.6419 17.2865 38.8121 16.8726 39.1212 16.5631C39.6646 16.0188 40.5295 15.9259 41.178 16.3425C41.8449 16.7709 42.647 16.8425 43.3787 16.5392C44.1106 16.2357 44.6272 15.6173 44.7962 14.8424C44.9606 14.0891 45.6377 13.5424 46.4063 13.5423C47.1749 13.5421 47.8519 14.089 48.0163 14.8426ZM36.6802 17.0087H8.71165C8.54293 17.0087 8.40036 16.866 8.40036 16.6971V11.4833C8.40036 11.3144 8.54293 11.1718 8.71165 11.1718H37.9038C38.0725 11.1718 38.215 11.3144 38.215 11.4833V14.6891C38.0274 14.8163 37.8492 14.9607 37.6848 15.1252C37.1641 15.6463 36.8193 16.2983 36.6802 17.0087ZM6.78768 54.6415C4.16495 54.6415 2.03125 52.5055 2.03125 49.88V7.63969C2.03125 5.0142 4.16495 2.87812 6.78768 2.87812H39.8279C42.4506 2.87812 44.5843 5.0142 44.5843 7.63969V12.0001C43.7039 12.5073 43.0384 13.3694 42.8118 14.4087C42.784 14.5356 42.7211 14.6109 42.6017 14.6604C42.4819 14.7104 42.3843 14.7013 42.275 14.6313C41.6562 14.2337 40.9487 14.046 40.2464 14.0547V11.4833C40.2464 10.1903 39.1956 9.13843 37.9039 9.13843H8.71165C7.4199 9.13843 6.36911 10.1903 6.36911 11.4833V16.6969C6.36911 17.99 7.4199 19.0419 8.71165 19.0419H36.8501C37.0317 19.5213 37.3129 19.9607 37.6848 20.333L40.2176 22.8684C39.4159 22.9593 38.6933 23.3142 38.1384 23.8442C37.7386 23.5262 37.234 23.3347 36.6848 23.3347H31.7255C30.4337 23.3347 29.3829 24.3866 29.3829 25.6796V27.4064C29.3829 28.6996 30.4337 29.7514 31.7255 29.7514H36.6848C37.2805 29.7514 37.8234 29.5259 38.2373 29.1578C38.4566 29.3524 38.6996 29.5203 38.9615 29.6573C38.0129 30.6988 37.1339 31.6942 36.3195 32.6494H31.7253C30.4336 32.6494 29.3828 33.7013 29.3828 34.9944V36.7214C29.3828 37.913 30.2759 38.8978 31.4269 39.0452C30.9472 39.7728 30.5134 40.4776 30.1233 41.1634C27.6218 45.5601 27.1579 50.3391 28.7362 54.6415H6.78768ZM36.996 25.6797V27.4066C36.996 27.5755 36.8535 27.7182 36.6848 27.7182H31.7255C31.5567 27.7182 31.4142 27.5755 31.4142 27.4066V25.6797C31.4142 25.5108 31.5567 25.3682 31.7255 25.3682H36.6848C36.8535 25.3682 36.996 25.5108 36.996 25.6797ZM32.8289 37.033H31.7255C31.5567 37.033 31.4142 36.8903 31.4142 36.7214V34.9946C31.4142 34.8257 31.5567 34.6829 31.7255 34.6829H34.6352C33.9836 35.4946 33.3826 36.2767 32.8289 37.033ZM61.1128 56.1659C58.2844 60.9437 52.7985 63.8799 46.7402 63.8799C46.6289 63.8799 46.1835 63.8799 46.0722 63.8799C40.0144 63.8799 34.5278 60.9435 31.6996 56.1659C29.1431 51.8476 29.2103 46.8771 31.8882 42.1696C33.7935 38.821 36.8035 34.9679 41.345 30.0664H51.4671C56.0085 34.9679 59.0185 38.8212 60.9238 42.1696C63.602 46.8769 63.6692 51.8476 61.1128 56.1659ZM51.8385 50.1351C51.9737 51.2503 51.6746 52.2687 50.9736 53.0802C50.1758 54.0036 48.8658 54.6295 47.3724 54.8236V55.8543C47.3724 56.4157 46.9177 56.8709 46.3568 56.8709C45.7959 56.8709 45.3412 56.4157 45.3412 55.8543V54.8083C43.109 54.4653 41.3802 53.0299 40.8731 50.9937C40.7375 50.4489 41.0686 49.897 41.6128 49.7612C42.1571 49.6261 42.7083 49.9569 42.844 50.5017C43.2718 52.2198 44.9587 52.8371 46.3451 52.8536C46.3582 52.8531 46.3714 52.8535 46.3845 52.8539C46.4296 52.8539 46.4725 52.8537 46.5158 52.8525C47.7372 52.8234 48.8838 52.3905 49.4373 51.75C49.7625 51.3737 49.8884 50.9257 49.8222 50.3802C49.6629 49.067 48.5474 48.3096 46.2051 47.9247C42.2982 47.2826 41.3876 45.2837 41.3118 43.7196C41.2067 41.5536 42.7167 39.7395 45.0692 39.2053C45.1587 39.185 45.2495 39.1667 45.3413 39.1504V38.0895C45.3413 37.528 45.7961 37.0728 46.3569 37.0728C46.9178 37.0728 47.3726 37.528 47.3726 38.0895V39.1417C49.011 39.414 50.6125 40.3856 51.4215 42.3141C51.6387 42.8318 51.3955 43.4278 50.8782 43.6451C50.3619 43.8623 49.7659 43.6192 49.5487 43.1013C48.9492 41.6723 47.6651 41.0914 46.4238 41.0881C46.3874 41.0905 46.3503 41.0909 46.3131 41.0893C46.0427 41.0961 45.7755 41.1299 45.5187 41.1883C44.4209 41.4375 43.2722 42.2075 43.3408 43.621C43.3645 44.1096 43.4275 45.4076 46.5343 45.9179C47.7436 46.1168 51.4245 46.7219 51.8385 50.1351Z" fill="#20282D"/>
</svg>
