<svg width="89" height="87" viewBox="0 0 89 87" fill="none" xmlns="http://www.w3.org/2000/svg">
<path d="M47 3L83.3731 24V66L47 87L10.6269 66V24L47 3Z" fill="#20282D"/>
<path d="M42 0L78.3731 21V63L42 84L5.62693 63V21L42 0Z" fill="white"/>
<path d="M55.535 46.2905C56.0769 45.8678 56.4734 45.2865 56.669 44.6276C56.8646 43.9687 56.8496 43.2652 56.6262 42.6153C56.4027 41.9654 55.9818 41.4014 55.4224 41.0022C54.8629 40.603 54.1928 40.3884 53.5055 40.3884C52.8182 40.3884 52.1481 40.603 51.5886 41.0022C51.0292 41.4014 50.6083 41.9654 50.3848 42.6153C50.1614 43.2652 50.1464 43.9687 50.342 44.6276C50.5376 45.2865 50.9341 45.8678 51.476 46.2905C50.6905 46.6023 49.9855 47.0873 49.4135 47.7095L49.1 44.7395C49.085 44.6044 49.0206 44.4795 48.919 44.3891C48.8174 44.2987 48.686 44.2492 48.55 44.25H48V42.6C47.9989 41.5003 47.6681 40.4263 47.0505 39.5165C46.4328 38.6066 45.5566 37.9029 44.535 37.496C45.0756 37.0725 45.4706 36.491 45.665 35.8324C45.8594 35.1738 45.8435 34.4709 45.6195 33.8218C45.3955 33.1727 44.9746 32.6096 44.4155 32.211C43.8563 31.8124 43.1867 31.5982 42.5 31.5982C41.8133 31.5982 41.1437 31.8124 40.5845 32.211C40.0254 32.6096 39.6045 33.1727 39.3805 33.8218C39.1565 34.4709 39.1406 35.1738 39.335 35.8324C39.5294 36.491 39.9244 37.0725 40.465 37.496C39.4434 37.9029 38.5672 38.6066 37.9495 39.5165C37.3319 40.4263 37.0011 41.5003 37 42.6V44.25H36.45C36.3132 44.2493 36.181 44.2997 36.0793 44.3912C35.9776 44.4827 35.9137 44.6089 35.9 44.745L35.603 47.737C35.0357 47.0993 34.325 46.6054 33.5295 46.296C34.0708 45.8729 34.4665 45.2915 34.6615 44.6327C34.8565 43.974 34.8411 43.2708 34.6173 42.6213C34.3936 41.9718 33.9727 41.4082 33.4134 41.0093C32.8541 40.6104 32.1842 40.396 31.4973 40.396C30.8103 40.396 30.1404 40.6104 29.5811 41.0093C29.0218 41.4082 28.6009 41.9718 28.3772 42.6213C28.1534 43.2708 28.138 43.974 28.333 44.6327C28.528 45.2915 28.9237 45.8729 29.465 46.296C28.4434 46.7029 27.5672 47.4066 26.9495 48.3165C26.3319 49.2263 26.0011 50.3003 26 51.4V57.45C26 57.5959 26.0579 57.7358 26.1611 57.8389C26.2642 57.9421 26.4041 58 26.55 58H58.45C58.5959 58 58.7358 57.9421 58.8389 57.8389C58.9421 57.7358 59 57.5959 59 57.45V51.4C59 50.2994 58.6697 49.2241 58.052 48.3132C57.4343 47.4023 56.5575 46.6977 55.535 46.2905ZM51.3 43.7C51.3 43.2649 51.429 42.8395 51.6708 42.4777C51.9125 42.116 52.2561 41.834 52.6581 41.6675C53.0601 41.501 53.5024 41.4574 53.9292 41.5423C54.356 41.6272 54.748 41.8367 55.0556 42.1444C55.3633 42.452 55.5728 42.844 55.6577 43.2708C55.7426 43.6976 55.699 44.1399 55.5325 44.5419C55.366 44.9439 55.084 45.2875 54.7223 45.5292C54.3605 45.771 53.9351 45.9 53.5 45.9C52.9165 45.9 52.3569 45.6682 51.9444 45.2556C51.5318 44.8431 51.3 44.2835 51.3 43.7ZM40.3 34.9C40.3 34.4649 40.429 34.0395 40.6708 33.6777C40.9125 33.316 41.2561 33.034 41.6581 32.8675C42.0601 32.701 42.5024 32.6574 42.9292 32.7423C43.356 32.8272 43.748 33.0367 44.0556 33.3444C44.3633 33.652 44.5728 34.044 44.6577 34.4708C44.7426 34.8976 44.699 35.3399 44.5325 35.7419C44.366 36.1439 44.084 36.4875 43.7223 36.7292C43.3605 36.971 42.9351 37.1 42.5 37.1C41.9165 37.1 41.3569 36.8682 40.9444 36.4556C40.5318 36.0431 40.3 35.4835 40.3 34.9ZM38.1 42.6C38.1 41.433 38.5636 40.3139 39.3887 39.4887C40.2139 38.6636 41.333 38.2 42.5 38.2C43.667 38.2 44.7861 38.6636 45.6113 39.4887C46.4364 40.3139 46.9 41.433 46.9 42.6V44.25H45.943L46.35 41.5825C46.362 41.5037 46.3566 41.4232 46.3344 41.3466C46.3122 41.2701 46.2736 41.1992 46.2213 41.1391C46.1689 41.0789 46.1042 41.0308 46.0314 40.9982C45.9587 40.9655 45.8797 40.9491 45.8 40.95H39.2C39.1203 40.9491 39.0413 40.9655 38.9686 40.9982C38.8958 41.0308 38.8311 41.0789 38.7787 41.1391C38.7264 41.1992 38.6878 41.2701 38.6656 41.3466C38.6434 41.4232 38.638 41.5037 38.65 41.5825L39.057 44.25H38.1V42.6ZM45.162 42.05L44.667 45.35H40.333L39.838 42.05H45.162ZM39.2 45.35L39.2935 45.9825C39.3134 46.1137 39.38 46.2332 39.4811 46.3191C39.5821 46.405 39.7109 46.4515 39.8435 46.45H45.1235C45.2561 46.4515 45.3849 46.405 45.4859 46.3191C45.587 46.2332 45.6536 46.1137 45.6735 45.9825L45.8 45.35H48.055L48.4785 49.3265L48.671 51.5265L46.1465 52.5385C46.0442 52.5793 45.9564 52.6498 45.8946 52.741C45.8329 52.8322 45.7999 52.9398 45.8 53.05V54.7C45.8 54.7794 45.8172 54.8579 45.8504 54.9301C45.8837 55.0023 45.9321 55.0664 45.9925 55.118C46.0921 55.2032 46.2189 55.25 46.35 55.25H46.4325L48.9625 54.8595L49.1385 56.9H35.8615L36.0375 54.854L38.5675 55.2445H38.65C38.7811 55.2445 38.9079 55.1977 39.0075 55.1125C39.0672 55.0615 39.1152 54.9983 39.1484 54.9271C39.1816 54.856 39.1992 54.7785 39.2 54.7V53.05C39.2001 52.9398 39.1671 52.8322 39.1054 52.741C39.0436 52.6498 38.9558 52.5793 38.8535 52.5385L36.3345 51.532L36.9505 45.35H39.2ZM29.3 43.7C29.3 43.2649 29.429 42.8395 29.6708 42.4777C29.9125 42.116 30.2561 41.834 30.6581 41.6675C31.0601 41.501 31.5024 41.4574 31.9292 41.5423C32.356 41.6272 32.748 41.8367 33.0556 42.1444C33.3633 42.452 33.5728 42.844 33.6577 43.2708C33.7426 43.6976 33.699 44.1399 33.5325 44.5419C33.366 44.9439 33.084 45.2875 32.7223 45.5292C32.3605 45.771 31.9351 45.9 31.5 45.9C30.9165 45.9 30.3569 45.6682 29.9444 45.2556C29.5318 44.8431 29.3 44.2835 29.3 43.7ZM27.1 51.4C27.1 50.233 27.5636 49.1139 28.3887 48.2887C29.2139 47.4636 30.333 47 31.5 47C32.318 46.9999 33.1198 47.2279 33.8155 47.6583C34.5111 48.0887 35.073 48.7045 35.438 49.4365L35.273 51.0865L33.7 50.476V49.2H32.6V50.85C32.5999 50.9602 32.6329 51.0678 32.6946 51.159C32.7564 51.2502 32.8442 51.3207 32.9465 51.3615L38.1 53.424V54.0565L31.863 53.0995L30.8895 51.1525L29.9105 51.6475L31.0105 53.8475C31.0498 53.9259 31.1072 53.9937 31.178 54.0453C31.2488 54.097 31.3309 54.131 31.4175 54.1445L34.9485 54.6945L34.756 56.8945H27.1V51.4ZM57.9 56.9H50.244L50.0515 54.7L53.5825 54.15C53.6691 54.1365 53.7512 54.1025 53.822 54.0508C53.8928 53.9992 53.9502 53.9314 53.9895 53.853L55.0895 51.653L54.1105 51.158L53.137 53.105L46.9 54.0565V53.424L52.0535 51.3615C52.1558 51.3207 52.2436 51.2502 52.3054 51.159C52.3671 51.0678 52.4001 50.9602 52.4 50.85V49.2H51.3V50.476L49.738 51.103L49.5895 49.398C49.9577 48.6773 50.5176 48.0722 51.2075 47.6491C51.8974 47.226 52.6907 47.0014 53.5 47C54.667 47 55.7861 47.4636 56.6113 48.2887C57.4364 49.1139 57.9 50.233 57.9 51.4V56.9Z" fill="#20282D"/>
<path d="M26.55 37.1H29.575L31.06 39.08C31.1112 39.1483 31.1777 39.2037 31.254 39.2419C31.3304 39.2801 31.4146 39.3 31.5 39.3C31.5854 39.3 31.6696 39.2801 31.746 39.2419C31.8223 39.2037 31.8888 39.1483 31.94 39.08L33.425 37.1H36.45C36.5959 37.1 36.7358 37.0421 36.8389 36.9389C36.9421 36.8358 37 36.6959 37 36.55V25.55C37 25.4041 36.9421 25.2642 36.8389 25.1611C36.7358 25.0579 36.5959 25 36.45 25H26.55C26.4041 25 26.2642 25.0579 26.1611 25.1611C26.0579 25.2642 26 25.4041 26 25.55V36.55C26 36.6959 26.0579 36.8358 26.1611 36.9389C26.2642 37.0421 26.4041 37.1 26.55 37.1ZM27.1 26.1H35.9V36H33.15C33.0646 36 32.9804 36.0199 32.904 36.0581C32.8277 36.0963 32.7612 36.1517 32.71 36.22L31.5 37.8315L30.29 36.22C30.2388 36.1517 30.1723 36.0963 30.096 36.0581C30.0196 36.0199 29.9354 36 29.85 36H27.1V26.1Z" fill="#20282D"/>
<path d="M28.2 33.8H34.8V34.9H28.2V33.8Z" fill="#20282D"/>
<path d="M28.2 31.6H34.8V32.7H28.2V31.6Z" fill="#20282D"/>
<path d="M28.2 29.4H34.8V30.5H28.2V29.4Z" fill="#20282D"/>
<path d="M33.7 27.2H34.8V28.3H33.7V27.2Z" fill="#20282D"/>
<path d="M30.4 27.2H32.6V28.3H30.4V27.2Z" fill="#20282D"/>
<path d="M28.2 27.2H29.3V28.3H28.2V27.2Z" fill="#20282D"/>
<path d="M58.45 25H48.55C48.4041 25 48.2642 25.0579 48.1611 25.1611C48.0579 25.2642 48 25.4041 48 25.55V36.55C48 36.6959 48.0579 36.8358 48.1611 36.9389C48.2642 37.0421 48.4041 37.1 48.55 37.1H51.575L53.06 39.08C53.1112 39.1483 53.1777 39.2037 53.254 39.2419C53.3304 39.2801 53.4146 39.3 53.5 39.3C53.5854 39.3 53.6696 39.2801 53.746 39.2419C53.8223 39.2037 53.8888 39.1483 53.94 39.08L55.425 37.1H58.45C58.5959 37.1 58.7358 37.0421 58.8389 36.9389C58.9421 36.8358 59 36.6959 59 36.55V25.55C59 25.4041 58.9421 25.2642 58.8389 25.1611C58.7358 25.0579 58.5959 25 58.45 25ZM57.9 36H55.15C55.0646 36 54.9804 36.0199 54.904 36.0581C54.8277 36.0963 54.7612 36.1517 54.71 36.22L53.5 37.8315L52.29 36.22C52.2388 36.1517 52.1723 36.0963 52.096 36.0581C52.0196 36.0199 51.9354 36 51.85 36H49.1V26.1H57.9V36Z" fill="#20282D"/>
<path d="M50.2 27.2H56.8V28.3H50.2V27.2Z" fill="#20282D"/>
<path d="M50.2 29.4H56.8V30.5H50.2V29.4Z" fill="#20282D"/>
<path d="M50.2 31.6H56.8V32.7H50.2V31.6Z" fill="#20282D"/>
<path d="M50.2 33.8H51.3V34.9H50.2V33.8Z" fill="#20282D"/>
<path d="M52.4 33.8H54.6V34.9H52.4V33.8Z" fill="#20282D"/>
<path d="M55.7 33.8H56.8V34.9H55.7V33.8Z" fill="#20282D"/>
</svg>
