<svg width="89" height="87" viewBox="0 0 89 87" fill="none" xmlns="http://www.w3.org/2000/svg">
<path d="M47 3L83.3731 24V66L47 87L10.6269 66V24L47 3Z" fill="#20282D"/>
<path d="M42 0L78.3731 21V63L42 84L5.62693 63V21L42 0Z" fill="white"/>
<path d="M42.5806 42.522C43.9039 42.252 44.9032 41.0797 44.9032 39.6774C44.9032 38.2752 43.9039 37.1028 42.5806 36.8328V33.2903C42.5806 32.3299 41.7991 31.5484 40.8387 31.5484C39.9846 31.5484 39.2756 32.1674 39.1281 32.9797C37.014 34.6752 34.3732 35.6129 31.6587 35.6129H30.3871C28.7863 35.6129 27.4839 36.9153 27.4839 38.5161V40.8387C27.4839 42.0267 28.2027 43.0475 29.227 43.4963L24 47.5208V60H43.7419V47.5208L42.4988 46.5639C42.547 46.4048 42.5806 46.2393 42.5806 46.0645V42.522ZM43.7419 39.6774C43.7419 40.4334 43.2548 41.0721 42.5806 41.3125V38.0429C43.2548 38.2827 43.7419 38.9214 43.7419 39.6774ZM30.0149 53.6129L25.1613 58.0932V49.1326L30.0149 53.6129ZM32.3561 53.0323H35.3859L41.676 58.8387H26.0659L32.3561 53.0323ZM37.727 53.6129L42.5806 49.1326V58.0932L37.727 53.6129ZM36.8712 52.8226L35.8399 51.871H31.902L30.8708 52.8226L25.4801 47.8465L30.0312 44.3423L31.0723 49.5484H34.4516V44.0834C36.1512 44.4933 37.7514 45.2708 39.1281 46.3752C39.2756 47.1875 39.9846 47.8065 40.8387 47.8065C41.2016 47.8065 41.5378 47.6944 41.8171 47.5045L42.2619 47.8471L36.8712 52.8226ZM39.0968 44.8986C37.0471 43.4865 34.6241 42.6915 32.129 42.601V36.7533C34.6241 36.6627 37.0471 35.8678 39.0968 34.4557V44.8986ZM33.2903 43.8656V48.3871H32.0245L31.0955 43.7419H31.6587C32.2074 43.7419 32.7509 43.7907 33.2903 43.8656ZM40.2581 33.2903C40.2581 32.9704 40.5188 32.7097 40.8387 32.7097C41.1586 32.7097 41.4194 32.9704 41.4194 33.2903V46.0645C41.4194 46.3845 41.1586 46.6452 40.8387 46.6452C40.5188 46.6452 40.2581 46.3845 40.2581 46.0645V33.2903ZM28.752 41.4194H29.8065V40.2581H28.6452V39.0968H29.8065V37.9355H28.752C28.9924 37.2614 29.6311 36.7742 30.3871 36.7742H30.9677V42.5806H30.3871C29.6311 42.5806 28.9924 42.0935 28.752 41.4194Z" fill="#20282D"/>
<path d="M46.0645 39.0968H48.3871V40.2581H46.0645V39.0968Z" fill="#20282D"/>
<path d="M44.4602 36.3936L46.9237 33.9302L47.7448 34.7513L45.2813 37.2148L44.4602 36.3936Z" fill="#20282D"/>
<path d="M44.4593 42.9627L45.2804 42.1416L47.7439 44.605L46.9227 45.4262L44.4593 42.9627Z" fill="#20282D"/>
<path d="M53.6129 47.2258C50.0913 47.2258 47.2258 50.0913 47.2258 53.6129C47.2258 57.1345 50.0913 60 53.6129 60C57.1345 60 60 57.1345 60 53.6129C60 50.0913 57.1345 47.2258 53.6129 47.2258ZM53.6129 58.8387C50.7317 58.8387 48.3871 56.4941 48.3871 53.6129C48.3871 50.7317 50.7317 48.3871 53.6129 48.3871C56.4941 48.3871 58.8387 50.7317 58.8387 53.6129C58.8387 56.4941 56.4941 58.8387 53.6129 58.8387Z" fill="#20282D"/>
<path d="M57.6774 36.7742H49.5484V44.9032H57.6774V36.7742ZM56.5161 43.7419H50.7097V37.9355H56.5161V43.7419Z" fill="#20282D"/>
<path d="M51.871 39.0968H55.3548V40.2581H51.871V39.0968Z" fill="#20282D"/>
<path d="M51.871 41.4194H55.3548V42.5806H51.871V41.4194Z" fill="#20282D"/>
<path d="M53.6129 34.4516V33.2903C52.0121 33.2903 50.7097 31.9879 50.7097 30.3871V28.0645C50.7097 26.4637 52.0121 25.1613 53.6129 25.1613C55.2137 25.1613 56.5161 26.4637 56.5161 28.0645V32.129C56.5161 32.449 56.2554 32.7097 55.9355 32.7097C55.6155 32.7097 55.3548 32.449 55.3548 32.129V28.0645C55.3548 27.1041 54.5733 26.3226 53.6129 26.3226C52.6525 26.3226 51.871 27.1041 51.871 28.0645V30.3871C51.871 31.3475 52.6525 32.129 53.6129 32.129C53.8173 32.129 54.0112 32.0872 54.1935 32.0222V32.129C54.1935 33.0894 54.9751 33.871 55.9355 33.871C56.8959 33.871 57.6774 33.0894 57.6774 32.129V28.0645C57.6774 25.8232 55.8542 24 53.6129 24C51.3716 24 49.5484 25.8232 49.5484 28.0645V30.3871C49.5484 32.6284 51.3716 34.4516 53.6129 34.4516ZM53.6129 30.9677C53.293 30.9677 53.0323 30.707 53.0323 30.3871V28.0645C53.0323 27.7446 53.293 27.4839 53.6129 27.4839C53.9328 27.4839 54.1935 27.7446 54.1935 28.0645V30.3871C54.1935 30.707 53.9328 30.9677 53.6129 30.9677Z" fill="#20282D"/>
<path d="M55.6759 52.253L52.9097 50.8699C52.6995 50.7654 52.4644 50.7097 52.2298 50.7097C51.3914 50.7097 50.7097 51.3914 50.7097 52.2298V54.996C50.7097 55.8344 51.3914 56.5161 52.2298 56.5161C52.4644 56.5161 52.6995 56.4604 52.9097 56.3559L55.6754 54.9728C56.1939 54.7138 56.5161 54.193 56.5161 53.6129C56.5161 53.0328 56.1939 52.512 55.6759 52.253ZM55.1563 53.934L52.3901 55.3171C52.1625 55.4309 51.871 55.2492 51.871 54.996V52.2298C51.871 52.0318 52.0318 51.871 52.2298 51.871C52.285 51.871 52.3407 51.8837 52.3901 51.9087L55.1563 53.2918C55.2788 53.3534 55.3548 53.4759 55.3548 53.6129C55.3548 53.7499 55.2788 53.8725 55.1563 53.934Z" fill="#20282D"/>
</svg>
