<svg width="89" height="87" viewBox="0 0 89 87" fill="none" xmlns="http://www.w3.org/2000/svg">
<path d="M47 3L83.3731 24V66L47 87L10.6269 66V24L47 3Z" fill="#20282D"/>
<path d="M42 0L78.3731 21V63L42 84L5.62693 63V21L42 0Z" fill="white"/>
<path d="M56.5161 43.469V32.0826C58.4828 31.7992 60 30.1078 60 28.0645C60 25.8238 58.1768 24 55.9355 24C53.6942 24 51.871 25.8238 51.871 28.0645H24V51.2903H41.449C41.7509 56.1422 45.7835 60 50.7097 60C55.8321 60 60 55.8321 60 50.7097C60 47.7838 58.6372 45.1732 56.5161 43.469ZM55.9355 25.1613C57.5363 25.1613 58.8387 26.4637 58.8387 28.0645C58.8387 29.6654 57.5363 30.9677 55.9355 30.9677C54.3346 30.9677 53.0323 29.6654 53.0323 28.0645C53.0323 26.4637 54.3346 25.1613 55.9355 25.1613ZM25.1613 29.2258H52.0423C52.181 29.6892 52.4017 30.1159 52.685 30.4945L49.1338 34.0457C48.9062 33.9366 48.6554 33.871 48.3871 33.871C48.1188 33.871 47.868 33.9366 47.641 34.0457L46.471 32.8757C46.5795 32.6481 46.6452 32.3973 46.6452 32.129C46.6452 31.1686 45.8636 30.3871 44.9032 30.3871C43.9428 30.3871 43.1613 31.1686 43.1613 32.129C43.1613 32.3973 43.2269 32.6481 43.3361 32.8752L40.4241 35.7871C40.1965 35.6785 39.9457 35.6129 39.6774 35.6129C38.717 35.6129 37.9355 36.3945 37.9355 37.3548C37.9355 38.3152 38.717 39.0968 39.6774 39.0968C40.6378 39.0968 41.4194 38.3152 41.4194 37.3548C41.4194 37.0866 41.3537 36.8357 41.2446 36.6087L44.1565 33.6968C44.3841 33.8054 44.635 33.871 44.9032 33.871C45.1715 33.871 45.4223 33.8054 45.6494 33.6962L46.8194 34.8662C46.7108 35.0938 46.6452 35.3446 46.6452 35.6129C46.6452 36.5733 47.4267 37.3548 48.3871 37.3548C49.3475 37.3548 50.129 36.5733 50.129 35.6129C50.129 35.3446 50.0634 35.0938 49.9543 34.8668L53.5061 31.3155C54.0374 31.7139 54.6679 31.9839 55.3548 32.0832V42.677C53.9863 41.8821 52.4028 41.4194 50.7097 41.4194C47.9342 41.4194 45.4455 42.6492 43.7419 44.5856V42H40.2581V48.9677H41.5889C41.5169 49.3469 41.4734 49.7354 41.449 50.129H25.1613V29.2258ZM48.3871 35.0323C48.707 35.0323 48.9677 35.2924 48.9677 35.6129C48.9677 35.9334 48.707 36.1935 48.3871 36.1935C48.0672 36.1935 47.8065 35.9334 47.8065 35.6129C47.8065 35.2924 48.0672 35.0323 48.3871 35.0323ZM44.3226 32.129C44.3226 31.8085 44.5833 31.5484 44.9032 31.5484C45.2232 31.5484 45.4839 31.8085 45.4839 32.129C45.4839 32.4495 45.2232 32.7097 44.9032 32.7097C44.5833 32.7097 44.3226 32.4495 44.3226 32.129ZM40.2581 37.3548C40.2581 37.6754 39.9974 37.9355 39.6774 37.9355C39.3575 37.9355 39.0968 37.6754 39.0968 37.3548C39.0968 37.0343 39.3575 36.7742 39.6774 36.7742C39.9974 36.7742 40.2581 37.0343 40.2581 37.3548ZM50.7097 55.3548C48.1485 55.3548 46.0645 53.2709 46.0645 50.7097C46.0645 48.1485 48.1485 46.0645 50.7097 46.0645C53.2709 46.0645 55.3548 48.1485 55.3548 50.7097C55.3548 53.2709 53.2709 55.3548 50.7097 55.3548ZM42.5806 46.2219C42.3025 46.7235 42.0726 47.2537 41.8903 47.8065H41.4194V43.1613H42.5806V46.2219ZM50.129 42.6103V44.9328C47.1991 45.2255 44.9032 47.7043 44.9032 50.7097C44.9032 51.5592 45.0914 52.3645 45.4206 53.0926L43.4063 54.2557C42.8826 53.1826 42.5806 51.9819 42.5806 50.7097C42.5806 46.4234 45.9176 42.9099 50.129 42.6103ZM50.7097 58.8387C47.9145 58.8387 45.4444 57.4202 43.9812 55.2648L46.0035 54.0972C47.0592 55.5592 48.7726 56.5161 50.7097 56.5161C52.6467 56.5161 54.3602 55.5592 55.4158 54.0972L57.4382 55.2648C55.975 57.4202 53.5049 58.8387 50.7097 58.8387ZM58.013 54.2557L55.9988 53.0926C56.328 52.3645 56.5161 51.5592 56.5161 50.7097C56.5161 47.7043 54.2203 45.2249 51.2903 44.9328V42.6103C55.5017 42.9099 58.8387 46.4234 58.8387 50.7097C58.8387 51.9819 58.5368 53.1826 58.013 54.2557Z" fill="#20282D"/>
<path d="M50.7097 47.2258C48.7883 47.2258 47.2258 48.7883 47.2258 50.7097C47.2258 52.631 48.7883 54.1935 50.7097 54.1935C52.631 54.1935 54.1935 52.631 54.1935 50.7097C54.1935 48.7883 52.631 47.2258 50.7097 47.2258ZM50.7097 53.0323C49.4288 53.0323 48.3871 51.9906 48.3871 50.7097C48.3871 49.4288 49.4288 48.3871 50.7097 48.3871C51.9906 48.3871 53.0323 49.4288 53.0323 50.7097C53.0323 51.9906 51.9906 53.0323 50.7097 53.0323Z" fill="#20282D"/>
<path d="M26.3226 30.3871H27.4839V31.5484H26.3226V30.3871Z" fill="#20282D"/>
<path d="M28.6452 30.3871H36.7742V31.5484H28.6452V30.3871Z" fill="#20282D"/>
<path d="M26.3226 32.7097H27.4839V33.871H26.3226V32.7097Z" fill="#20282D"/>
<path d="M28.6452 32.7097H36.7742V33.871H28.6452V32.7097Z" fill="#20282D"/>
<path d="M26.3226 35.0323H27.4839V36.1935H26.3226V35.0323Z" fill="#20282D"/>
<path d="M28.6452 35.0323H36.7742V36.1935H28.6452V35.0323Z" fill="#20282D"/>
<path d="M26.3226 37.3548H27.4839V38.5161H26.3226V37.3548Z" fill="#20282D"/>
<path d="M28.6452 37.3548H36.7742V38.5161H28.6452V37.3548Z" fill="#20282D"/>
<path d="M26.3226 48.9677H29.8065V43.1613H26.3226V48.9677ZM27.4839 44.3226H28.6452V47.8065H27.4839V44.3226Z" fill="#20282D"/>
<path d="M30.9677 48.9677H34.4516V44.3226H30.9677V48.9677ZM32.129 45.4839H33.2903V47.8065H32.129V45.4839Z" fill="#20282D"/>
<path d="M35.6129 48.9677H39.0968V39.6774H35.6129V48.9677ZM36.7742 40.8387H37.9355V47.8065H36.7742V40.8387Z" fill="#20282D"/>
</svg>
